<?xml version="1.0" encoding="UTF-8"?>
<svg id="Livello_1" data-name="Livello 1" xmlns="http://www.w3.org/2000/svg" viewBox="0 0 45 45">
  <defs>
    <style>
      .cls-1 {
        fill: #89ba17;
        fill-rule: evenodd;
      }
    </style>
  </defs>
  <path class="cls-1" d="m35.65,37.61c.26-.05.48-.19.63-.4.15-.21.21-.47.16-.73-.05-.26-.19-.48-.4-.63-.21-.15-.47-.2-.73-.16l-.49.09-.89-5.03c-.36-2.01-1.58-3.75-3.35-4.76l-6.58-3.76,4.89-5.79c1.32-1.56,1.87-3.61,1.51-5.62l-.89-5.03.49-.09c.53-.09.88-.6.79-1.13-.09-.53-.59-.88-1.13-.79l-20.3,3.59c-.26.05-.48.19-.63.4-.15.21-.21.47-.16.73h0c.05.26.19.48.4.63.21.15.47.21.73.16l.49-.09.89,5.03c.36,2.01,1.58,3.75,3.35,4.76l6.58,3.76-4.89,5.79c-1.32,1.56-1.87,3.61-1.51,5.62l.89,5.03-.49.09c-.53.09-.88.6-.79,1.13.09.53.59.88,1.13.79l20.3-3.59Zm-2.75-1.49l-15.49,2.74-.69-3.88,15.49-2.74.69,3.88ZM15.39,17.31c-1.27-.73-2.15-1.97-2.4-3.41l-.89-5.03,15.49-2.74.89,5.03c.26,1.44-.14,2.91-1.08,4.03l-5.12,6.06-6.89-3.94Zm1.09,15.08c.12-.96.5-1.85,1.12-2.58l5.12-6.06,6.89,3.94c.83.48,1.51,1.18,1.94,2.04l.31.6-15.46,2.74.08-.67Z"/>
</svg>