<?xml version="1.0" encoding="UTF-8"?>
<svg id="Livello_1" data-name="Livello 1" xmlns="http://www.w3.org/2000/svg" viewBox="0 0 191 34.08">
  <defs>
    <style>
      .cls-1 {
        fill: #e74a25;
      }

      .cls-2 {
        fill: #fff;
      }
    </style>
  </defs>
  <polygon class="cls-1" points="156.92 34.08 0 34.08 0 0 168.67 0 156.92 34.08"/>
  <polygon class="cls-1" points="171.02 34.08 161.62 34.08 173.37 0 182.77 0 171.02 34.08"/>
  <polygon class="cls-1" points="179.25 34.08 174.55 34.08 186.3 0 191 0 179.25 34.08"/>
  <g>
    <path class="cls-2" d="m26.6,22.1h-5.7l-2.07,4.19h-3.86l9.23-17.69h4.5l1.77,17.69h-3.58l-.29-4.19Zm-.18-3.13l-.31-4.22c-.08-1.05-.12-2.07-.12-3.05v-.43c-.35.96-.79,1.98-1.31,3.06l-2.26,4.64h4.01Z"/>
    <path class="cls-2" d="m38.14,23.61c.52,0,1.17-.14,1.95-.42v2.71c-.89.42-1.96.64-3.21.64s-2.09-.25-2.66-.76-.85-1.29-.85-2.35c0-.4.05-.85.14-1.35l1.39-6.5h-1.83l.35-1.77,2.36-1.01,1.59-2.84h2.34l-.59,2.87h3.41l-.6,2.76h-3.4l-1.39,6.5c-.05.24-.07.45-.07.64,0,.59.35.89,1.06.89Z"/>
    <path class="cls-2" d="m48.26,23.61c.52,0,1.17-.14,1.95-.42v2.71c-.89.42-1.96.64-3.21.64s-2.09-.25-2.66-.76-.85-1.29-.85-2.35c0-.4.05-.85.14-1.35l1.39-6.5h-1.83l.35-1.77,2.36-1.01,1.59-2.84h2.34l-.59,2.87h3.41l-.6,2.76h-3.4l-1.39,6.5c-.05.24-.07.45-.07.64,0,.59.35.89,1.06.89Z"/>
    <path class="cls-2" d="m58.6,26.54c-1.69,0-3-.45-3.93-1.36-.93-.91-1.4-2.19-1.4-3.84s.33-3.18.99-4.55c.66-1.37,1.56-2.41,2.69-3.13,1.13-.72,2.41-1.08,3.84-1.08s2.53.33,3.33.98c.8.65,1.19,1.55,1.19,2.69,0,1.5-.67,2.66-2.01,3.48s-3.26,1.22-5.75,1.22h-.61l-.02.25v.24c0,.73.21,1.31.62,1.73.41.42,1.01.63,1.78.63.7,0,1.33-.08,1.9-.23.57-.15,1.26-.42,2.07-.81v2.74c-1.38.69-2.95,1.04-4.7,1.04Zm1.98-11.35c-.71,0-1.37.32-2,.96s-1.04,1.43-1.23,2.35h.54c1.25,0,2.21-.19,2.91-.58.69-.39,1.04-.92,1.04-1.58,0-.76-.42-1.14-1.27-1.14Z"/>
    <path class="cls-2" d="m77.72,26.29h-3.63l1.65-7.87c.13-.55.19-1.02.19-1.43,0-.99-.43-1.48-1.3-1.48-.74,0-1.41.46-2.01,1.37-.6.92-1.08,2.19-1.42,3.83l-1.18,5.58h-3.63l2.86-13.47h2.77l-.25,2.5h.07c1.17-1.83,2.6-2.75,4.28-2.75,1.11,0,1.97.34,2.57,1.01.61.67.91,1.63.91,2.87,0,.59-.09,1.31-.28,2.17l-1.6,7.68Z"/>
    <path class="cls-2" d="m89.86,26.29h-9.58l.42-2.17,6.93-8.5h-4.78l.62-2.81h9.04l-.52,2.41-6.82,8.25h5.29l-.59,2.81Z"/>
    <path class="cls-2" d="m96.15,26.29h-3.63l2.86-13.47h3.63l-2.86,13.47Zm-.19-16.63c0-.7.19-1.23.57-1.58.38-.36.92-.54,1.62-.54.59,0,1.03.12,1.34.37.3.25.46.61.46,1.07,0,.64-.18,1.16-.53,1.56-.35.4-.9.6-1.64.6-1.21,0-1.82-.49-1.82-1.48Z"/>
    <path class="cls-2" d="m112.76,17.91c0,1.69-.28,3.2-.85,4.51-.57,1.31-1.38,2.32-2.45,3.04s-2.34,1.08-3.81,1.08c-1.57,0-2.82-.47-3.75-1.42-.94-.94-1.4-2.2-1.4-3.77,0-1.71.29-3.24.86-4.57.57-1.34,1.4-2.37,2.49-3.11,1.08-.73,2.35-1.1,3.81-1.1,1.57,0,2.82.47,3.74,1.42.92.95,1.37,2.25,1.37,3.92Zm-3.65,0c0-1.58-.57-2.37-1.72-2.37-.6,0-1.14.25-1.62.73-.48.49-.87,1.21-1.17,2.16-.3.95-.45,1.92-.45,2.93,0,1.49.6,2.23,1.81,2.23.6,0,1.15-.25,1.63-.74.48-.49.86-1.18,1.13-2.06.27-.88.4-1.84.4-2.87Z"/>
    <path class="cls-2" d="m125.61,26.29h-3.63l1.65-7.87c.13-.55.19-1.02.19-1.43,0-.99-.43-1.48-1.3-1.48-.74,0-1.41.46-2.01,1.37-.6.92-1.08,2.19-1.42,3.83l-1.18,5.58h-3.63l2.86-13.47h2.77l-.25,2.5h.07c1.17-1.83,2.6-2.75,4.28-2.75,1.11,0,1.97.34,2.57,1.01.61.67.91,1.63.91,2.87,0,.59-.09,1.31-.28,2.17l-1.6,7.68Z"/>
    <path class="cls-2" d="m135.16,26.54c-1.69,0-3-.45-3.93-1.36-.93-.91-1.4-2.19-1.4-3.84s.33-3.18.99-4.55c.66-1.37,1.56-2.41,2.69-3.13,1.13-.72,2.41-1.08,3.84-1.08s2.53.33,3.33.98c.8.65,1.19,1.55,1.19,2.69,0,1.5-.67,2.66-2.01,3.48s-3.26,1.22-5.75,1.22h-.61l-.02.25v.24c0,.73.21,1.31.62,1.73.41.42,1.01.63,1.78.63.7,0,1.33-.08,1.9-.23.57-.15,1.26-.42,2.07-.81v2.74c-1.38.69-2.95,1.04-4.7,1.04Zm1.98-11.35c-.71,0-1.37.32-2,.96s-1.04,1.43-1.23,2.35h.54c1.25,0,2.21-.19,2.91-.58.69-.39,1.04-.92,1.04-1.58,0-.76-.42-1.14-1.27-1.14Z"/>
  </g>
</svg>