<?xml version="1.0" encoding="UTF-8"?>
<svg id="Livello_1" data-name="Livello 1" xmlns="http://www.w3.org/2000/svg" viewBox="0 0 45 45">
  <defs>
    <style>
      .cls-1 {
        fill: #89ba17;
      }
    </style>
  </defs>
  <path class="cls-1" d="m6.28,30.76c-2.82,0-5.04-2.21-5.04-5.04v-.81c0-5.89,4.79-10.69,10.69-10.69h3.23c.55,0,1,.45,1,1s-.45,1-1,1h-3.23c-4.79,0-8.69,3.9-8.69,8.69v.81c0,1.7,1.33,3.04,3.04,3.04s3.04-1.33,3.04-3.04c0-3.6,3.04-6.65,6.65-6.65h5.65c.55,0,1,.45,1,1s-.45,1-1,1h-5.65c-2.52,0-4.65,2.13-4.65,4.65,0,2.82-2.21,5.04-5.04,5.04Z"/>
  <path class="cls-1" d="m31.46,37.38c-1.1,0-2.15-.45-2.97-1.26l-14.04-14.04c-.19-.19-.29-.44-.29-.71v-12.75c0-.55.45-1,1-1h12.75c.27,0,.53.11.71.3l13.88,14.21c.81.8,1.25,1.86,1.25,2.96s-.45,2.15-1.26,2.97l-8.07,8.07c-.81.81-1.87,1.26-2.97,1.26Zm-15.3-16.43l13.75,13.75c.87.87,2.23.87,3.11,0l8.07-8.07c.44-.44.68-.99.68-1.55s-.24-1.12-.68-1.55l-13.6-13.91h-11.33v11.34Z"/>
</svg>