<?xml version="1.0" encoding="UTF-8"?>
<svg id="Livello_1" data-name="Livello 1" xmlns="http://www.w3.org/2000/svg" viewBox="0 0 133 34.08">
  <defs>
    <style>
      .cls-1 {
        fill: #fff;
      }

      .cls-2 {
        fill: #ffb136;
      }
    </style>
  </defs>
  <polygon class="cls-2" points="98.92 34.08 0 34.08 0 0 110.67 0 98.92 34.08"/>
  <polygon class="cls-2" points="113.02 34.08 103.62 34.08 115.37 0 124.77 0 113.02 34.08"/>
  <polygon class="cls-2" points="121.25 34.08 116.55 34.08 128.3 0 133 0 121.25 34.08"/>
  <g>
    <path class="cls-1" d="m26.6,22.1h-5.7l-2.07,4.19h-3.86l9.23-17.69h4.5l1.77,17.69h-3.58l-.29-4.19Zm-.18-3.13l-.31-4.22c-.08-1.05-.12-2.07-.12-3.05v-.43c-.35.96-.79,1.98-1.31,3.06l-2.26,4.64h4.01Z"/>
    <path class="cls-1" d="m37.43,22.67c.44-1.23.81-2.12,1.11-2.69l3.58-7.16h3.89l-7.28,13.47h-3.89l-1.66-13.47h3.55l.54,7.06c.06,1.07.08,2,.08,2.78h.07Z"/>
    <path class="cls-1" d="m50.07,22.67c.44-1.23.81-2.12,1.11-2.69l3.58-7.16h3.89l-7.28,13.47h-3.89l-1.66-13.47h3.55l.54,7.06c.06,1.07.08,2,.08,2.78h.07Z"/>
    <path class="cls-1" d="m61.3,26.29h-3.63l2.86-13.47h3.63l-2.86,13.47Zm-.19-16.63c0-.7.19-1.23.57-1.58.38-.36.92-.54,1.62-.54.59,0,1.03.12,1.34.37.3.25.46.61.46,1.07,0,.64-.18,1.16-.53,1.56-.35.4-.9.6-1.64.6-1.21,0-1.82-.49-1.82-1.48Z"/>
    <path class="cls-1" d="m74.54,21.85c0,1.51-.5,2.67-1.5,3.48-1,.81-2.39,1.21-4.17,1.21-.86,0-1.61-.06-2.25-.18-.64-.12-1.24-.32-1.79-.6v-2.99c1.26.72,2.54,1.08,3.84,1.08.64,0,1.17-.13,1.58-.39.41-.26.61-.62.61-1.07,0-.35-.15-.66-.45-.93-.3-.27-.82-.62-1.58-1.04-.97-.55-1.65-1.09-2.04-1.63-.38-.54-.58-1.18-.58-1.92,0-1.37.44-2.42,1.33-3.17s2.15-1.13,3.8-1.13,3.07.38,4.37,1.14l-1.19,2.59c-1.12-.67-2.16-1.01-3.11-1.01-.46,0-.83.1-1.11.31-.28.2-.42.48-.42.83,0,.31.13.59.39.83.26.24.74.54,1.45.9.99.51,1.7,1.06,2.15,1.65.44.59.66,1.28.66,2.05Z"/>
    <path class="cls-1" d="m80.31,26.29h-3.63l2.86-13.47h3.63l-2.86,13.47Zm-.19-16.63c0-.7.19-1.23.57-1.58.38-.36.92-.54,1.62-.54.59,0,1.03.12,1.34.37.3.25.46.61.46,1.07,0,.64-.18,1.16-.53,1.56-.35.4-.9.6-1.64.6-1.21,0-1.82-.49-1.82-1.48Z"/>
  </g>
</svg>