<?xml version="1.0" encoding="UTF-8"?>
<svg id="Livello_1" data-name="Livello 1" xmlns="http://www.w3.org/2000/svg" viewBox="0 0 45 45">
  <defs>
    <style>
      .cls-1 {
        fill: #89ba17;
      }
    </style>
  </defs>
  <g id="Layer_1">
    <g id="_250515888" data-name=" 250515888">
      <path class="cls-1" d="m32.98,4.21c.38.11.74.23,1.09.38.35.15.7.32,1.04.5l1.76-1.76h0c.26-.26.69-.26.95,0h0l2.93,2.93h0c.26.26.26.69,0,.95h0l-1.75,1.75c.18.33.35.68.5,1.04.14.35.27.71.38,1.09h2.48c.37,0,.67.3.67.67v4.15c0,.37-.3.67-.67.67h-2.48c-.11.38-.23.74-.38,1.09-.15.35-.32.7-.5,1.04l1.76,1.76h0c.26.26.26.69,0,.95h0l-2.93,2.93h0c-.26.26-.69.26-.95,0h0l-1.75-1.75c-.33.18-.68.35-1.04.5-.35.14-.71.27-1.09.38v2.48c0,.37-.3.67-.67.67h-4.15c-.37,0-.67-.3-.67-.67v-2.48c-.37-.11-.74-.23-1.09-.38-.35-.15-.7-.32-1.04-.5l-1.76,1.76h0c-.26.26-.69.26-.95,0h0l-2.93-2.93h0c-.26-.26-.26-.69,0-.95h0l1.75-1.75c-.18-.33-.35-.68-.5-1.04-.14-.35-.27-.71-.38-1.09h-2.48c-.37,0-.67-.3-.67-.67v-4.15c0-.37.3-.67.67-.67h2.48c.11-.37.23-.74.38-1.09.15-.35.32-.7.5-1.04l-1.76-1.76h0c-.26-.26-.26-.69,0-.95h0l2.93-2.93h0c.26-.26.69-.26.95,0h0l1.75,1.75c.33-.18.68-.35,1.04-.5.35-.14.71-.27,1.09-.38V1.73c0-.37.3-.67.67-.67h4.15c.37,0,.67.3.67.67v2.48Zm.57,1.62c-.44-.18-.88-.33-1.34-.44-.33-.05-.57-.33-.57-.66v-2.33h-2.81v2.32c0,.31-.21.59-.52.67l-.15-.65.15.65c-.48.11-.94.26-1.39.44-.44.18-.86.4-1.26.64-.26.19-.64.18-.87-.07h0l-1.65-1.65-1.99,1.99,1.64,1.64c.23.22.28.57.1.84h0c-.26.41-.49.85-.67,1.3-.18.44-.33.88-.44,1.34-.05.33-.33.57-.66.57h-2.33v2.81h2.32c.31,0,.59.21.67.52l-.65.15.65-.15c.11.48.26.94.44,1.39.18.44.4.86.64,1.26.19.26.18.64-.07.87h0l-1.65,1.65,1.99,1.99,1.64-1.64c.22-.23.57-.28.85-.1h0c.41.26.85.49,1.3.67.44.18.88.33,1.34.44.33.05.57.33.57.66v2.33h2.81v-2.32c0-.31.21-.59.52-.67l.15.65-.15-.65c.48-.11.94-.26,1.39-.44.44-.18.86-.4,1.26-.64.26-.19.64-.18.87.07h0l1.65,1.65,1.99-1.99-1.64-1.64c-.23-.22-.28-.57-.1-.85h0c.26-.41.49-.85.67-1.3.18-.44.33-.88.44-1.34.05-.33.33-.57.66-.57h2.33v-2.81h-2.32c-.31,0-.59-.21-.67-.52l.65-.15-.65.15c-.11-.48-.26-.94-.44-1.39-.18-.44-.4-.86-.64-1.26-.19-.26-.18-.64.07-.87h0l1.65-1.65-1.99-1.99-1.64,1.64c-.22.23-.57.28-.85.1h0c-.41-.26-.85-.49-1.3-.67h0Z"/>
      <path class="cls-1" d="m30.23,9.07c1.32,0,2.51.54,3.38,1.4.86.86,1.4,2.06,1.4,3.38s-.54,2.51-1.4,3.38c-.86.86-2.06,1.4-3.38,1.4s-2.51-.54-3.38-1.4c-.86-.86-1.4-2.06-1.4-3.38s.54-2.51,1.4-3.38c.86-.86,2.06-1.4,3.38-1.4Zm2.43,2.34c-.62-.62-1.48-1-2.43-1s-1.81.39-2.43,1-1,1.48-1,2.43.39,1.81,1,2.43,1.48,1,2.43,1,1.81-.39,2.43-1,1-1.48,1-2.43-.39-1.81-1-2.43Z"/>
      <path class="cls-1" d="m13.97,26.82c.24.08.48.16.71.25.23.1.46.2.69.33l1.23-1.23h0c.26-.26.69-.26.95,0h0l2.2,2.2h0c.26.26.26.69,0,.95h0l-1.23,1.23c.12.23.23.45.33.69.09.23.18.47.25.71h1.74c.37,0,.67.3.67.67v3.12c0,.37-.3.67-.67.67h-1.74c-.08.24-.16.48-.25.71-.1.23-.2.46-.33.69l1.23,1.23h0c.26.26.26.69,0,.95h0l-2.2,2.2h0c-.26.26-.69.26-.95,0h0l-1.23-1.23c-.23.12-.45.23-.69.33-.23.09-.47.18-.71.25v1.74c0,.37-.3.67-.67.67h-3.12c-.37,0-.67-.3-.67-.67v-1.74c-.24-.08-.48-.16-.71-.25-.23-.1-.46-.2-.69-.33l-1.23,1.23h0c-.26.26-.69.26-.95,0h0l-2.2-2.2h0c-.26-.26-.26-.69,0-.95h0l1.23-1.23c-.12-.23-.23-.45-.33-.69-.09-.23-.18-.47-.25-.71h-1.74c-.37,0-.67-.3-.67-.67v-3.12c0-.37.3-.67.67-.67h1.74c.08-.24.16-.48.25-.71.1-.23.2-.46.33-.69l-1.23-1.23h0c-.26-.26-.26-.69,0-.95h0l2.2-2.2h0c.26-.26.69-.26.95,0h0l1.23,1.23c.23-.12.45-.23.69-.33.23-.09.47-.18.71-.25v-1.74c0-.37.3-.67.67-.67h3.12c.37,0,.67.3.67.67v1.74Zm.2,1.49c-.31-.13-.64-.23-.97-.31-.33-.05-.57-.33-.57-.66v-1.58h-1.78v1.57c0,.31-.21.59-.52.67l-.15-.65.15.65c-.34.08-.69.18-1.01.33-.32.13-.62.28-.91.47-.26.19-.64.18-.87-.07h0l-1.12-1.12-1.26,1.26,1.11,1.11c.23.22.28.57.1.85h0c-.18.3-.35.62-.49.95-.13.31-.23.64-.31.97-.05.33-.33.57-.66.57h-1.58v1.78h1.57c.31,0,.59.21.67.52l-.65.15.65-.15c.08.34.18.69.33,1.01.13.32.28.62.47.91.19.26.18.64-.07.87h0l-1.12,1.12,1.26,1.26,1.11-1.11c.22-.23.57-.28.85-.1h0c.3.18.62.35.95.49.31.13.64.23.97.31.33.05.57.33.57.66v1.58h1.78v-1.57c0-.31.21-.59.52-.67l.15.65-.15-.65c.34-.08.69-.18,1.01-.33.32-.13.62-.28.91-.47.26-.19.64-.18.87.07h0l1.12,1.12,1.26-1.26-1.11-1.11c-.23-.22-.28-.57-.1-.84h0c.18-.3.35-.62.49-.95.13-.31.23-.64.31-.97.05-.33.33-.57.66-.57h1.58v-1.78h-1.57c-.31,0-.59-.21-.67-.52l.65-.15-.65.15c-.08-.34-.18-.69-.33-1.01-.13-.32-.28-.62-.47-.91-.19-.26-.18-.64.07-.87h0l1.12-1.12-1.26-1.26-1.11,1.11c-.22.23-.57.28-.84.1h0c-.3-.18-.62-.35-.95-.49Z"/>
      <path class="cls-1" d="m11.74,30.42c1.04,0,1.98.42,2.65,1.1.68.68,1.1,1.62,1.1,2.65s-.42,1.98-1.1,2.65-1.62,1.1-2.65,1.1-1.98-.42-2.65-1.1-1.1-1.62-1.1-2.65.42-1.98,1.1-2.65,1.62-1.1,2.65-1.1Zm1.71,2.04c-.44-.44-1.04-.7-1.71-.7s-1.27.27-1.71.7-.7,1.04-.7,1.71.27,1.27.7,1.71,1.04.7,1.71.7,1.27-.27,1.71-.7.7-1.04.7-1.71-.27-1.27-.7-1.71Z"/>
    </g>
  </g>
</svg>