<?xml version="1.0" encoding="UTF-8"?>
<svg id="Livello_1" data-name="Livello 1" xmlns="http://www.w3.org/2000/svg" viewBox="0 0 45 45">
  <defs>
    <style>
      .cls-1 {
        fill: #89ba17;
      }
    </style>
  </defs>
  <path class="cls-1" d="m32.58,38.43h-8.82c-2.11,0-5.06-.58-7.42-2.13v1.13c0,.55-.45,1-1,1H7.2c-.55,0-1-.45-1-1v-16.29c0-.55.45-1,1-1h7.45l3.43-3.96c1.11-1.62,1.69-3.47,1.69-5.36,0-2.31,1.95-4.26,4.26-4.26s4.53,1.99,4.53,4.26v7.96h6.06c1.41,0,2.66.54,3.42,1.47.66.81.91,1.87.68,2.99l-2.03,11.65c-.34,2.05-2.07,3.54-4.11,3.54Zm-16.24-4.67c1.94,1.84,5.08,2.67,7.42,2.67h8.82c1.06,0,1.95-.79,2.14-1.88l2.04-11.68c.11-.56.02-1-.26-1.35-.38-.46-1.08-.74-1.87-.74h-7.06c-.55,0-1-.45-1-1v-8.96c0-1.14-1.25-2.26-2.53-2.26-1.2,0-2.26,1.06-2.26,2.26,0,2.32-.72,4.58-2.08,6.54-.02.03-.04.06-.07.09l-3.29,3.79v12.52Zm-8.15,2.67h6.15v-14.29h-6.15v14.29Z"/>
</svg>