<?xml version="1.0" encoding="UTF-8"?>
<svg id="Livello_1" data-name="Livello 1" xmlns="http://www.w3.org/2000/svg" viewBox="0 0 45 45">
  <defs>
    <style>
      .cls-1 {
        fill: #fff;
      }
    </style>
  </defs>
  <path class="cls-1" d="m39.54,18.85h-2.64c-.31,0-.56.25-.56.56v3.93h-2.37l-3.52-4.27c-.11-.13-.26-.2-.43-.2h-5.63v-2.94c0-.31-.25-.56-.56-.56h-5.11v-2h5.15c.31,0,.56-.25.56-.56s-.25-.56-.56-.56h-11.41c-.31,0-.56.25-.56.56s.25.56.56.56h5.15v2h-5.15c-.31,0-.56.25-.56.56v2.94h-2.94c-.31,0-.56.25-.56.56v4.1h-2.38v-3.34c0-.31-.25-.56-.56-.56s-.56.25-.56.56v7.8c0,.31.25.56.56.56s.56-.25.56-.56v-3.34h2.38v4.69c0,.31.25.56.56.56h3.29l1.96,2.64c.11.14.27.23.45.23h19.06c.31,0,.56-.25.56-.56v-5.18h2.07v3.87c0,.31.25.56.56.56h2.64c.31,0,.56-.25.56-.56v-11.48c0-.31-.25-.56-.56-.56Zm-5.83,7.05c-.31,0-.56.25-.56.56v5.18H14.93l-1.96-2.64c-.11-.14-.27-.23-.45-.23h-3.01v-8.79h2.94c.31,0,.56-.25.56-.56v-2.94h10.25v2.94c0,.31.25.56.56.56h5.93l3.52,4.27c.11.13.26.2.43.2h2.63v1.45h-2.63Zm5.27,4.43h-1.52v-10.36h1.52v10.36Z"/>
</svg>