<?xml version="1.0" encoding="UTF-8"?>
<svg id="Livello_1" data-name="Livello 1" xmlns="http://www.w3.org/2000/svg" viewBox="0 0 45 45">
  <defs>
    <style>
      .cls-1 {
        fill: #89ba17;
      }
    </style>
  </defs>
  <path class="cls-1" d="m6.02,37.65l.45-.08h0l-.45.11c.01.07.04.14.07.21l.03.06c.03.05.06.1.1.15l.04.05s.08.08.12.12l.07.06c.07.05.13.07.17.09l.12.05c.11.03.22.05.33.05.1,0,.19-.01.3-.05l9.12-3.56c.38-.15.65-.51.68-.92l.31-4.14,15-21.56c.16-.23.23-.52.18-.8-.05-.28-.21-.53-.44-.69l-4.78-3.32c-.48-.33-1.15-.21-1.49.27l-15,21.57-3.66,1.74c-.35.17-.58.51-.61.89l-.67,9.47v.02c0,.07,0,.14.02.2Zm7.23-11.9L27.08,5.86l3.02,2.1-13.84,19.89-3.02-2.1Zm-1.79,7.33c.34-.48.22-1.15-.26-1.49-.18-.13-.4-.2-.61-.2-.06,0-.12,0-.19.02-.28.05-.53.21-.69.44l-1.3,1.84.35-4.96,2.98-1.42,3.59,2.5-.25,3.36-5.09,1.99,1.46-2.08Z"/>
  <path class="cls-1" d="m41.19,39.56H3.82c-.59,0-1.07.48-1.07,1.07s.48,1.07,1.07,1.07h37.37c.59,0,1.07-.48,1.07-1.07s-.48-1.07-1.07-1.07Z"/>
  <path class="cls-1" d="m31.98,32.7v.08c.19.89.09,1.48,0,1.78-.02-.03-.05-.06-.08-.09-.28-.36-.51-.93-.63-1.55v-.05c-.49-2.25-1.86-3.68-3.26-3.39-1.26.26-1.97,1.77-1.76,3.77,0,.09,0,.18.02.26.29,1.45,0,2.45-.19,2.7-.08-.05-.23-.17-.4-.38-.36-.48-.66-1.2-.83-1.96v-.04c-.26-1.24-.75-2.34-1.39-3.09-.71-.83-1.55-1.19-2.37-1.02-1.62.33-2.41,2.54-1.86,5.25.12.58.68.96,1.26.84.28-.06.52-.22.68-.46.16-.24.21-.52.16-.8-.29-1.45,0-2.47.2-2.71.27.14.92.94,1.22,2.34v.05c.24,1.12.68,2.15,1.24,2.9.62.82,1.36,1.25,2.13,1.25.13,0,.26-.01.4-.04,1.46-.3,2.27-2.18,1.97-4.59,0-.08,0-.16-.02-.23-.18-.89-.08-1.48.02-1.79.21.24.53.74.71,1.62v.04c.2.91.56,1.75,1.03,2.36.64.84,1.44,1.21,2.24,1.05,1.22-.25,1.91-1.67,1.78-3.54.14.34.31.65.5.91.51.67,1.22.98,1.87.85,1.17-.24,1.77-1.7,1.41-3.47-.06-.28-.22-.52-.46-.68-.24-.16-.52-.21-.8-.16-.4.08-.71.38-.81.75-.45-1.5-1.45-2.38-2.53-2.15-1.15.24-1.74,1.65-1.42,3.37Z"/>
</svg>