<?xml version="1.0" encoding="UTF-8"?>
<svg id="Livello_1" data-name="Livello 1" xmlns="http://www.w3.org/2000/svg" viewBox="0 0 45 45">
  <defs>
    <style>
      .cls-1 {
        fill: #fff;
      }
    </style>
  </defs>
  <path class="cls-1" d="m34.25,16.28c0-.72-.29-1.43-.8-1.94h0s-2.39-2.39-2.39-2.39c-.14-.13-.32-.21-.52-.21h-.01c-.2,0-.39.08-.53.23-.28.29-.28.75,0,1.04l2.39,2.39c.24.24.37.55.37.88v10.91c0,.41-.34.75-.75.75s-.75-.34-.75-.75v-4.74c0-1.59-1.2-2.94-2.78-3.14l-.22-.03v-7.79c0-1.52-1.23-2.75-2.75-2.75h-11c-1.52,0-2.75,1.23-2.75,2.75v19.41l-.12.07c-.54.31-.88.89-.88,1.51v2c0,.96.79,1.75,1.75,1.75h15c.96,0,1.75-.79,1.75-1.75v-2c0-.62-.33-1.2-.88-1.51l-.12-.07v-10.15l.32.1c.7.22,1.17.86,1.18,1.59v4.74c0,1.24,1.01,2.25,2.25,2.25s2.25-1.01,2.25-2.25v-10.91Zm-6.5,18.47h-15.5v-2.5h.25c.41,0,.75-.34.75-.75V11.5c0-.69.56-1.25,1.25-1.25h11c.69,0,1.25.56,1.25,1.25v20c0,.41.34.75.75.75h.25v2.5Z"/>
  <path class="cls-1" d="m24.5,12.75h-9c-.41,0-.75.34-.75.75v4c0,.41.34.75.75.75h9c.41,0,.75-.34.75-.75v-4c0-.41-.34-.75-.75-.75Zm-.75,1.5v2.5h-7.5v-2.5h7.5Z"/>
</svg>