<?xml version="1.0" encoding="UTF-8"?>
<svg id="Livello_1" data-name="Livello 1" xmlns="http://www.w3.org/2000/svg" viewBox="0 0 45 45">
  <defs>
    <style>
      .cls-1 {
        fill: #89ba17;
      }
    </style>
  </defs>
  <g id="Layer_11" data-name="Layer 11">
    <path class="cls-1" d="m22.5,6.35c-8.94,0-16.2,7.25-16.2,16.2.89,21.48,31.5,21.48,32.39,0,0-8.94-7.25-16.2-16.2-16.2Zm0,31.27c-8.33,0-15.08-6.75-15.08-15.08.83-20,29.33-20,30.16,0,0,8.33-6.75,15.08-15.08,15.08h0Z"/>
    <path class="cls-1" d="m35.85,22.93c.2-7.37-5.61-13.51-12.98-13.72-7.37-.2-13.51,5.61-13.72,12.98-.19,6.77,4.73,12.61,11.43,13.59h0c1.26.18,2.55.18,3.81,0h0c6.43-.94,11.25-6.35,11.45-12.84Zm-13.35-12.63c5.87,0,10.91,4.18,12.02,9.95h-5.66c-.14-1.02-1.02-1.78-2.05-1.79h-8.62c-1.03,0-1.91.76-2.05,1.79h-5.66c1.11-5.77,6.15-9.94,12.02-9.95Zm-5.15,9.78c.16-.31.49-.51.84-.51h8.62c.53,0,.96.44.95.98,0,.18-.06.36-.16.51l-4.31,6.5h0c-.32.44-.94.54-1.38.22-.08-.06-.16-.13-.22-.22l-4.31-6.51c-.2-.29-.22-.67-.04-.98Zm-7.04,3.45c5.22.34,9.4,5.08,9.71,10.99-5.31-1.12-9.25-5.59-9.71-10.99Zm10.84,11.17c-.23-6.63-4.97-11.98-10.88-12.29,0-.35,0-.7.06-1.04h5.97c.04.11.1.22.17.32l4.31,6.5c.63.96,1.92,1.22,2.88.58.23-.15.43-.35.58-.58l4.31-6.51c.07-.1.12-.21.17-.32h5.97c.03.34.05.69.06,1.04-5.91.32-10.65,5.67-10.88,12.29-.9.11-1.81.11-2.71.02Zm3.85-.18c.3-5.91,4.47-10.65,9.71-10.99-.46,5.4-4.4,9.87-9.71,10.99Z"/>
  </g>
</svg>