<?xml version="1.0" encoding="UTF-8"?>
<svg id="Livello_1" data-name="Livello 1" xmlns="http://www.w3.org/2000/svg" viewBox="0 0 174 34.08">
  <defs>
    <style>
      .cls-1 {
        fill: #fff;
      }

      .cls-2 {
        fill: #7fa517;
      }

      .cls-3 {
        fill: #89ba17;
      }
    </style>
  </defs>
  <polygon class="cls-3" points="139.92 34.08 0 34.08 0 0 151.67 0 139.92 34.08"/>
  <polygon class="cls-2" points="154.02 34.08 144.62 34.08 156.37 0 165.77 0 154.02 34.08"/>
  <polygon class="cls-2" points="162.25 34.08 157.55 34.08 169.3 0 174 0 162.25 34.08"/>
  <g>
    <path class="cls-1" d="m30.13,23.45h-3.69l1.62-7.6h-5.68l-1.61,7.6h-3.68l3.72-17.62h3.69l-1.46,6.91h5.68l1.46-6.91h3.67l-3.72,17.62Z"/>
    <path class="cls-1" d="m40.14,23.69c-1.69,0-3-.45-3.93-1.36-.93-.91-1.4-2.19-1.4-3.84s.33-3.18.99-4.55c.66-1.37,1.56-2.41,2.69-3.13,1.13-.72,2.41-1.08,3.84-1.08s2.53.33,3.33.98c.8.66,1.19,1.55,1.19,2.69,0,1.5-.67,2.66-2.01,3.48s-3.26,1.22-5.75,1.22h-.61l-.02.25v.24c0,.73.21,1.31.62,1.73.41.42,1.01.63,1.78.63.7,0,1.33-.08,1.9-.23.57-.15,1.26-.42,2.07-.81v2.74c-1.38.69-2.95,1.04-4.7,1.04Zm1.98-11.35c-.71,0-1.37.32-2,.96-.63.64-1.04,1.43-1.23,2.35h.54c1.25,0,2.21-.2,2.91-.58.69-.39,1.04-.92,1.04-1.58,0-.76-.42-1.15-1.27-1.15Z"/>
    <path class="cls-1" d="m51.56,23.45h-3.63l3.98-18.75h3.63l-3.98,18.75Z"/>
    <path class="cls-1" d="m64.61,9.73c1.17,0,2.1.43,2.78,1.29.68.86,1.02,2.07,1.02,3.62s-.28,3.01-.83,4.43c-.55,1.42-1.3,2.54-2.26,3.37-.96.83-2.01,1.25-3.16,1.25-.67,0-1.24-.15-1.72-.45-.48-.3-.93-.8-1.34-1.52h-.1c-.1,1.28-.27,2.46-.52,3.55l-.87,4.1h-3.63l4.12-19.4h2.77l-.21,2.05h.11c1.11-1.53,2.38-2.3,3.82-2.3Zm-1.46,2.94c-.55,0-1.07.27-1.58.81-.51.54-.92,1.27-1.23,2.17-.31.9-.46,1.9-.46,3,0,.64.15,1.16.45,1.54s.71.58,1.23.58,1.05-.28,1.54-.83c.49-.55.89-1.32,1.19-2.28.3-.97.45-1.92.45-2.86,0-1.41-.53-2.12-1.58-2.12Z"/>
    <path class="cls-1" d="m80.8,23.69c-1.18,0-2.11-.43-2.79-1.29s-1.02-2.06-1.02-3.62.29-3.08.86-4.51c.57-1.43,1.33-2.55,2.27-3.35.94-.8,1.98-1.2,3.11-1.2.66,0,1.23.15,1.71.45.48.3.93.81,1.36,1.53h.1l.02-.34c.05-.88.15-1.67.3-2.35l.92-4.31h3.63l-3.98,18.75h-2.76l.17-1.75h-.05c-.57.7-1.17,1.21-1.79,1.52-.62.31-1.31.47-2.05.47Zm1.52-2.93c.53,0,1.05-.28,1.55-.83.5-.55.91-1.28,1.21-2.2.31-.92.46-1.9.46-2.95,0-.64-.15-1.16-.45-1.54-.3-.39-.71-.58-1.23-.58s-1.07.29-1.56.87-.89,1.34-1.18,2.29c-.29.95-.44,1.89-.44,2.82,0,1.41.55,2.12,1.65,2.12Z"/>
    <path class="cls-1" d="m96.99,23.69c-1.69,0-3-.45-3.93-1.36-.93-.91-1.4-2.19-1.4-3.84s.33-3.18.99-4.55c.66-1.37,1.56-2.41,2.69-3.13,1.13-.72,2.41-1.08,3.84-1.08s2.53.33,3.33.98c.8.66,1.19,1.55,1.19,2.69,0,1.5-.67,2.66-2.01,3.48s-3.26,1.22-5.75,1.22h-.61l-.02.25v.24c0,.73.21,1.31.62,1.73.41.42,1.01.63,1.78.63.7,0,1.33-.08,1.9-.23.57-.15,1.26-.42,2.07-.81v2.74c-1.38.69-2.95,1.04-4.7,1.04Zm1.98-11.35c-.71,0-1.37.32-2,.96-.63.64-1.04,1.43-1.23,2.35h.54c1.25,0,2.21-.2,2.91-.58.69-.39,1.04-.92,1.04-1.58,0-.76-.42-1.15-1.27-1.15Z"/>
    <path class="cls-1" d="m114.31,19c0,1.51-.5,2.67-1.5,3.48s-2.39,1.21-4.17,1.21c-.86,0-1.61-.06-2.25-.18s-1.24-.32-1.79-.6v-2.99c1.26.72,2.54,1.08,3.84,1.08.64,0,1.17-.13,1.58-.39.41-.26.61-.62.61-1.07,0-.34-.15-.65-.45-.93-.3-.27-.82-.62-1.58-1.04-.97-.55-1.65-1.09-2.04-1.63-.38-.54-.58-1.18-.58-1.92,0-1.37.44-2.42,1.33-3.18.89-.75,2.15-1.13,3.8-1.13s3.07.38,4.37,1.14l-1.19,2.59c-1.12-.67-2.16-1.01-3.11-1.01-.46,0-.83.1-1.11.31-.28.21-.42.48-.42.83,0,.31.13.59.39.83.26.24.74.54,1.45.9.99.51,1.7,1.06,2.15,1.65.44.59.66,1.28.66,2.05Z"/>
    <path class="cls-1" d="m127.09,9.98h4.15l-6,6.07,3.43,7.4h-4.05l-2.21-5.06-1.45.87-.89,4.19h-3.63l3.98-18.75h3.63l-1.78,8.36c-.06.33-.18.8-.35,1.41l-.34,1.23h.05l5.46-5.72Z"/>
  </g>
</svg>