<?xml version="1.0" encoding="UTF-8"?>
<svg id="Livello_1" data-name="Livello 1" xmlns="http://www.w3.org/2000/svg" viewBox="0 0 45 45">
  <defs>
    <style>
      .cls-1 {
        fill: #fff;
      }
    </style>
  </defs>
  <path class="cls-1" d="m36.05,19.23l-.7-.7v-5.65c0-2.26-1.84-4.09-4.09-4.09-.93,0-1.79.31-2.47.83-3.03-1.49-6.8-.97-9.32,1.54-2.69,2.7-3.09,6.83-1.2,9.95l-3.07,3.07h-1.3c-.3,0-.54.24-.54.54v.98h-.98c-.3,0-.54.24-.54.54v.98h-.98c-.3,0-.54.24-.54.54v.98h-.98c-.14,0-.28.06-.38.16l-.03.03c-.1.1-.16.24-.16.38v3.48c0,.3.24.54.54.54h3.54c.14,0,.28-.06.38-.16l5.91-5.91c.21-.21.21-.55,0-.76-.21-.21-.55-.21-.76,0l-5.75,5.75h-2.78v-2.44h1.01c.3,0,.54-.24.54-.54v-.98h.98c.3,0,.54-.24.54-.54v-.98h.98c.3,0,.54-.24.54-.54v-.98h.98c.14,0,.28-.06.38-.16l3.09-3.09c.18.22.37.43.57.63,1.45,1.45,3.35,2.28,5.39,2.37v8.95c0,1.24,1.01,2.25,2.25,2.25h6.86c1.24,0,2.25-1.01,2.25-2.25v-14.35c0-.14-.06-.28-.16-.38Zm-4.79-9.37c1.67,0,3.02,1.36,3.02,3.02v4.58l-.96-.96s0,0-.01-.01c-.1-1.93-.89-3.84-2.36-5.32-.35-.35-.73-.66-1.13-.94.43-.23.92-.37,1.44-.37Zm-3.02,4.54v-1.18c.14.06.27.15.39.26.25.25.38.57.38.92s-.14.67-.38.92c-.51.51-1.33.51-1.84,0-.51-.51-.51-1.33,0-1.84.11-.11.24-.2.38-.26v1.18c0,.3.24.54.54.54s.54-.24.54-.54Zm-3.03,9.54c-1.8,0-3.61-.69-4.98-2.06-2.75-2.75-2.75-7.21,0-9.96,1.33-1.33,3.1-2.06,4.98-2.06.97,0,1.91.2,2.78.57-.36.48-.62,1.04-.74,1.65-.45.09-.87.3-1.22.65-.92.92-.92,2.43,0,3.35.46.46,1.07.69,1.68.69s1.21-.23,1.68-.69c.45-.45.69-1.04.69-1.68s-.25-1.23-.69-1.68c-.3-.3-.66-.5-1.05-.61.12-.44.33-.84.61-1.18.44.28.86.61,1.23.99,1.33,1.33,2.06,3.1,2.06,4.98s-.73,3.65-2.06,4.98c-1.37,1.37-3.18,2.06-4.98,2.06Zm9.93,10.02c0,.65-.53,1.18-1.18,1.18h-6.86c-.65,0-1.18-.53-1.18-1.18v-8.98c1.9-.17,3.66-.98,5.02-2.34,1.32-1.32,2.09-2.98,2.31-4.7l1.89,1.89v14.13Z"/>
</svg>