<?xml version="1.0" encoding="UTF-8"?>
<svg id="Livello_1" data-name="Livello 1" xmlns="http://www.w3.org/2000/svg" xmlns:xlink="http://www.w3.org/1999/xlink" viewBox="0 0 45 45">
  <defs>
    <style>
      .cls-1 {
        fill: #fff;
      }

      .cls-2 {
        clip-path: url(#clippath-1);
      }

      .cls-3 {
        clip-path: url(#clippath);
      }

      .cls-4 {
        fill: none;
      }
    </style>
    <clipPath id="clippath">
      <rect class="cls-4" x="24.89" y="19.71" width="5.59" height="5.59"/>
    </clipPath>
    <clipPath id="clippath-1">
      <rect class="cls-4" x="35.25" y="19.71" width="5.59" height="5.59"/>
    </clipPath>
  </defs>
  <g>
    <path class="cls-1" d="m11.4,26.94H2.52v-8.88h8.88v8.88Zm-7.99-.89h7.1v-7.1H3.41v7.1Z"/>
    <path class="cls-1" d="m8.47,22.5c0,.76-.12,1.31-.37,1.68-.25.36-.63.54-1.14.54s-.88-.19-1.13-.56-.38-.93-.38-1.66.12-1.33.37-1.69c.25-.36.63-.54,1.14-.54s.88.19,1.13.57c.25.38.38.93.38,1.66Zm-2.12,0c0,.53.05.91.14,1.14.09.23.25.34.46.34s.37-.12.46-.35.14-.61.14-1.14-.05-.91-.14-1.14c-.1-.23-.25-.35-.46-.35s-.37.12-.46.35c-.09.23-.14.61-.14,1.14Z"/>
  </g>
  <g>
    <path class="cls-1" d="m21.76,26.94h-8.88v-8.88h8.88v8.88Zm-7.99-.89h7.1v-7.1h-7.1v7.1Z"/>
    <path class="cls-1" d="m18.84,24.69h-3.02v-.64l1.09-1.1c.32-.33.53-.56.63-.68.1-.13.17-.24.21-.35s.07-.22.07-.34c0-.17-.05-.3-.14-.39s-.22-.13-.38-.13c-.17,0-.33.04-.49.12-.16.08-.32.19-.49.33l-.5-.59c.21-.18.39-.31.53-.38.14-.07.29-.13.46-.17s.35-.06.56-.06c.27,0,.51.05.72.15.21.1.37.24.48.41.11.18.17.38.17.61,0,.2-.03.39-.1.56-.07.17-.18.35-.33.54-.15.18-.41.44-.78.78l-.56.52v.04h1.88v.77Z"/>
  </g>
  <g>
    <path class="cls-1" d="m32.12,26.94h-8.88v-8.88h8.88v8.88Zm-7.99-.89h7.1v-7.1h-7.1v7.1Z"/>
    <g class="cls-3">
      <path class="cls-1" d="m28.21,21.42h-.91v-2.91s.02-.45.02-.45c-.15.15-.26.25-.32.3l-.5.4-.44-.55,1.39-1.11h.75v4.32Z"/>
      <path class="cls-1" d="m28.98,26.69h-3.02v-.64l1.09-1.1c.32-.33.53-.56.63-.68.1-.13.17-.24.21-.35s.07-.22.07-.34c0-.17-.05-.3-.14-.39s-.22-.13-.38-.13c-.17,0-.33.04-.49.12-.16.08-.32.19-.49.33l-.5-.59c.21-.18.39-.31.53-.38.14-.07.29-.13.46-.17s.35-.06.56-.06c.27,0,.51.05.72.15.21.1.37.24.48.41.11.18.17.38.17.61,0,.2-.03.39-.1.56-.07.17-.18.35-.33.54-.15.18-.41.44-.78.78l-.56.52v.04h1.88v.77Z"/>
    </g>
  </g>
  <g>
    <path class="cls-1" d="m42.48,26.94h-8.88v-8.88h8.88v8.88Zm-7.99-.89h7.1v-7.1h-7.1v7.1Z"/>
    <g class="cls-2">
      <path class="cls-1" d="m39.55,18.87c0,.86-.18,1.49-.54,1.92-.36.42-.91.63-1.64.63-.26,0-.45-.01-.59-.04v-.74c.17.04.34.06.52.06.31,0,.56-.05.76-.14s.35-.23.45-.42c.1-.19.17-.46.18-.8h-.04c-.11.19-.25.32-.4.39-.15.08-.34.11-.56.11-.38,0-.68-.12-.89-.36-.22-.24-.33-.58-.33-1.01,0-.47.13-.83.4-1.1.26-.27.62-.41,1.08-.41.32,0,.6.08.84.23.24.15.43.37.55.65.13.29.19.63.19,1.02Zm-1.57-1.17c-.19,0-.34.07-.45.2-.11.13-.16.32-.16.56,0,.21.05.38.15.5s.24.18.44.18c.19,0,.35-.06.48-.18.13-.12.2-.26.2-.42,0-.24-.06-.43-.19-.6s-.28-.24-.47-.24Z"/>
      <path class="cls-1" d="m39.53,24.65c0,.76-.12,1.31-.37,1.68-.25.36-.63.54-1.14.54s-.88-.19-1.13-.56-.38-.93-.38-1.66.12-1.33.37-1.69c.25-.36.63-.54,1.14-.54s.88.19,1.13.57c.25.38.38.93.38,1.66Zm-2.12,0c0,.53.05.91.14,1.14.09.23.25.34.46.34s.37-.12.46-.35.14-.61.14-1.14-.05-.91-.14-1.14c-.1-.23-.25-.35-.46-.35s-.37.12-.46.35c-.09.23-.14.61-.14,1.14Z"/>
    </g>
  </g>
</svg>