<?xml version="1.0" encoding="UTF-8"?>
<svg id="Livello_1" data-name="Livello 1" xmlns="http://www.w3.org/2000/svg" viewBox="0 0 138 34.08">
  <defs>
    <style>
      .cls-1 {
        fill: #fff;
      }

      .cls-2 {
        fill: #7fa517;
      }

      .cls-3 {
        fill: #89ba17;
      }
    </style>
  </defs>
  <polygon class="cls-3" points="103.92 34.08 0 34.08 0 0 115.67 0 103.92 34.08"/>
  <polygon class="cls-2" points="118.02 34.08 108.62 34.08 120.37 0 129.77 0 118.02 34.08"/>
  <polygon class="cls-2" points="126.25 34.08 121.55 34.08 133.3 0 138 0 126.25 34.08"/>
  <g>
    <path class="cls-1" d="m26.55,21.28l6.64-13.17h5.1l-3.72,17.62h-3.37l1.75-8.34c.43-1.98.85-3.76,1.27-5.31h-.06l-6.86,13.65h-3.39l-.74-13.65h-.05c-.09.71-.24,1.63-.46,2.78-.22,1.15-.97,4.77-2.25,10.87h-3.31l3.72-17.62h4.87l.82,13.17h.05Z"/>
    <path class="cls-1" d="m44.58,25.97c-1.69,0-3-.45-3.93-1.36-.93-.91-1.4-2.19-1.4-3.84s.33-3.18.99-4.55c.66-1.37,1.56-2.41,2.69-3.13,1.13-.72,2.41-1.08,3.84-1.08s2.53.33,3.33.98c.8.65,1.19,1.55,1.19,2.69,0,1.5-.67,2.66-2.01,3.48s-3.26,1.22-5.75,1.22h-.61l-.02.25v.24c0,.73.21,1.31.62,1.73.41.42,1.01.63,1.78.63.7,0,1.33-.08,1.9-.23.57-.15,1.26-.42,2.07-.81v2.74c-1.38.69-2.95,1.04-4.7,1.04Zm1.98-11.35c-.71,0-1.37.32-2,.96s-1.04,1.43-1.23,2.35h.54c1.25,0,2.21-.19,2.91-.58.69-.39,1.04-.92,1.04-1.58,0-.76-.42-1.14-1.27-1.14Z"/>
    <path class="cls-1" d="m62.09,12c1.76,0,2.81.92,3.16,2.75h.07c.55-.88,1.19-1.56,1.93-2.04.74-.47,1.54-.71,2.38-.71,1.09,0,1.93.34,2.5,1.02s.86,1.63.86,2.86c0,.61-.09,1.33-.28,2.17l-1.6,7.68h-3.63l1.66-7.87c.13-.55.19-1.02.19-1.43,0-.99-.39-1.48-1.18-1.48-.74,0-1.41.45-2.01,1.35s-1.07,2.18-1.43,3.83l-1.16,5.6h-3.63l1.65-7.87c.13-.55.19-1.02.19-1.43,0-.99-.39-1.48-1.18-1.48-.74,0-1.41.46-2.01,1.37-.6.92-1.08,2.19-1.42,3.83l-1.18,5.58h-3.63l2.86-13.47h2.77l-.25,2.5h.07c1.17-1.83,2.6-2.75,4.28-2.75Z"/>
    <path class="cls-1" d="m87.6,17.34c0,1.69-.28,3.2-.85,4.51-.57,1.31-1.38,2.32-2.45,3.04s-2.34,1.08-3.81,1.08c-1.57,0-2.82-.47-3.75-1.42-.94-.94-1.4-2.2-1.4-3.77,0-1.71.29-3.24.86-4.57.57-1.34,1.4-2.37,2.49-3.11,1.08-.73,2.35-1.1,3.81-1.1,1.57,0,2.82.47,3.74,1.42.92.95,1.37,2.25,1.37,3.92Zm-3.65,0c0-1.58-.57-2.37-1.72-2.37-.6,0-1.14.25-1.62.73-.48.49-.87,1.21-1.17,2.16-.3.95-.45,1.92-.45,2.93,0,1.49.6,2.23,1.81,2.23.6,0,1.15-.25,1.63-.74.48-.49.86-1.18,1.13-2.06.27-.88.4-1.84.4-2.87Z"/>
  </g>
</svg>