<?xml version="1.0" encoding="UTF-8"?>
<svg id="Livello_1" data-name="Livello 1" xmlns="http://www.w3.org/2000/svg" viewBox="0 0 145 34.08">
  <defs>
    <style>
      .cls-1 {
        fill: #fff;
      }

      .cls-2 {
        fill: #7fa517;
      }

      .cls-3 {
        fill: #89ba17;
      }
    </style>
  </defs>
  <polygon class="cls-3" points="110.92 34.08 0 34.08 0 0 122.67 0 110.92 34.08"/>
  <polygon class="cls-2" points="125.02 34.08 115.62 34.08 127.37 0 136.77 0 125.02 34.08"/>
  <polygon class="cls-2" points="133.25 34.08 128.55 34.08 140.3 0 145 0 133.25 34.08"/>
  <g>
    <path class="cls-1" d="m26.55,18.58l6.64-13.17h5.1l-3.72,17.62h-3.37l1.75-8.34c.43-1.98.85-3.76,1.27-5.31h-.06l-6.86,13.65h-3.39l-.74-13.65h-.05c-.09.71-.24,1.63-.46,2.78-.22,1.15-.97,4.77-2.25,10.87h-3.31l3.72-17.62h4.87l.82,13.17h.05Z"/>
    <path class="cls-1" d="m39.4,9.55h3.55l.67,6.24c.11.98.17,2.16.17,3.53h.07c.16-.41.34-.89.53-1.44.19-.55.45-1.17.78-1.85l3.13-6.48h3.94l-8.19,15.4c-1.42,2.67-3.36,4-5.82,4-.72,0-1.31-.08-1.77-.23v-2.89c.55.1,1.01.16,1.4.16.67,0,1.27-.19,1.78-.58.51-.39.98-.98,1.42-1.8l.31-.59-1.98-13.47Z"/>
    <path class="cls-1" d="m68.29,8.24c-1.06,0-2.01.33-2.86.98-.85.65-1.53,1.61-2.04,2.87-.51,1.26-.77,2.62-.77,4.08,0,1.34.28,2.34.83,2.99.55.65,1.43.98,2.63.98s2.53-.31,4.07-.93v3.13c-1.6.62-3.21.93-4.82.93-2.04,0-3.63-.6-4.76-1.8s-1.7-2.9-1.7-5.1.42-4.04,1.25-5.81,1.95-3.12,3.35-4.04c1.4-.92,3-1.38,4.82-1.38,1,0,1.9.09,2.68.27.78.18,1.61.51,2.51.99l-1.42,3.01c-.85-.47-1.55-.79-2.11-.94-.55-.15-1.11-.23-1.65-.23Z"/>
    <path class="cls-1" d="m77.38,23.26c-1.18,0-2.11-.43-2.79-1.28s-1.02-2.05-1.02-3.6.29-3.11.87-4.55,1.34-2.56,2.28-3.35c.94-.79,1.97-1.19,3.1-1.19.78,0,1.45.17,2.02.51.57.34,1.01.83,1.32,1.47h.1l.69-1.72h2.8l-2.87,13.47h-2.76l.17-1.75h-.05c-1.08,1.33-2.36,1.99-3.84,1.99Zm1.42-2.93c.55,0,1.09-.27,1.6-.81.51-.54.93-1.27,1.24-2.19s.47-1.96.47-3.13c0-.57-.15-1.04-.46-1.42-.31-.37-.72-.56-1.22-.56-.55,0-1.07.29-1.56.87-.49.58-.89,1.34-1.18,2.29-.29.95-.44,1.89-.44,2.82,0,.71.13,1.24.4,1.59.27.35.65.53,1.15.53Z"/>
    <path class="cls-1" d="m97.3,9.3c.47,0,.86.04,1.16.13l-.79,3.49c-.36-.13-.76-.19-1.21-.19-.93,0-1.75.37-2.45,1.1s-1.2,1.79-1.5,3.16l-1.28,6.03h-3.63l2.86-13.47h2.77l-.25,2.5h.07c1.18-1.83,2.6-2.75,4.25-2.75Z"/>
  </g>
</svg>