<?xml version="1.0" encoding="UTF-8"?>
<svg id="Livello_1" data-name="Livello 1" xmlns="http://www.w3.org/2000/svg" viewBox="0 0 45 45">
  <defs>
    <style>
      .cls-1 {
        fill: #000;
      }
    </style>
  </defs>
  <path class="cls-1" d="m18.82,36.59c-1.35,0-2.45-1.1-2.45-2.45s1.1-2.45,2.45-2.45,2.45,1.1,2.45,2.45-1.1,2.45-2.45,2.45Zm0-3.68v1.23s0,0,0,0v-1.22Z"/>
  <path class="cls-1" d="m32.31,36.59c-1.35,0-2.45-1.1-2.45-2.45s1.1-2.45,2.45-2.45,2.45,1.1,2.45,2.45-1.1,2.45-2.45,2.45Zm0-3.68v1.23s0,0,0,0v-1.22Z"/>
  <path class="cls-1" d="m19.59,29.24c-1.73,0-3.24-1.24-3.58-2.96l-2.05-10.22s-.02-.07-.02-.11l-1.02-5.09h-3.9c-.68,0-1.23-.55-1.23-1.23s.55-1.23,1.23-1.23h4.9c.58,0,1.09.41,1.2.99l1.03,5.14h19.83c.37,0,.71.16.94.44s.33.65.26,1.01l-1.96,10.28c-.35,1.76-1.84,2.98-3.68,2.97h-11.89s-.05,0-.07,0Zm-2.94-12.26l1.77,8.82c.11.58.62.99,1.2.99h11.99c.61,0,1.11-.41,1.22-.99l1.68-8.82h-17.86Z"/>
</svg>