<?xml version="1.0" encoding="UTF-8"?>
<svg id="Livello_1" data-name="Livello 1" xmlns="http://www.w3.org/2000/svg" viewBox="0 0 45 45">
  <defs>
    <style>
      .cls-1 {
        fill: #89ba17;
      }
    </style>
  </defs>
  <path class="cls-1" d="m36.19,25.97h-3.65c-.16,0-.32.06-.43.18s-.18.27-.18.43v.61h-1.07l-2.72-1.36c-.61-.31-1.29-.47-1.97-.47h-2.36c-1.17,0-2.32.35-3.29,1l-2.16,1.44h-1.49c-.48,0-.96.11-1.39.32-.43.21-.82.52-1.11.9h-3.82c-.57,0-1.11.2-1.54.57-.43.37-.71.88-.79,1.44-.08.56.04,1.13.35,1.6.31.48.77.82,1.31.98l9.1,2.68c.06.02.11.02.17.02h4.26c.05,0,.11,0,.16-.02l6.62-1.8h1.74v.61c0,.16.06.32.18.43s.27.18.43.18h3.65c.16,0,.32-.06.43-.18s.18-.27.18-.43v-8.52c0-.16-.06-.32-.18-.43s-.27-.18-.43-.18Zm-4.26,7.3h-1.83c-.05,0-.11,0-.16.02l-6.62,1.8h-4.09l-9.01-2.65c-.26-.08-.49-.25-.63-.47-.15-.23-.21-.5-.17-.77.04-.27.17-.52.38-.69s.47-.28.74-.28h3.22c-.06.25-.09.5-.09.76,0,.28.11.55.31.75.2.2.47.31.75.31h7.08c.16,0,.32-.06.43-.18s.18-.27.18-.43-.06-.32-.18-.43-.27-.18-.43-.18h-6.92c.04-.5.26-.96.63-1.3.37-.34.85-.53,1.34-.53h1.67c.12,0,.24-.04.34-.1l2.31-1.54c.77-.52,1.69-.79,2.62-.79h2.36c.5,0,.99.12,1.43.34l2.85,1.42c.08.04.18.06.27.06h1.22v4.87Zm3.65,1.22h-2.43v-7.3h2.43v7.3Z"/>
  <path class="cls-1" d="m11.17,13.91c.05,2.83,2.4,5.1,5.23,5.05.63-.01,1.24-.13,1.82-.37l5,4.82c.07.07.17.11.27.1l2.69-.05c.21,0,.37-.17.37-.38l-.04-2.22c0-.1-.04-.19-.11-.26l-.76-.73c-.07-.07-.17-.11-.27-.11l-.92.02-.02-.92c0-.21-.17-.37-.38-.37h-.37s0-.36,0-.36c0-.21-.17-.37-.38-.37h-.81s-.01-.79-.01-.79c0-.1-.04-.19-.11-.26l-1.21-1.17c.21-.59.31-1.2.3-1.83-.05-2.83-2.4-5.1-5.23-5.05-2.83.05-5.1,2.4-5.05,5.23Zm9.53-.17c.01.61-.1,1.21-.34,1.77-.06.14-.02.31.08.41,0,0,0,0,0,0l1.28,1.23.02,1.03c0,.21.17.37.38.37h.81s0,.35,0,.35c0,.21.17.37.38.37h.37s.02.91.02.91c0,.21.17.37.38.37l1.14-.02.54.52.03,1.69h-.53s-4.66-4.48-4.66-4.48c-.13-.13-.35-.13-.48,0s-.13.35,0,.48l4.17,4.03h-.68s-5.07-4.88-5.07-4.88c0,0,0,0,0,0-.11-.1-.27-.13-.41-.07-.55.25-1.14.39-1.75.4-2.42.04-4.42-1.89-4.47-4.31-.04-2.42,1.89-4.42,4.31-4.47,2.42-.04,4.42,1.89,4.47,4.31Z"/>
  <path class="cls-1" d="m13.31,12.31c.01.77.65,1.39,1.43,1.38s1.39-.65,1.38-1.43-.65-1.39-1.43-1.38-1.39.65-1.38,1.43Zm2.06-.04c0,.36-.28.66-.64.67s-.66-.28-.67-.64.28-.66.64-.67.66.28.67.64Z"/>
</svg>