<?xml version="1.0" encoding="UTF-8"?>
<svg id="Livello_1" data-name="Livello 1" xmlns="http://www.w3.org/2000/svg" viewBox="0 0 45 45">
  <defs>
    <style>
      .cls-1 {
        fill: #89ba17;
      }
    </style>
  </defs>
  <path class="cls-1" d="m10.9,43.08h12.37c1.61,0,2.91-1.29,2.91-2.87v-13.12c0-.92-.5-1.77-1.3-2.22-.01,0-.02-.01-.04-.02l-6.99-3.45h0s.06,0,.1,0c2.34,0,4.55-1.07,6.01-2.9,1.46-1.83,2-4.22,1.49-6.5l2.69-1.69,1.75.14c.3.02.59-.13.74-.39l.84-1.45h1.36s0,0,0,0c.28,0,.54-.15.68-.38l.85-1.42,1.27.04c.38.01.72-.25.8-.62l.57-2.63c.08-.39-.13-.78-.51-.91h-.02s-.06-.03-.09-.03l-3.21-.72c-.2-.05-.42,0-.59.1l-9.49,5.94c-2.56-2.3-6.33-2.63-9.24-.81-2.65,1.66-4.03,4.75-3.5,7.83.53,3.08,2.87,5.53,5.92,6.2v.21l-6.95,3.42s-.02.01-.04.02c-.8.45-1.3,1.3-1.3,2.22v13.12c0,1.58,1.31,2.87,2.91,2.87Zm6.16-29.61c-.44,0-.79.35-.79.79v1.69c-.78-.33-1.22-1.16-1.05-1.99.17-.83.89-1.42,1.74-1.43.14,0,.27.02.4.05.7.16,1.24.73,1.36,1.44.12.71-.2,1.42-.81,1.8-.02.01-.04.02-.06.04v-1.6c0-.44-.35-.79-.79-.79ZM33.14,3.55l2.15.48-.27,1.22-1.08-.03c-.29,0-.55.14-.7.38l-.85,1.43h-1.36s0,0,0,0c-.28,0-.54.15-.68.39l-.82,1.41-1.52-.12c-.17-.01-.34.03-.48.12l-2.6,1.63c-.14-.29-.29-.58-.46-.85-.09-.15-.19-.29-.3-.44l8.98-5.63Zm-20.39,13.4c-1.79-2.86-.93-6.64,1.93-8.43,2.21-1.39,5.06-1.22,7.09.42,2.03,1.64,2.8,4.39,1.92,6.84-.89,2.46-3.23,4.08-5.84,4.04v-2.27c1.64-.45,2.68-2.04,2.44-3.72-.24-1.68-1.7-2.91-3.39-2.88-1.7.03-3.1,1.33-3.27,3.01-.17,1.69.94,3.24,2.59,3.62.02,0,.04,0,.06.01v2c-1.46-.41-2.72-1.35-3.52-2.64Zm-3.19,10.14c0-.34.18-.66.48-.83l7.04-3.47,7.04,3.47c.3.17.48.49.48.83v13.12c-.01.72-.61,1.3-1.33,1.29h-12.37c-.72.01-1.32-.56-1.33-1.29v-13.12Z"/>
  <path class="cls-1" d="m17.08,32.11c1.52,0,2.76-1.22,2.76-2.72s-1.24-2.72-2.76-2.72-2.76,1.22-2.76,2.72,1.24,2.72,2.76,2.72Zm0-3.86c.63.02,1.12.55,1.1,1.17-.02.63-.53,1.12-1.16,1.12-.63,0-1.13-.52-1.13-1.14.01-.64.54-1.15,1.19-1.14Z"/>
  <path class="cls-1" d="m11.97,38.2h10.18c.44,0,.79-.35.79-.79s-.35-.79-.79-.79h-10.18c-.44,0-.79.35-.79.79s.35.79.79.79Z"/>
  <path class="cls-1" d="m11.97,34.96h10.18c.44,0,.79-.35.79-.79s-.35-.79-.79-.79h-10.18c-.44,0-.79.35-.79.79s.35.79.79.79Z"/>
</svg>