<?xml version="1.0" encoding="UTF-8"?>
<svg id="Livello_1" data-name="Livello 1" xmlns="http://www.w3.org/2000/svg" viewBox="0 0 148.9 32.13">
  <defs>
    <style>
      .cls-1 {
        fill: #fff;
      }

      .cls-2 {
        fill: #f6f6f6;
      }

      .cls-3 {
        fill: #fdcb00;
      }

      .cls-4 {
        fill: #003caa;
      }

      .cls-5 {
        fill: #1d1d1b;
      }
    </style>
  </defs>
  <path class="cls-1" d="m146.15,0H2.75C1.23,0,0,1.23,0,2.75v26.63c0,1.52,1.23,2.75,2.75,2.75h143.4c1.52,0,2.75-1.23,2.75-2.75V2.75c0-1.52-1.23-2.75-2.75-2.75Z"/>
  <g>
    <path class="cls-5" d="m146.15,0H2.75C1.23,0,0,1.23,0,2.75v26.63c0,1.52,1.23,2.75,2.75,2.75h143.4c1.52,0,2.75-1.23,2.75-2.75V2.75c0-1.52-1.23-2.75-2.75-2.75Zm2.04,29.38c0,1.13-.91,2.04-2.04,2.04H2.75c-1.13,0-2.04-.91-2.04-2.04V2.75C.71,1.62,1.62.71,2.75.71h143.4c1.12,0,2.04.91,2.04,2.04v26.63Z"/>
    <path class="cls-4" d="m15.28.71v30.71H2.75c-1.13,0-2.04-.91-2.04-2.04V2.75C.71,1.62,1.62.71,2.75.71h12.53Z"/>
    <path class="cls-4" d="m133.62,31.42V.71h12.53c1.13,0,2.04.91,2.04,2.04v26.63c0,1.13-.91,2.04-2.04,2.04h-12.53Z"/>
    <g>
      <polygon class="cls-3" points="8 3.45 8.15 3.91 8.63 3.91 8.24 4.2 8.39 4.66 8 4.38 7.6 4.66 7.75 4.2 7.36 3.91 7.84 3.91 8 3.45"/>
      <polygon class="cls-3" points="5.71 4.08 5.87 4.54 6.35 4.55 5.96 4.83 6.11 5.3 5.71 5.01 5.32 5.3 5.47 4.83 5.08 4.55 5.56 4.54 5.71 4.08"/>
      <polygon class="cls-3" points="4.01 5.7 4.16 6.16 4.65 6.17 4.26 6.45 4.41 6.92 4.01 6.63 3.62 6.92 3.77 6.45 3.38 6.17 3.86 6.16 4.01 5.7"/>
      <polygon class="cls-3" points="3.33 8.12 3.48 8.58 3.97 8.58 3.58 8.87 3.72 9.33 3.33 9.05 2.94 9.33 3.08 8.87 2.69 8.58 3.18 8.58 3.33 8.12"/>
      <polygon class="cls-3" points="4.09 10.35 4.25 10.81 4.73 10.81 4.34 11.1 4.49 11.56 4.09 11.28 3.7 11.56 3.85 11.1 3.46 10.81 3.94 10.81 4.09 10.35"/>
      <polygon class="cls-3" points="5.63 11.97 5.78 12.43 6.27 12.43 5.88 12.72 6.03 13.18 5.63 12.9 5.24 13.18 5.39 12.72 5 12.43 5.48 12.43 5.63 11.97"/>
      <polygon class="cls-3" points="8 12.78 8.15 13.24 8.63 13.25 8.24 13.53 8.39 14 8 13.71 7.6 14 7.75 13.53 7.36 13.25 7.84 13.24 8 12.78"/>
      <polygon class="cls-3" points="10.36 11.97 10.51 12.43 11 12.43 10.61 12.72 10.75 13.18 10.36 12.9 9.97 13.18 10.11 12.72 9.72 12.43 10.21 12.43 10.36 11.97"/>
      <polygon class="cls-3" points="11.9 10.35 12.05 10.81 12.54 10.81 12.14 11.1 12.29 11.56 11.9 11.28 11.51 11.56 11.65 11.1 11.26 10.81 11.75 10.81 11.9 10.35"/>
      <polygon class="cls-3" points="12.66 8.12 12.81 8.58 13.3 8.58 12.91 8.87 13.06 9.33 12.66 9.05 12.27 9.33 12.42 8.87 12.03 8.58 12.51 8.58 12.66 8.12"/>
      <polygon class="cls-3" points="11.98 5.7 12.13 6.16 12.62 6.17 12.23 6.45 12.37 6.92 11.98 6.63 11.59 6.92 11.73 6.45 11.34 6.17 11.83 6.16 11.98 5.7"/>
      <polygon class="cls-3" points="10.28 4.08 10.43 4.54 10.92 4.55 10.52 4.83 10.67 5.3 10.28 5.01 9.89 5.3 10.03 4.83 9.64 4.55 10.13 4.54 10.28 4.08"/>
    </g>
    <path class="cls-2" d="m7.59,26.97v-5.58h.74v5.58h-.74Z"/>
    <path class="cls-3" d="m141.22,13.41c-2.59,0-4.69-2.1-4.69-4.69s2.1-4.69,4.69-4.69,4.69,2.1,4.69,4.69-2.1,4.69-4.69,4.69Zm0-8.87c-2.31,0-4.19,1.88-4.19,4.19s1.88,4.19,4.19,4.19,4.19-1.88,4.19-4.19-1.88-4.19-4.19-4.19Z"/>
  </g>
</svg>