<?xml version="1.0" encoding="UTF-8"?>
<svg id="Livello_1" data-name="Livello 1" xmlns="http://www.w3.org/2000/svg" viewBox="0 0 127 34.08">
  <defs>
    <style>
      .cls-1 {
        fill: #fff;
      }

      .cls-2 {
        fill: #7fa517;
      }

      .cls-3 {
        fill: #89ba17;
      }
    </style>
  </defs>
  <polygon class="cls-3" points="92.92 34.08 0 34.08 0 0 104.67 0 92.92 34.08"/>
  <polygon class="cls-2" points="107.02 34.08 97.62 34.08 109.37 0 118.77 0 107.02 34.08"/>
  <polygon class="cls-2" points="115.25 34.08 110.55 34.08 122.3 0 127 0 115.25 34.08"/>
  <g>
    <path class="cls-1" d="m23.33,26.29h-3.68l3.06-14.51h-4.24l.66-3.11h12.17l-.66,3.11h-4.25l-3.06,14.51Z"/>
    <path class="cls-1" d="m42.9,17.91c0,1.7-.28,3.2-.85,4.51s-1.38,2.32-2.45,3.04-2.34,1.08-3.81,1.08c-1.57,0-2.82-.47-3.75-1.42-.94-.94-1.4-2.2-1.4-3.77,0-1.71.29-3.24.86-4.57.57-1.34,1.4-2.37,2.49-3.11,1.08-.74,2.35-1.1,3.81-1.1,1.57,0,2.82.47,3.74,1.42.92.95,1.37,2.25,1.37,3.92Zm-3.65,0c0-1.58-.57-2.37-1.72-2.37-.6,0-1.14.25-1.62.74s-.87,1.21-1.17,2.16c-.3.95-.45,1.92-.45,2.93,0,1.49.6,2.23,1.81,2.23.6,0,1.15-.25,1.63-.74.48-.49.86-1.18,1.13-2.06.27-.88.4-1.84.4-2.87Z"/>
    <path class="cls-1" d="m55.29,26.54c-1.18,0-2.11-.43-2.79-1.29s-1.02-2.06-1.02-3.62.29-3.08.86-4.51c.57-1.43,1.33-2.55,2.27-3.35.94-.8,1.98-1.2,3.11-1.2.66,0,1.23.15,1.71.45.48.3.93.81,1.36,1.53h.1l.02-.34c.05-.88.15-1.67.3-2.35l.92-4.31h3.63l-3.98,18.75h-2.76l.17-1.75h-.05c-.57.7-1.17,1.21-1.79,1.52-.62.31-1.31.47-2.05.47Zm1.52-2.93c.53,0,1.05-.28,1.55-.83.5-.55.91-1.28,1.21-2.2.31-.92.46-1.9.46-2.95,0-.64-.15-1.16-.45-1.54-.3-.39-.71-.58-1.23-.58s-1.07.29-1.56.87-.89,1.34-1.18,2.29c-.29.95-.44,1.89-.44,2.82,0,1.41.55,2.12,1.65,2.12Z"/>
    <path class="cls-1" d="m78.41,17.91c0,1.7-.28,3.2-.85,4.51s-1.38,2.32-2.45,3.04-2.34,1.08-3.81,1.08c-1.57,0-2.82-.47-3.75-1.42-.94-.94-1.4-2.2-1.4-3.77,0-1.71.29-3.24.86-4.57.57-1.34,1.4-2.37,2.49-3.11,1.08-.74,2.35-1.1,3.81-1.1,1.57,0,2.82.47,3.74,1.42.92.95,1.37,2.25,1.37,3.92Zm-3.65,0c0-1.58-.57-2.37-1.72-2.37-.6,0-1.14.25-1.62.74s-.87,1.21-1.17,2.16c-.3.95-.45,1.92-.45,2.93,0,1.49.6,2.23,1.81,2.23.6,0,1.15-.25,1.63-.74.48-.49.86-1.18,1.13-2.06.27-.88.4-1.84.4-2.87Z"/>
  </g>
</svg>