<?xml version="1.0" encoding="utf-8"?>
<!-- Generator: Adobe Illustrator 25.2.1, SVG Export Plug-In . SVG Version: 6.00 Build 0)  -->
<svg version="1.1" id="Exclamation_mark" xmlns="http://www.w3.org/2000/svg" xmlns:xlink="http://www.w3.org/1999/xlink" x="0px"
	 y="0px" viewBox="0 0 300 300" style="enable-background:new 0 0 300 300;" xml:space="preserve">
<style type="text/css">
	.st0{fill:#F50000;}
</style>
<path class="st0" d="M150,235c-15.7,0-28.3,12.7-28.3,28.3c0,15.7,12.7,28.3,28.3,28.3s28.3-12.7,28.3-28.3
	C178.3,247.7,165.7,235,150,235z M150,272.8c-5.2,0-9.4-4.2-9.4-9.4c0-5.2,4.2-9.4,9.4-9.4s9.4,4.2,9.4,9.4
	C159.4,268.6,155.2,272.8,150,272.8z"/>
<path class="st0" d="M131.1,216.1h37.8c5.2,0,9.4-4.2,9.4-9.4l9.4-188.9c0-5.2-4.2-9.4-9.4-9.4h-56.7c-5.2,0-9.4,4.2-9.4,9.4
	l9.4,188.9C121.7,211.9,125.9,216.1,131.1,216.1z M168.9,27.2l-9.4,170h-18.9l-8.5-170H168.9z"/>
</svg>
