<?xml version="1.0" encoding="utf-8"?>
<!-- Generator: Adobe Illustrator 25.2.1, SVG Export Plug-In . SVG Version: 6.00 Build 0)  -->
<svg version="1.1" id="Livello_1" xmlns="http://www.w3.org/2000/svg" xmlns:xlink="http://www.w3.org/1999/xlink" x="0px" y="0px"
	 viewBox="0 0 50 50" style="enable-background:new 0 0 50 50;" xml:space="preserve">
<style type="text/css">
	.st0{fill:#F4F8F9;}
	.st1{fill:#89BA17;}
	.st2{fill:#FFFFFF;}
	.st3{fill:#8D9498;}
	.st4{fill-rule:evenodd;clip-rule:evenodd;fill:#FFFFFF;}
	.st5{fill:none;stroke:#606060;stroke-width:5.000000e-02;stroke-miterlimit:10;}
	.st6{fill:#0099B3;}
	.st7{fill:#00ABAB;}
	.st8{fill:#1D3176;}
	.st9{fill:#86BC25;}
	.st10{fill:none;stroke:#000000;stroke-width:0.15;stroke-miterlimit:10;}
	.st11{fill-rule:evenodd;clip-rule:evenodd;fill:#1D1D1D;}
	.st12{fill:none;stroke:#8D9498;stroke-width:0.15;stroke-miterlimit:10;}
	.st13{fill:#FFFFFF;stroke:#606060;stroke-width:5.000000e-02;stroke-miterlimit:10;}
	.st14{fill:none;stroke:#FFFFFF;stroke-miterlimit:10;}
	.st15{fill-rule:evenodd;clip-rule:evenodd;}
	.st16{fill:#1D1D1B;}
	.st17{fill:#FF0000;}
	.st18{fill:none;}
</style>
<g>
	<path d="M44.8,25.7c-0.3-0.6-0.8-1.1-1.4-1.5c-0.6-0.3-1.3-0.5-2.1-0.5h-4v-3.4c0-1.3-0.5-2.4-1.4-3.3c-0.9-0.9-2-1.4-3.3-1.4H21.1
		v-0.7c0-1.3-0.5-2.4-1.4-3.3c-0.9-0.9-2-1.4-3.3-1.4H9.6c-1.3,0-2.4,0.5-3.3,1.4c-0.9,0.9-1.4,2-1.4,3.3v20.2
		c0,1.3,0.5,2.4,1.4,3.3c0.9,0.9,2,1.4,3.3,1.4h22.9c0.9,0,1.9-0.2,2.9-0.7c1-0.5,1.8-1.1,2.4-1.8l6.2-7.6c0.6-0.8,1-1.7,1-2.5
		C45.1,26.6,45,26.1,44.8,25.7z M7.6,14.9c0-0.6,0.2-1,0.6-1.4c0.4-0.4,0.9-0.6,1.4-0.6h6.7c0.6,0,1,0.2,1.4,0.6
		c0.4,0.4,0.6,0.9,0.6,1.4v1.3c0,0.6,0.2,1,0.6,1.4s0.9,0.6,1.4,0.6h12.1c0.6,0,1,0.2,1.4,0.6c0.4,0.4,0.6,0.9,0.6,1.4v3.4H18.4
		c-1,0-1.9,0.2-2.9,0.7c-1,0.5-1.8,1.1-2.4,1.8l-5.4,6.6L7.6,14.9L7.6,14.9z M42,27.9l-6.2,7.6c-0.4,0.4-0.8,0.8-1.5,1.1
		c-0.6,0.3-1.2,0.5-1.8,0.5H9.6c-0.7,0-1.1-0.2-1.1-0.7c0-0.2,0.1-0.5,0.4-0.8l6.2-7.6c0.4-0.4,0.9-0.8,1.5-1.1
		c0.6-0.3,1.2-0.5,1.8-0.5h22.9c0.7,0,1.1,0.2,1.1,0.7C42.4,27.3,42.3,27.6,42,27.9z"/>
</g>
</svg>
