<?xml version="1.0" encoding="utf-8"?>
<!-- Generator: Adobe Illustrator 27.4.0, SVG Export Plug-In . SVG Version: 6.00 Build 0)  -->
<svg version="1.1" id="Livello_1" xmlns="http://www.w3.org/2000/svg" xmlns:xlink="http://www.w3.org/1999/xlink" x="0px" y="0px"
	 viewBox="0 0 45 45" style="enable-background:new 0 0 45 45;" xml:space="preserve">
<style type="text/css">
	.st0{fill:#FFFFFF;}
</style>
<path class="st0" d="M43.3,17.5l-1.1-1.1V7.8c0-3.5-2.8-6.3-6.3-6.3c-1.4,0-2.7,0.5-3.8,1.3c-4.6-2.3-10.4-1.5-14.3,2.4
	c-4.1,4.1-4.7,10.5-1.8,15.2l-4.7,4.7h-2c-0.5,0-0.8,0.4-0.8,0.8v1.5H7c-0.5,0-0.8,0.4-0.8,0.8v1.5H4.7c-0.5,0-0.8,0.4-0.8,0.8v1.5
	H2.4c-0.2,0-0.4,0.1-0.6,0.2l0,0c-0.2,0.2-0.2,0.4-0.2,0.6v5.3c0,0.5,0.4,0.8,0.8,0.8h5.4c0.2,0,0.4-0.1,0.6-0.2l9.1-9.1
	c0.3-0.3,0.3-0.8,0-1.2c-0.3-0.3-0.8-0.3-1.2,0l-8.8,8.8H3.1v-3.7h1.5c0.5,0,0.8-0.4,0.8-0.8v-1.5H7c0.5,0,0.8-0.4,0.8-0.8V29h1.5
	c0.5,0,0.8-0.4,0.8-0.8v-1.5h1.5c0.2,0,0.4-0.1,0.6-0.2l4.7-4.7c0.3,0.3,0.6,0.7,0.9,1c2.2,2.2,5.1,3.5,8.3,3.6V40
	c0,1.9,1.5,3.4,3.4,3.4h10.5c1.9,0,3.4-1.5,3.4-3.4v-22C43.5,17.8,43.4,17.6,43.3,17.5L43.3,17.5z M35.9,3.1c2.6,0,4.6,2.1,4.6,4.6
	v7l-1.5-1.5c0,0,0,0,0,0c-0.2-3-1.4-5.9-3.6-8.1c-0.5-0.5-1.1-1-1.7-1.4C34.4,3.4,35.1,3.1,35.9,3.1z M31.3,10.1V8.3
	c0.2,0.1,0.4,0.2,0.6,0.4c0.4,0.4,0.6,0.9,0.6,1.4s-0.2,1-0.6,1.4c-0.8,0.8-2,0.8-2.8,0c-0.8-0.8-0.8-2,0-2.8
	c0.2-0.2,0.4-0.3,0.6-0.4v1.8c0,0.5,0.4,0.8,0.8,0.8S31.3,10.6,31.3,10.1L31.3,10.1z M26.7,24.7c-2.8,0-5.5-1.1-7.6-3.2
	c-4.2-4.2-4.2-11,0-15.3c2-2,4.7-3.2,7.6-3.2c1.5,0,2.9,0.3,4.3,0.9c-0.6,0.7-0.9,1.6-1.1,2.5c-0.7,0.1-1.3,0.5-1.9,1
	c-1.4,1.4-1.4,3.7,0,5.1c0.7,0.7,1.6,1.1,2.6,1.1c0.9,0,1.9-0.4,2.6-1.1c0.7-0.7,1.1-1.6,1.1-2.6s-0.4-1.9-1.1-2.6
	c-0.5-0.5-1-0.8-1.6-0.9c0.2-0.7,0.5-1.3,0.9-1.8c0.7,0.4,1.3,0.9,1.9,1.5c2,2,3.2,4.7,3.2,7.6s-1.1,5.6-3.2,7.6
	C32.2,23.7,29.4,24.7,26.7,24.7L26.7,24.7z M41.9,40.1c0,1-0.8,1.8-1.8,1.8H29.5c-1,0-1.8-0.8-1.8-1.8V26.3c2.9-0.3,5.6-1.5,7.7-3.6
	c2-2,3.2-4.6,3.5-7.2l2.9,2.9V40.1z"/>
</svg>
