<?xml version="1.0" encoding="utf-8"?>
<!-- Generator: Adobe Illustrator 26.2.1, SVG Export Plug-In . SVG Version: 6.00 Build 0)  -->
<svg version="1.1" id="Livello_1" xmlns="http://www.w3.org/2000/svg" xmlns:xlink="http://www.w3.org/1999/xlink" x="0px" y="0px"
	 viewBox="0 0 50 50" style="enable-background:new 0 0 50 50;" xml:space="preserve">
<style type="text/css">
	.st0{fill:#89BA17;}
</style>
<g>
	<path d="M25.9,33.6L25.9,33.6h-7.4l1.3-2.8c0.3-0.6,0.9-1,1.7-1h5c0.3-0.8,0.6-1.5,1-2.2c-0.2,0-0.5-0.1-0.7-0.1h-5.2
		c-1.7,0-3.1,0.9-3.7,2.3L16,33.6h-0.8H7.8c-1,0-1.9-0.8-1.9-1.9v-6c0-2.7,2.2-4.9,4.9-4.9h26.9c1.5,0,2.8,0.7,3.7,1.7
		c1.2,0.4,2.3,1,3.3,1.8c-0.4-2.2-1.9-4.1-3.8-5h2.9c0.6,0,1.1-0.5,1.1-1.1s-0.5-1.1-1.1-1.1h-4.4l-2.1-4.8
		c-1.3-2.6-3.8-4.2-6.5-4.2h-13c-2.8,0-5.3,1.7-6.4,4.3l-2,4.7H4.8c-0.6,0-1.1,0.5-1.1,1.1s0.5,1.1,1.1,1.1h2.9
		c-2.4,1.2-4,3.6-4,6.4v6c0,1.3,0.6,2.4,1.5,3.2v2.8c0,2.3,1.8,4.1,4.1,4.1h3c2.3,0,4.1-1.8,4.1-4.1v-1.9h0.4h9.4
		C26,35.1,25.9,34.4,25.9,33.6z M13.3,13.3c0.7-1.7,2.5-2.9,4.4-2.9h13c1.9,0,3.6,1.2,4.5,2.9l2.3,5.3H11L13.3,13.3z M14.1,37.7
		c0,1-0.8,1.9-1.9,1.9h-3c-1,0-1.9-0.8-1.9-1.9v-1.9h0.4h6.4V37.7z"/>
	<path d="M9.3,28.4h4.5c0.6,0,1.1-0.5,1.1-1.1s-0.5-1.1-1.1-1.1H9.3c-0.6,0-1.1,0.5-1.1,1.1S8.6,28.4,9.3,28.4z"/>
	<path class="st0" d="M43.6,29.6c0.8-0.8,0.7-2.3-0.1-3.4c-0.7-0.7-2-0.7-2.9,0.1l-6.6,7.2l-2.3-3.2c-0.3-0.4-0.8-0.5-1.3-0.5
		c-0.5,0-1.1,0.2-1.6,0.6c-0.7,0.8-0.7,2.3,0.1,3.4l4,4.3c0.7,0.7,2.2,0.7,2.9,0L43.6,29.6z"/>
</g>
</svg>
