<?xml version="1.0" encoding="utf-8"?>
<!-- Generator: Adobe Illustrator 25.2.1, SVG Export Plug-In . SVG Version: 6.00 Build 0)  -->
<svg version="1.1" id="Livello_1" xmlns="http://www.w3.org/2000/svg" xmlns:xlink="http://www.w3.org/1999/xlink" x="0px" y="0px"
	 viewBox="0 0 50 50" style="enable-background:new 0 0 50 50;" xml:space="preserve">
<style type="text/css">
	.st0{fill:#F4F8F9;}
	.st1{fill:#89BA17;}
	.st2{fill:#FFFFFF;}
	.st3{fill:#8D9498;}
	.st4{fill-rule:evenodd;clip-rule:evenodd;fill:#FFFFFF;}
	.st5{fill:none;stroke:#606060;stroke-width:5.000000e-02;stroke-miterlimit:10;}
	.st6{fill:#0099B3;}
	.st7{fill:#00ABAB;}
	.st8{fill:#1D3176;}
	.st9{fill:#86BC25;}
	.st10{fill:none;stroke:#000000;stroke-width:0.15;stroke-miterlimit:10;}
	.st11{fill-rule:evenodd;clip-rule:evenodd;fill:#1D1D1D;}
	.st12{fill:none;stroke:#8D9498;stroke-width:0.15;stroke-miterlimit:10;}
	.st13{fill:#FFFFFF;stroke:#606060;stroke-width:5.000000e-02;stroke-miterlimit:10;}
	.st14{fill:none;stroke:#FFFFFF;stroke-miterlimit:10;}
	.st15{fill-rule:evenodd;clip-rule:evenodd;}
	.st16{fill:#1D1D1B;}
	.st17{fill:#FF0000;}
	.st18{fill:none;}
</style>
<g>
	<g>
		<path class="st17" d="M18.1,47.3c-0.6,0-1.1-0.1-1.4-0.4c-0.4-0.3-0.6-0.7-0.6-1.2c0-0.5,0.2-1,0.6-1.5l5.4-6.1l-5-5.7
			c-0.5-0.5-0.7-1-0.7-1.5s0.2-0.9,0.6-1.2c0.4-0.3,0.9-0.4,1.4-0.4c0.6,0,1.1,0.1,1.5,0.3c0.4,0.2,0.8,0.5,1.1,0.9L25,35l3.9-4.5
			c0.4-0.4,0.8-0.7,1.1-0.9c0.4-0.2,0.9-0.3,1.5-0.3c0.6,0,1.1,0.2,1.5,0.5s0.6,0.7,0.6,1.2c0,0.5-0.2,1-0.7,1.5l-5,5.6l5.5,6.1
			c0.5,0.5,0.7,1,0.7,1.5c0,0.5-0.2,0.9-0.6,1.2c-0.4,0.3-0.9,0.5-1.5,0.5c-1.1,0-1.9-0.4-2.6-1.2L25,41.2l-4.3,4.9
			c-0.3,0.4-0.7,0.7-1.1,0.9C19.2,47.2,18.7,47.3,18.1,47.3z"/>
	</g>
	<g>
		<g>
			<path d="M42,26.2h-8.9c-0.5,0-1-0.3-1.3-0.8c-0.2-0.4-0.7-0.6-1.1-0.6s-1,0.3-1.1,0.6c-0.2,0.5-0.7,0.8-1.3,0.8H8
				c-1.6,0-2.8-1.2-2.8-2.8v-3.7c0-0.5,0.3-1,0.8-1.3C7.1,17.9,8,16.4,8,14.9c0-1.4-0.8-2.8-2.1-3.6c-0.4-0.3-0.7-0.7-0.7-1.2V6.4
				c0-1.6,1.2-2.8,2.8-2.8h20.3c0.5,0,1,0.3,1.3,0.8C29.7,4.7,30.2,5,30.7,5s1-0.3,1.1-0.6c0.2-0.5,0.7-0.8,1.3-0.8H42
				c1.6,0,2.8,1.2,2.8,2.8v3.7c0,0.5-0.3,1-0.8,1.3c-1.2,0.6-2.1,2.1-2.1,3.6c0,1.4,0.8,2.8,2.1,3.6c0.4,0.3,0.7,0.7,0.7,1.2v3.7
				C44.8,25,43.6,26.2,42,26.2z M33.8,23.4H42v-2.9c-1.8-1.3-2.8-3.4-2.8-5.6c0-2.2,1.1-4.4,2.8-5.6V6.4h-8.2
				c-0.8,0.9-1.9,1.4-3.1,1.4c-1.2,0-2.4-0.5-3.1-1.4H8v2.9c1.8,1.3,2.8,3.4,2.8,5.6c0,2.2-1.1,4.4-2.8,5.6v2.9h19.5
				c0.8-0.9,1.9-1.4,3.1-1.4C31.9,22,33,22.5,33.8,23.4z M43.4,10.1L43.4,10.1L43.4,10.1z"/>
		</g>
		<g>
			<path d="M30.7,14.9c-0.8,0-1.4-0.6-1.4-1.4V9.2c0-0.8,0.6-1.4,1.4-1.4s1.4,0.6,1.4,1.4v4.3C32.1,14.3,31.5,14.9,30.7,14.9z"/>
		</g>
		<g>
			<path d="M30.7,22c-0.8,0-1.4-0.6-1.4-1.4v-4.3c0-0.8,0.6-1.4,1.4-1.4s1.4,0.6,1.4,1.4v4.3C32.1,21.4,31.5,22,30.7,22z"/>
		</g>
		<g>
			<path d="M16.5,20.6c-0.3,0-0.5-0.1-0.8-0.2c-0.7-0.4-0.8-1.3-0.4-2L21,9.9c0.4-0.7,1.3-0.8,2-0.4c0.7,0.4,0.8,1.3,0.4,2l-5.7,8.5
				C17.4,20.3,17,20.6,16.5,20.6z"/>
		</g>
		<g>
			<path d="M15.1,14.9c-0.8,0-1.4-0.6-1.4-1.4V9.2c0-0.8,0.6-1.4,1.4-1.4c0.8,0,1.4,0.6,1.4,1.4v4.3C16.5,14.3,15.9,14.9,15.1,14.9z
				"/>
		</g>
		<g>
			<path d="M23.6,22c-0.8,0-1.4-0.6-1.4-1.4v-4.3c0-0.8,0.6-1.4,1.4-1.4c0.8,0,1.4,0.6,1.4,1.4v4.3C25,21.4,24.4,22,23.6,22z"/>
		</g>
	</g>
</g>
</svg>
