<?xml version="1.0" encoding="utf-8"?>
<!-- Generator: Adobe Illustrator 25.2.1, SVG Export Plug-In . SVG Version: 6.00 Build 0)  -->
<svg version="1.1" id="Livello_1" xmlns="http://www.w3.org/2000/svg" xmlns:xlink="http://www.w3.org/1999/xlink" x="0px" y="0px"
	 viewBox="0 0 50 50" style="enable-background:new 0 0 50 50;" xml:space="preserve">
<style type="text/css">
	.st0{fill:#F4F8F9;}
	.st1{fill:#89BA17;}
	.st2{fill:#FFFFFF;}
	.st3{fill:#8D9498;}
	.st4{fill-rule:evenodd;clip-rule:evenodd;fill:#FFFFFF;}
	.st5{fill:none;stroke:#606060;stroke-width:5.000000e-02;stroke-miterlimit:10;}
	.st6{fill:#0099B3;}
	.st7{fill:#00ABAB;}
	.st8{fill:#1D3176;}
	.st9{fill:#86BC25;}
	.st10{fill:none;stroke:#000000;stroke-width:0.15;stroke-miterlimit:10;}
	.st11{fill-rule:evenodd;clip-rule:evenodd;fill:#1D1D1D;}
	.st12{fill:none;stroke:#8D9498;stroke-width:0.15;stroke-miterlimit:10;}
	.st13{fill:#FFFFFF;stroke:#606060;stroke-width:5.000000e-02;stroke-miterlimit:10;}
	.st14{fill:none;stroke:#FFFFFF;stroke-miterlimit:10;}
	.st15{fill-rule:evenodd;clip-rule:evenodd;}
	.st16{fill:#1D1D1B;}
</style>
<path class="st4" d="M42.9,39.9V10.1c0-0.6-0.5-1.1-1.1-1.1c-0.6,0-1.1,0.5-1.1,1.1v3.3L9.5,19.6c-1.4,0.3-2.4,1.5-2.4,2.9v5.1
	c0,1.4,1,2.6,2.4,2.9l1.4,0.3v5c0,1.4,1,2.6,2.3,2.9l7.5,1.5c0.9,0.2,1.8,0,2.4-0.6c0.7-0.6,1.1-1.4,1.1-2.3v-3.9l16.5,3.3v3.3
	c0,0.6,0.5,1.1,1.1,1.1C42.4,41,42.9,40.5,42.9,39.9z M22.1,35c0,0.8-0.4,1.6-1,2.1c-0.5,0.4-1.1,0.6-1.7,0.6c-0.2,0-0.4,0-0.5-0.1
	l-3.7-0.8c-1.2-0.3-2.1-1.4-2.1-2.6v-3.1l9.1,1.8V35z M40.7,34.6l-29.3-5.9c-1.2-0.2-2.1-1.3-2.1-2.6v-2.2c0-1.3,0.9-2.4,2.1-2.6
	l29.3-5.9V34.6z"/>
</svg>
