<?xml version="1.0" encoding="utf-8"?>
<!-- Generator: Adobe Illustrator 25.2.1, SVG Export Plug-In . SVG Version: 6.00 Build 0)  -->
<svg version="1.1" id="Livello_1" xmlns="http://www.w3.org/2000/svg" xmlns:xlink="http://www.w3.org/1999/xlink" x="0px" y="0px"
	 viewBox="0 0 779.8 100" style="enable-background:new 0 0 779.8 100;" xml:space="preserve">
<style type="text/css">
	.st0{fill:#89BA17;}
</style>
<g>
	<path class="st0" d="M50.7,32.5c-3.3,0-6.4,1.2-9.1,3.6c-2.7,2.4-4.8,5.7-6.3,10c-1.5,4.2-2.3,8.8-2.3,13.8c0,4.1,0.9,7.2,2.6,9.3
		c1.7,2,4.2,3.1,7.5,3.1c2.6,0,5.2-0.3,7.8-1c2.6-0.6,5.7-1.7,9.3-3.2v15c-6.3,2.8-13.1,4.2-20.4,4.2c-8,0-14.2-2.3-18.6-6.9
		c-4.3-4.6-6.5-11.1-6.5-19.5c0-8.2,1.6-15.8,4.7-22.7S26.8,26,32.2,22.5s11.6-5.2,18.5-5.2c8.2,0,15.6,2,22.3,6.1l-6.9,14.2
		c-2.9-1.7-5.5-3-7.9-3.8C55.8,33,53.3,32.5,50.7,32.5z"/>
	<path d="M93.9,87.2c-6.5,0-11.5-1.7-15-5.2s-5.3-8.5-5.3-15s1.2-12.4,3.7-17.6s5.9-9.3,10.4-12.2s9.7-4.4,15.6-4.4
		c6.5,0,11.5,1.7,15,5.2s5.3,8.5,5.3,15s-1.2,12.4-3.7,17.6S114,80,109.5,82.8C105,85.8,99.8,87.2,93.9,87.2z M101.2,46.2
		c-2.5,0-4.7,2.2-6.5,6.5S92,62,92,67.5c0,4.1,1.3,6.2,3.9,6.2c2.5,0,4.7-2.2,6.5-6.5c1.9-4.3,2.8-9.3,2.8-14.9c0-2-0.4-3.6-1.1-4.6
		C103.4,46.9,102.4,46.2,101.2,46.2z"/>
	<path d="M157.4,86.2l6.1-29.3c0.5-2.8,0.7-4.7,0.7-5.6c0-2.9-1.1-4.4-3.3-4.4c-2.1,0-3.9,1.2-5.3,3.5c-1.4,2.3-2.6,5.7-3.6,10.2
		l-5.5,25.6h-18l11.1-52.6h14.3l-0.7,8.7h0.4c1.9-3.5,4-6,6.4-7.4s5.3-2.2,8.9-2.2c3.6,0,6.4,0.8,8.4,2.5s3.3,4,4.2,7.1h0.4
		c2-3.3,4.3-5.7,6.9-7.3c2.6-1.6,5.6-2.3,9.1-2.3c4.4,0,7.7,1.3,9.9,3.9c2.3,2.6,3.4,6.5,3.4,11.6c0,3-0.3,6.2-1,9.5l-5.8,28.5h-18
		l6-29.3c0.4-1.7,0.6-3.8,0.6-6.2c0-1.2-0.3-2.2-0.9-2.8c-0.6-0.6-1.4-1-2.4-1c-2.3,0-4.1,1.2-5.5,3.5c-1.4,2.4-2.6,5.9-3.6,10.5
		l-5.2,25.2L157.4,86.2L157.4,86.2z"/>
	<path d="M244.1,86.2l6.1-29.3c0.5-2.8,0.7-4.7,0.7-5.6c0-2.9-1.1-4.4-3.3-4.4c-2.1,0-3.9,1.2-5.3,3.5c-1.4,2.3-2.6,5.7-3.6,10.2
		l-5.5,25.6h-18l11.1-52.6h14.3l-0.7,8.7h0.4c1.9-3.5,4-6,6.4-7.4s5.3-2.2,8.9-2.2c3.6,0,6.4,0.8,8.4,2.5s3.3,4,4.2,7.1h0.4
		c2-3.3,4.3-5.7,6.9-7.3s5.6-2.3,9.1-2.3c4.4,0,7.7,1.3,9.9,3.9c2.3,2.6,3.4,6.5,3.4,11.6c0,3-0.3,6.2-1,9.5l-5.8,28.5h-18l6-29.3
		c0.4-1.7,0.6-3.8,0.6-6.2c0-1.2-0.3-2.2-0.9-2.8s-1.4-1-2.4-1c-2.3,0-4.1,1.2-5.5,3.5c-1.4,2.4-2.6,5.9-3.6,10.5l-5.2,25.2
		L244.1,86.2L244.1,86.2z"/>
	<path d="M322,68.8c0,1.4,0.3,2.4,1,3c0.7,0.6,1.5,1,2.5,1c1.8,0,3.5-1.2,5-3.6s2.7-5.7,3.6-10l5.4-25.6h18l-11.1,52.6H332l0.6-7.3
		h-0.4c-1.7,2.9-3.7,5-6,6.3c-2.3,1.3-5.1,2-8.5,2c-4.4,0-7.8-1.3-10.2-4c-2.4-2.6-3.7-6.3-3.7-10.9c0-3.3,0.4-6.8,1.2-10.6l5.9-28
		h18l-6,28.6C322.3,64.8,322,67,322,68.8z"/>
	<path d="M395.1,51c0-1.3-0.3-2.3-1-3s-1.5-1-2.5-1c-1.8,0-3.4,1.1-4.9,3.3s-2.7,5.6-3.7,10.3l-5.4,25.7h-18l11.1-52.6H385l-0.6,7.3
		h0.4c1.7-2.9,3.7-5.1,6-6.3c2.3-1.3,5.1-1.9,8.5-1.9c4.4,0,7.8,1.3,10.2,4c2.4,2.6,3.7,6.3,3.7,11c0,3.3-0.4,6.8-1.2,10.6
		l-5.9,27.9h-18l6-28.7C394.8,55.2,395.1,53,395.1,51z"/>
	<path d="M436.8,86.2h-18l11.1-52.5h18L436.8,86.2z M432.1,22.2c0-3.2,0.9-5.6,2.8-7.2c1.8-1.6,4.4-2.5,7.7-2.5c2.8,0,5,0.6,6.5,1.7
		s2.3,2.7,2.3,4.9c0,3.1-0.9,5.5-2.7,7.2c-1.8,1.7-4.4,2.5-7.8,2.5C435,28.7,432.1,26.6,432.1,22.2z"/>
	<path d="M472.1,87.2c-6.2,0-11-1.9-14.4-5.6c-3.5-3.7-5.2-9-5.2-15.9c0-6.2,1.2-11.9,3.6-16.9c2.4-5.1,5.7-9,10-11.8
		s9.2-4.2,14.6-4.2c6,0,11.7,1.2,17,3.7L492,49.9c-4.1-1.9-7.6-2.8-10.4-2.8c-1.9,0-3.7,0.7-5.3,2.2c-1.6,1.5-3,3.7-4,6.7
		c-1.1,3-1.6,5.9-1.6,8.7c0,2.8,0.5,4.9,1.4,6.2c0.9,1.3,2.4,2,4.4,2c2.2,0,4.4-0.4,6.5-1.1s4.3-1.7,6.7-2.9v14.3
		c-2.5,1.4-5.1,2.4-7.8,3.1C479,86.8,475.8,87.2,472.1,87.2z"/>
	<path d="M542.1,86.2h-14.3l0.5-5.7h-0.4c-1.7,2.4-3.6,4.1-5.6,5.1s-4.3,1.5-6.8,1.5c-4.9,0-8.6-1.7-11.1-5.2s-3.8-8.4-3.8-14.9
		c0-5.5,1.1-11.2,3.4-16.9c2.3-5.8,5.1-10.1,8.6-13s7.3-4.4,11.4-4.4c2.6,0,4.9,0.6,6.9,1.7c2,1.2,3.7,3.1,5.3,5.7h0.4l2.5-6.5h14.4
		L542.1,86.2z M522.8,72.8c1.5,0,3-0.9,4.4-2.7c1.4-1.8,2.5-4.2,3.4-7.3c0.8-3,1.3-6,1.3-8.9c0-2-0.3-3.6-0.9-4.9
		c-0.6-1.2-1.6-1.8-2.9-1.8c-2.4,0-4.5,2-6.4,5.9c-1.9,3.9-2.9,8.3-2.9,13.1C518.8,70.5,520.1,72.8,522.8,72.8z"/>
	<path d="M580.6,72.8c2,0,4.9-0.7,8.5-2.2v13.5c-4.2,2.1-9.5,3.1-15.8,3.1c-4.6,0-8.1-1-10.4-2.9s-3.6-5.2-3.6-9.7
		c0-2.4,0.4-5.3,1.1-8.7l3.9-18.7h-7.1l1.9-8.8l10.1-4.1l6.4-11.1h12l-2.3,10.5h13.4l-2.9,13.5h-13.4l-4,17.8
		c-0.5,2.4-0.7,4-0.7,4.9C577.6,71.8,578.6,72.8,580.6,72.8z"/>
	<path d="M616.7,86.2h-18l11.2-52.5h18L616.7,86.2z M612,22.2c0-3.2,0.9-5.6,2.8-7.2c1.8-1.6,4.4-2.5,7.7-2.5c2.8,0,5,0.6,6.5,1.7
		s2.3,2.7,2.3,4.9c0,3.1-0.9,5.5-2.7,7.2c-1.8,1.7-4.4,2.5-7.8,2.5C615,28.7,612,26.6,612,22.2z"/>
	<path d="M652.8,87.2c-6.5,0-11.5-1.7-15-5.2s-5.3-8.5-5.3-15s1.2-12.4,3.7-17.6s5.9-9.3,10.4-12.2s9.7-4.4,15.6-4.4
		c6.5,0,11.5,1.7,15,5.2s5.3,8.5,5.3,15s-1.2,12.4-3.7,17.6s-5.9,9.3-10.4,12.2C663.9,85.8,658.7,87.2,652.8,87.2z M660.1,46.2
		c-2.5,0-4.7,2.2-6.5,6.5s-2.7,9.3-2.7,14.8c0,4.1,1.3,6.2,3.9,6.2c2.5,0,4.7-2.2,6.5-6.5c1.9-4.3,2.8-9.3,2.8-14.9
		c0-2-0.4-3.6-1.1-4.6C662.3,46.9,661.3,46.2,660.1,46.2z"/>
	<path d="M722.8,51c0-1.3-0.3-2.3-1-3s-1.5-1-2.5-1c-1.8,0-3.4,1.1-4.9,3.3s-2.7,5.6-3.7,10.3l-5.4,25.7h-18l11.1-52.6h14.3
		l-0.6,7.3h0.4c1.7-2.9,3.7-5.1,6-6.3c2.3-1.3,5.1-1.9,8.5-1.9c4.4,0,7.8,1.3,10.2,4c2.4,2.6,3.7,6.3,3.7,11c0,3.3-0.4,6.8-1.2,10.6
		l-5.8,27.8h-18l6-28.7C722.5,55.2,722.8,53,722.8,51z"/>
	<path class="st0" d="M745.5,80.4c0-3.4,1-6,3-7.9s4.8-2.9,8.3-2.9c2.6,0,4.6,0.6,6.1,1.9s2.2,3,2.2,5.3c0,3.7-0.9,6.3-2.8,8.1
		c-1.9,1.7-4.8,2.6-8.8,2.6c-2.4,0-4.4-0.6-5.8-1.7C746.2,84.5,745.5,82.8,745.5,80.4z"/>
</g>
</svg>
