<?xml version="1.0" encoding="utf-8"?>
<!-- Generator: Adobe Illustrator 25.2.1, SVG Export Plug-In . SVG Version: 6.00 Build 0)  -->
<svg version="1.1" id="Livello_1" xmlns="http://www.w3.org/2000/svg" xmlns:xlink="http://www.w3.org/1999/xlink" x="0px" y="0px"
	 viewBox="0 0 50 50" style="enable-background:new 0 0 50 50;" xml:space="preserve">
<style type="text/css">
	.st0{fill:#F4F8F9;}
	.st1{fill:#89BA17;}
	.st2{fill:#FFFFFF;}
	.st3{fill:#8D9498;}
	.st4{fill-rule:evenodd;clip-rule:evenodd;fill:#FFFFFF;}
	.st5{fill:none;stroke:#606060;stroke-width:5.000000e-02;stroke-miterlimit:10;}
	.st6{fill:#0099B3;}
	.st7{fill:#00ABAB;}
	.st8{fill:#1D3176;}
	.st9{fill:#86BC25;}
	.st10{fill:none;stroke:#000000;stroke-width:0.15;stroke-miterlimit:10;}
	.st11{fill-rule:evenodd;clip-rule:evenodd;fill:#1D1D1D;}
	.st12{fill:none;stroke:#8D9498;stroke-width:0.15;stroke-miterlimit:10;}
	.st13{fill:#FFFFFF;stroke:#606060;stroke-width:5.000000e-02;stroke-miterlimit:10;}
	.st14{fill:none;stroke:#FFFFFF;stroke-miterlimit:10;}
	.st15{fill-rule:evenodd;clip-rule:evenodd;}
	.st16{fill:#1D1D1B;}
</style>
<g>
	<g>
		<path class="st1" d="M46.3,31.6L46.3,31.6c0-0.4-0.1-0.8-0.2-1.2c-0.1-0.3-0.3-0.5-0.6-0.5h-1.4c-0.1-0.2-0.2-0.5-0.3-0.7l1-1
			c0.2-0.2,0.2-0.5,0.1-0.7c-0.1-0.2-0.2-0.3-0.3-0.4l0,0L44.5,27l-0.1-0.1c-0.5-0.6-1-1.2-1.6-1.6l-0.1-0.1l-0.1-0.1
			c-0.1-0.1-0.3-0.2-0.4-0.3c-0.2-0.2-0.5-0.1-0.7,0.1l-1,1c-0.2-0.1-0.5-0.2-0.7-0.3v-1.4c0-0.3-0.2-0.5-0.5-0.6
			c-1.2-0.3-2.5-0.3-3.8,0c-0.3,0.1-0.5,0.3-0.5,0.6v1.4c-0.2,0.1-0.5,0.2-0.7,0.3l-1-1c-0.2-0.2-0.5-0.2-0.7-0.1
			c-0.2,0.1-0.4,0.2-0.5,0.4c-0.7,0.5-1.3,1.1-1.8,1.8c-0.1,0.2-0.3,0.3-0.4,0.5c-0.2,0.2-0.1,0.5,0.1,0.7l1,1
			c-0.1,0.2-0.2,0.5-0.3,0.7h-1.4c-0.3,0-0.5,0.2-0.6,0.5c-0.1,0.4-0.1,0.8-0.2,1.2l0,0c0,0.2,0,0.3,0,0.5c0,0.1,0,0.1,0,0.2h0
			c0,0.1,0,0.1,0,0.2c0,0.2,0,0.3,0,0.5c0,0.4,0.1,0.8,0.2,1.2c0.1,0.3,0.3,0.5,0.6,0.5h1.4c0.1,0.2,0.2,0.5,0.3,0.7l-1,1
			c-0.2,0.2-0.2,0.5-0.1,0.7c0.1,0.2,0.2,0.3,0.3,0.4l0,0l0.1,0.1l0.1,0.1c0.5,0.6,1,1.2,1.6,1.6l0.1,0.1l0.1,0.1
			c0.1,0.1,0.3,0.2,0.4,0.3c0.2,0.2,0.5,0.1,0.7-0.1l1-1c0.2,0.1,0.5,0.2,0.7,0.3v1.4c0,0.3,0.2,0.5,0.5,0.6
			c0.4,0.1,0.8,0.2,1.2,0.2l0,0c0.1,0,0.2,0,0.3,0c0.1,0,0.2,0,0.4,0l0,0c0.2,0,0.3,0,0.5,0c0.2,0,0.2,0,0.2,0l0,0l0,0
			c0.4,0,0.8-0.1,1.2-0.2c0.3-0.1,0.5-0.3,0.5-0.6V39c0.2-0.1,0.5-0.2,0.7-0.3l1,1c0.2,0.2,0.5,0.2,0.7,0.1c0.2-0.1,0.4-0.2,0.5-0.4
			c0.7-0.5,1.3-1.1,1.8-1.8c0.1-0.2,0.3-0.3,0.4-0.5c0.2-0.2,0.1-0.5-0.1-0.7l-1-1c0.1-0.2,0.2-0.5,0.3-0.7h1.4
			c0.3,0,0.5-0.2,0.6-0.5c0.1-0.4,0.1-0.8,0.2-1.2c0-0.2,0-0.5,0-0.7C46.3,32.1,46.3,31.8,46.3,31.6z M45.1,32.9
			c0,0.2,0,0.4-0.1,0.6h-1.3c-0.3,0-0.5,0.2-0.6,0.4c-0.1,0.4-0.3,0.9-0.5,1.3c-0.1,0.2-0.1,0.5,0.1,0.7l0.9,0.9l-0.1,0.1
			c-0.4,0.6-1,1.1-1.6,1.6l-0.1,0L41,37.6c-0.2-0.2-0.5-0.2-0.7-0.1c-0.4,0.2-0.8,0.4-1.3,0.5c-0.3,0.1-0.4,0.3-0.4,0.6v1.3
			c-0.2,0-0.4,0.1-0.6,0.1c-0.4,0-0.8,0-1.2,0l0,0c-0.2,0-0.4,0-0.6-0.1v-1.4c0-0.3-0.2-0.5-0.4-0.6c-0.4-0.1-0.9-0.3-1.3-0.5
			c-0.2-0.1-0.5-0.1-0.7,0.1l-0.9,0.9l-0.1-0.1l0,0l0,0c-0.5-0.4-1-0.9-1.4-1.4l0,0l0,0l-0.1-0.1l0.9-0.9c0.2-0.2,0.2-0.5,0.1-0.7
			c-0.2-0.4-0.4-0.8-0.5-1.3c-0.1-0.3-0.3-0.4-0.6-0.4h-1.3c0-0.2,0-0.4-0.1-0.6s0-0.4,0-0.6c0-0.2,0-0.4,0-0.6c0-0.2,0-0.4,0.1-0.6
			h1.3c0.3,0,0.5-0.2,0.6-0.4c0.1-0.4,0.3-0.9,0.5-1.3c0.1-0.2,0.1-0.5-0.1-0.7l-0.9-0.9l0.1-0.1c0.4-0.6,1-1.1,1.6-1.6l0.1-0.1
			l0.9,0.9c0.2,0.2,0.5,0.2,0.7,0.1c0.4-0.2,0.8-0.4,1.3-0.5c0.3-0.1,0.4-0.3,0.4-0.6v-1.3c0.2,0,0.4,0,0.6-0.1c0.4,0,0.8,0,1.2,0
			c0.2,0,0.4,0,0.6,0.1v1.3c0,0.3,0.2,0.5,0.4,0.6c0.4,0.1,0.9,0.3,1.3,0.5c0.2,0.1,0.5,0.1,0.7-0.1l0.9-0.9l0.1,0.1l0,0l0,0
			c0.5,0.4,1,0.9,1.4,1.4l0,0l0,0l0.1,0.1l-0.9,0.9c-0.2,0.2-0.2,0.5-0.1,0.7c0.2,0.4,0.4,0.8,0.5,1.3c0.1,0.3,0.3,0.4,0.6,0.4h1.3
			c0,0.2,0,0.4,0.1,0.6c0,0.2,0,0.4,0,0.6C45.1,32.5,45.1,32.7,45.1,32.9L45.1,32.9z"/>
		<path class="st1" d="M37.5,28.8c-2,0-3.5,1.6-3.5,3.5s1.6,3.5,3.5,3.5c2,0,3.5-1.6,3.5-3.5S39.4,28.8,37.5,28.8z M37.5,34.6
			c-1.3,0-2.4-1.1-2.4-2.4c0-1.3,1.1-2.4,2.4-2.4c1.3,0,2.4,1.1,2.4,2.4C39.8,33.6,38.8,34.6,37.5,34.6z"/>
	</g>
	<path class="st2" d="M25.9,33.6C25.9,33.6,25.9,33.6,25.9,33.6l-7.4,0l1.3-2.8c0.3-0.6,0.9-1,1.7-1h5c0.3-0.8,0.6-1.5,1-2.2
		c-0.2,0-0.5-0.1-0.7-0.1h-5.2c-1.7,0-3.1,0.9-3.7,2.3l-1.8,3.7h-0.8H7.8c-1,0-1.9-0.8-1.9-1.9v-6c0-2.7,2.2-4.9,4.9-4.9h26.9
		c1.5,0,2.8,0.7,3.7,1.7c1.2,0.4,2.3,1,3.3,1.8c-0.4-2.2-1.9-4.1-3.8-5h2.9c0.6,0,1.1-0.5,1.1-1.1s-0.5-1.1-1.1-1.1h-4.4l-2.1-4.8
		c-1.3-2.6-3.8-4.2-6.5-4.2h-13c-2.8,0-5.3,1.7-6.4,4.3l-2,4.7H4.8c-0.6,0-1.1,0.5-1.1,1.1s0.5,1.1,1.1,1.1h2.9
		c-2.4,1.2-4,3.6-4,6.4v6c0,1.3,0.6,2.4,1.5,3.2v2.8c0,2.3,1.8,4.1,4.1,4.1h3c2.3,0,4.1-1.8,4.1-4.1v-1.9h0.4h9.4
		C26,35.1,25.9,34.4,25.9,33.6z M13.3,13.3c0.7-1.7,2.5-2.9,4.4-2.9h13c1.9,0,3.6,1.2,4.5,2.9l2.3,5.3H11L13.3,13.3z M14.2,37.7
		c0,1-0.8,1.9-1.9,1.9h-3c-1,0-1.9-0.8-1.9-1.9v-1.9h0.4h6.4V37.7z"/>
	<path class="st2" d="M9.3,28.4h4.5c0.6,0,1.1-0.5,1.1-1.1s-0.5-1.1-1.1-1.1H9.3c-0.6,0-1.1,0.5-1.1,1.1S8.7,28.4,9.3,28.4z"/>
</g>
</svg>
