<?xml version="1.0" encoding="utf-8"?>
<!-- Generator: Adobe Illustrator 25.2.1, SVG Export Plug-In . SVG Version: 6.00 Build 0)  -->
<svg version="1.1" id="Livello_1" xmlns="http://www.w3.org/2000/svg" xmlns:xlink="http://www.w3.org/1999/xlink" x="0px" y="0px"
	 viewBox="0 0 50 50" style="enable-background:new 0 0 50 50;" xml:space="preserve">
<g>
	<path d="M43.6,30.9h-4.9c-0.2,0-0.4,0.1-0.6,0.2c-0.2,0.2-0.2,0.4-0.2,0.6v0.8h-1.4l-3.7-1.8C31.9,30.3,31,30,30.1,30h-3.2
		c-1.6,0-3.1,0.5-4.4,1.3l-2.9,1.9h-2c-0.6,0-1.3,0.1-1.9,0.4c-0.6,0.3-1.1,0.7-1.5,1.2H9.1c-0.8,0-1.5,0.3-2.1,0.8s-1,1.2-1.1,1.9
		C5.8,38.3,6,39,6.4,39.7c0.4,0.6,1,1.1,1.8,1.3l12.2,3.6c0.1,0,0.2,0,0.2,0h5.7c0.1,0,0.1,0,0.2,0l8.9-2.4h2.3V43
		c0,0.2,0.1,0.4,0.2,0.6c0.2,0.2,0.4,0.2,0.6,0.2h4.9c0.2,0,0.4-0.1,0.6-0.2c0.2-0.2,0.2-0.4,0.2-0.6V31.7c0-0.2-0.1-0.4-0.2-0.6
		C44,30.9,43.8,30.9,43.6,30.9z M37.8,40.7h-2.5c-0.1,0-0.1,0-0.2,0l-8.9,2.4h-5.5L8.6,39.6c-0.4-0.1-0.7-0.3-0.9-0.6
		c-0.2-0.3-0.3-0.7-0.2-1c0.1-0.4,0.2-0.7,0.5-0.9c0.3-0.2,0.6-0.4,1-0.4h4.3c-0.1,0.3-0.1,0.7-0.1,1c0,0.4,0.2,0.7,0.4,1
		c0.3,0.3,0.6,0.4,1,0.4h9.5c0.2,0,0.4-0.1,0.6-0.2c0.2-0.2,0.2-0.4,0.2-0.6c0-0.2-0.1-0.4-0.2-0.6c-0.2-0.2-0.4-0.2-0.6-0.2h-9.3
		c0.1-0.7,0.4-1.3,0.8-1.7c0.5-0.5,1.1-0.7,1.8-0.7h2.3c0.2,0,0.3,0,0.5-0.1l3.1-2.1c1-0.7,2.3-1.1,3.5-1.1H30
		c0.7,0,1.3,0.2,1.9,0.5l3.8,1.9c0.1,0.1,0.2,0.1,0.4,0.1h1.6v6.4H37.8z M42.7,42.3h-3.3v-9.8h3.3V42.3z"/>
</g>
<path d="M34.8,8.1l-2.4-2.4c-1.6-1.6-4.1-1.6-5.8-0.1l-4.8,4.7c-1.5,1.4-1.6,3.8-0.3,5.5l-6.8,6.6c-0.7,0.7-0.7,1.8-0.2,2.4l0.2,0.3
	l7.2-7.1l0.2,0.2l-7.2,7.1l0.2,0.2c0.4,0.2,0.7,0.4,1.1,0.4c0.4,0,0.9-0.2,1.3-0.5l6.8-6.6c1.6,1.3,3.9,1.3,5.5-0.2l4.9-4.7
	C36.3,12.3,36.3,9.7,34.8,8.1z M26.7,12.4l-3.4,3.4l-0.6-0.6c-0.5-0.5-0.8-1.2-0.7-2c0-0.7,0.3-1.4,0.8-1.9l1.4-1.4L26.7,12.4z
	 M30.3,16.2l-1.5,1.4c-0.4,0.5-1.1,0.8-1.8,0.8c0,0,0,0-0.1,0c-0.7,0-1.4-0.3-1.9-0.8l-0.7-0.7l3.4-3.3L30.3,16.2z M33.7,12.9
	l-2.3,2.2l-6.1-6.2l2.3-2.2c0.5-0.5,1.3-0.8,2-0.8c0.7,0,1.4,0.3,1.8,0.8l2.4,2.4C34.9,10.2,34.8,11.9,33.7,12.9z"/>
<circle cx="31.4" cy="9.1" r="1"/>
</svg>
