<?xml version="1.0" encoding="utf-8"?>
<!-- Generator: Adobe Illustrator 25.2.1, SVG Export Plug-In . SVG Version: 6.00 Build 0)  -->
<svg version="1.1" id="Livello_1" xmlns="http://www.w3.org/2000/svg" xmlns:xlink="http://www.w3.org/1999/xlink" x="0px" y="0px"
	 viewBox="0 0 50 50" style="enable-background:new 0 0 50 50;" xml:space="preserve">
<style type="text/css">
	.st0{fill:#F4F8F9;}
	.st1{fill:#89BA17;}
	.st2{fill:#FFFFFF;}
	.st3{fill:#8D9498;}
	.st4{fill-rule:evenodd;clip-rule:evenodd;fill:#FFFFFF;}
	.st5{fill:none;stroke:#606060;stroke-width:5.000000e-02;stroke-miterlimit:10;}
	.st6{fill:#0099B3;}
	.st7{fill:#00ABAB;}
	.st8{fill:#1D3176;}
	.st9{fill:#86BC25;}
	.st10{fill:none;stroke:#000000;stroke-width:0.15;stroke-miterlimit:10;}
	.st11{fill-rule:evenodd;clip-rule:evenodd;fill:#1D1D1D;}
	.st12{fill:none;stroke:#8D9498;stroke-width:0.15;stroke-miterlimit:10;}
	.st13{fill:#FFFFFF;stroke:#606060;stroke-width:5.000000e-02;stroke-miterlimit:10;}
	.st14{fill:none;stroke:#FFFFFF;stroke-miterlimit:10;}
	.st15{fill-rule:evenodd;clip-rule:evenodd;}
	.st16{fill:#1D1D1B;}
	.st17{fill:#FF0000;}
	.st18{fill:none;}
</style>
<g>
	<path class="st1" d="M30,19.5c-0.4-0.4-1.1-0.4-1.6,0c-0.4,0.4-0.4,1.1,0,1.6l1.6,1.6c0.2,0.2,0.5,0.3,0.8,0.3
		c0.3,0,0.6-0.1,0.8-0.3l3.1-3.1c0.4-0.4,0.4-1.1,0-1.6c-0.4-0.4-1.1-0.4-1.6,0l-2.4,2.4L30,19.5z"/>
	<path class="st1" d="M33.1,23.6L30.8,26L30,25.2c-0.4-0.4-1.1-0.4-1.6,0c-0.4,0.4-0.4,1.1,0,1.6l1.6,1.6c0.2,0.2,0.5,0.3,0.8,0.3
		c0.3,0,0.6-0.1,0.8-0.3l3.1-3.1c0.4-0.4,0.4-1.1,0-1.6C34.3,23.2,33.6,23.2,33.1,23.6L33.1,23.6z"/>
	<path d="M25,19.2h-8.9c-0.6,0-1.1,0.5-1.1,1.1s0.5,1.1,1.1,1.1H25c0.6,0,1.1-0.5,1.1-1.1S25.6,19.2,25,19.2z"/>
	<path d="M25,24.9h-8.9c-0.6,0-1.1,0.5-1.1,1.1s0.5,1.1,1.1,1.1H25c0.6,0,1.1-0.5,1.1-1.1S25.6,24.9,25,24.9z"/>
	<path d="M25,30.5h-8.9c-0.6,0-1.1,0.5-1.1,1.1c0,0.6,0.5,1.1,1.1,1.1H25c0.6,0,1.1-0.5,1.1-1.1C26.1,31,25.6,30.5,25,30.5z"/>
	<path d="M25,36.1h-8.9c-0.6,0-1.1,0.5-1.1,1.1s0.5,1.1,1.1,1.1H25c0.6,0,1.1-0.5,1.1-1.1S25.6,36.1,25,36.1z"/>
	<path d="M38.4,10.5H32C31.6,9.6,30.7,9,29.7,9h-1L29,7.4c0.1-0.3,0-0.7-0.2-1C28.6,6.2,28.3,6,28,6H22c-0.3,0-0.7,0.2-0.9,0.4
		c-0.2,0.3-0.3,0.6-0.2,1L21.3,9h-1c-1,0-1.9,0.6-2.3,1.5h-6.3c-0.6,0-1.1,0.5-1.1,1.1v31.3c0,0.6,0.5,1.1,1.1,1.1h26.7
		c0.6,0,1.1-0.5,1.1-1.1V11.6C39.5,11,39,10.5,38.4,10.5z M20.3,11.2h2.5c0.3,0,0.7-0.2,0.9-0.4c0.2-0.3,0.3-0.6,0.2-1l-0.4-1.6h3.1
		l-0.4,1.6c-0.1,0.3,0,0.7,0.2,1c0.2,0.3,0.5,0.4,0.9,0.4h2.5c0.2,0,0.3,0.1,0.4,0.3l0.3,1.9H19.6l0.3-1.9
		C20,11.3,20.1,11.2,20.3,11.2z M37.2,41.8H12.8V12.7h4.7l-0.3,1.7c-0.1,0.3,0,0.7,0.2,0.9c0.2,0.2,0.5,0.4,0.8,0.4h13.4
		c0.3,0,0.6-0.1,0.8-0.4c0.2-0.2,0.3-0.6,0.2-0.9l-0.3-1.7h4.7V41.8z"/>
</g>
</svg>
