<?xml version="1.0" encoding="utf-8"?>
<!-- Generator: Adobe Illustrator 25.2.1, SVG Export Plug-In . SVG Version: 6.00 Build 0)  -->
<svg version="1.1" id="Livello_1" xmlns="http://www.w3.org/2000/svg" xmlns:xlink="http://www.w3.org/1999/xlink" x="0px" y="0px"
	 viewBox="0 0 50 50" style="enable-background:new 0 0 50 50;" xml:space="preserve">
<style type="text/css">
	.st0{fill:#F4F8F9;}
	.st1{fill:#89BA17;}
	.st2{fill:#FFFFFF;}
	.st3{fill:#8D9498;}
	.st4{fill-rule:evenodd;clip-rule:evenodd;fill:#FFFFFF;}
	.st5{fill:none;stroke:#606060;stroke-width:5.000000e-02;stroke-miterlimit:10;}
	.st6{fill:#0099B3;}
	.st7{fill:#00ABAB;}
	.st8{fill:#1D3176;}
	.st9{fill:#86BC25;}
	.st10{fill:none;stroke:#000000;stroke-width:0.15;stroke-miterlimit:10;}
	.st11{fill-rule:evenodd;clip-rule:evenodd;fill:#1D1D1D;}
	.st12{fill:none;stroke:#8D9498;stroke-width:0.15;stroke-miterlimit:10;}
	.st13{fill:#FFFFFF;stroke:#606060;stroke-width:5.000000e-02;stroke-miterlimit:10;}
	.st14{fill:none;stroke:#FFFFFF;stroke-miterlimit:10;}
	.st15{fill-rule:evenodd;clip-rule:evenodd;}
	.st16{fill:#1D1D1B;}
	.st17{fill:#FF0000;}
	.st18{fill:none;}
</style>
<g>
	<g>
		<path d="M25,46.4c-2.2,0-4.4-0.4-6.5-1.2c-5.5-2.1-9.1-6.6-9.7-11.9c-0.6-5.2,1.8-10.1,6.5-13.2c2.1-1.5,3.7-3.4,4.5-5.6l0.3-0.9
			c0.2-0.6,0.8-1.1,1.4-1.1h7.1c0.6,0,1.1,0.3,1.3,0.8l0.4,0.9c0,0.1,0.1,0.1,0.1,0.2c0.7,2.2,2.2,4.1,4.5,5.6
			c4.6,3.1,6.9,8.1,6.3,13.3c-0.6,5.4-4.3,9.9-9.7,12C29.4,46,27.2,46.4,25,46.4z M22.5,15.4c-1,2.9-2.9,5.3-5.6,7.1
			c-3.7,2.5-5.6,6.4-5.2,10.4c0.5,4.2,3.4,7.8,7.8,9.5c3.5,1.3,7.4,1.3,10.8,0c4.4-1.7,7.4-5.3,7.9-9.6c0.5-4.1-1.4-8-5.1-10.5
			c-2.7-1.9-4.6-4.2-5.6-7H22.5z"/>
	</g>
	<g>
		<path d="M21.7,15.4c-0.5,0-1-0.2-1.3-0.7l-5-8.1c-0.4-0.7-0.2-1.6,0.5-2c0.7-0.4,1.6-0.2,2,0.5l5,8.1c0.4,0.7,0.2,1.6-0.5,2
			C22.3,15.3,22,15.4,21.7,15.4z"/>
	</g>
	<g>
		<path d="M18.5,8.9c-0.4,0-0.8-0.1-1-0.4c-0.6-0.6-0.6-1.5,0-2.1l1.6-1.6c1.4-1.4,3.9-1.4,5.3,0c0.3,0.3,0.9,0.3,1.2,0
			c1.4-1.4,3.9-1.4,5.3,0l1.6,1.6c0.6,0.6,0.6,1.5,0,2.1C32,9,31,9,30.4,8.4l-1.6-1.6c-0.2-0.2-0.5-0.2-0.6-0.2
			c-0.1,0-0.4,0-0.6,0.2c-1.5,1.5-3.9,1.5-5.3,0c-0.2-0.2-0.5-0.2-0.6-0.2s-0.4,0-0.6,0.2l-1.6,1.6C19.2,8.7,18.9,8.9,18.5,8.9z"/>
	</g>
	<g>
		<path d="M33.3,15.4h-5c-0.5,0-1-0.3-1.3-0.8c-0.3-0.5-0.2-1,0-1.5L32,5c0.4-0.7,1.3-0.9,2-0.5c0.7,0.4,0.9,1.3,0.5,2l-3.6,5.9h2.4
			c0.8,0,1.5,0.7,1.5,1.5C34.8,14.7,34.1,15.4,33.3,15.4z"/>
	</g>
	<g>
		<path d="M25,27.2c-0.8,0-1.5-0.7-1.5-1.5v-1.5c0-0.8,0.7-1.5,1.5-1.5c0.8,0,1.5,0.7,1.5,1.5v1.5C26.5,26.5,25.8,27.2,25,27.2z"/>
	</g>
	<g>
		<path d="M25,37.6c-0.8,0-1.5-0.7-1.5-1.5v-1.5c0-0.8,0.7-1.5,1.5-1.5c0.8,0,1.5,0.7,1.5,1.5v1.5C26.5,36.9,25.8,37.6,25,37.6z"/>
	</g>
	<g>
		<path d="M25.7,36.1h-2.2c-0.8,0-1.5-0.7-1.5-1.5s0.7-1.5,1.5-1.5h2.2c0.4,0,0.7-0.4,0.7-0.7s-0.4-0.7-0.7-0.7h-1.5
			c-2,0-3.7-1.7-3.7-3.7s1.7-3.7,3.7-3.7h2.2c0.8,0,1.5,0.7,1.5,1.5c0,0.8-0.7,1.5-1.5,1.5h-2.2c-0.4,0-0.7,0.4-0.7,0.7
			c0,0.4,0.4,0.7,0.7,0.7h1.5c2,0,3.7,1.7,3.7,3.7S27.7,36.1,25.7,36.1z"/>
	</g>
</g>
</svg>
