<?xml version="1.0" encoding="utf-8"?>
<!-- Generator: Adobe Illustrator 25.2.1, SVG Export Plug-In . SVG Version: 6.00 Build 0)  -->
<svg version="1.1" id="Livello_1" xmlns="http://www.w3.org/2000/svg" xmlns:xlink="http://www.w3.org/1999/xlink" x="0px" y="0px"
	 viewBox="0 0 50 50" style="enable-background:new 0 0 50 50;" xml:space="preserve">
<style type="text/css">
	.st0{fill:#F4F8F9;}
	.st1{fill:#89BA17;}
	.st2{fill:#FFFFFF;}
	.st3{fill:#8D9498;}
	.st4{fill-rule:evenodd;clip-rule:evenodd;fill:#FFFFFF;}
	.st5{fill:none;stroke:#606060;stroke-width:5.000000e-02;stroke-miterlimit:10;}
	.st6{fill:#0099B3;}
	.st7{fill:#00ABAB;}
	.st8{fill:#1D3176;}
	.st9{fill:#86BC25;}
	.st10{fill:none;stroke:#000000;stroke-width:0.15;stroke-miterlimit:10;}
	.st11{fill-rule:evenodd;clip-rule:evenodd;fill:#1D1D1D;}
	.st12{fill:none;stroke:#8D9498;stroke-width:0.15;stroke-miterlimit:10;}
	.st13{fill:#FFFFFF;stroke:#606060;stroke-width:5.000000e-02;stroke-miterlimit:10;}
	.st14{fill:none;stroke:#FFFFFF;stroke-miterlimit:10;}
	.st15{fill-rule:evenodd;clip-rule:evenodd;}
	.st16{fill:#1D1D1B;}
	.st17{fill:#FF0000;}
	.st18{fill:none;}
</style>
<g>
	<path class="st17" d="M15.4,42.5h19.3c2.5,0,4.6-2.1,4.6-4.6V13.6h3.4c0.8,0,1.4-0.6,1.4-1.4c0-0.8-0.6-1.4-1.4-1.4h-8.2V9
		c0-0.8-0.6-1.4-1.4-1.4H17c0,0,0,0,0,0c-0.4,0-0.7,0.1-1,0.4c-0.3,0.3-0.4,0.6-0.4,1v1.8H7.3c-0.8,0-1.4,0.6-1.4,1.4
		c0,0.8,0.6,1.4,1.4,1.4h3.4v24.3C10.8,40.4,12.8,42.5,15.4,42.5z M13.6,13.6h22.9v24.3c0,1-0.8,1.8-1.8,1.8h0H15.4h0
		c-1,0-1.8-0.8-1.8-1.8V13.6z"/>
	<path class="st17" d="M22.1,34c0,0.9-0.7,1.6-1.6,1.6l0,0c-0.9,0-1.6-0.7-1.6-1.6V20.1c0-0.9,0.7-1.6,1.6-1.6l0,0
		c0.9,0,1.6,0.7,1.6,1.6V34z"/>
	<path class="st17" d="M30.3,34c0,0.9-0.7,1.6-1.6,1.6l0,0c-0.9,0-1.6-0.7-1.6-1.6V20.1c0-0.9,0.7-1.6,1.6-1.6l0,0
		c0.9,0,1.6,0.7,1.6,1.6V34z"/>
</g>
</svg>
