<?xml version="1.0" encoding="utf-8"?>
<!-- Generator: Adobe Illustrator 25.2.1, SVG Export Plug-In . SVG Version: 6.00 Build 0)  -->
<svg version="1.1" id="Livello_1" xmlns="http://www.w3.org/2000/svg" xmlns:xlink="http://www.w3.org/1999/xlink" x="0px" y="0px"
	 viewBox="0 0 50 50" style="enable-background:new 0 0 50 50;" xml:space="preserve">
<style type="text/css">
	.st0{fill:#F4F8F9;}
	.st1{fill:#89BA17;}
	.st2{fill:#FFFFFF;}
	.st3{fill:#8D9498;}
	.st4{fill-rule:evenodd;clip-rule:evenodd;fill:#FFFFFF;}
	.st5{fill:none;stroke:#606060;stroke-width:5.000000e-02;stroke-miterlimit:10;}
	.st6{fill:#0099B3;}
	.st7{fill:#00ABAB;}
	.st8{fill:#1D3176;}
	.st9{fill:#86BC25;}
	.st10{fill:none;stroke:#000000;stroke-width:0.15;stroke-miterlimit:10;}
	.st11{fill-rule:evenodd;clip-rule:evenodd;fill:#1D1D1D;}
	.st12{fill:none;stroke:#8D9498;stroke-width:0.15;stroke-miterlimit:10;}
	.st13{fill:#FFFFFF;stroke:#606060;stroke-width:5.000000e-02;stroke-miterlimit:10;}
	.st14{fill:none;stroke:#FFFFFF;stroke-miterlimit:10;}
	.st15{fill-rule:evenodd;clip-rule:evenodd;}
	.st16{fill:#1D1D1B;}
	.st17{fill:#FF0000;}
	.st18{fill:none;}
</style>
<g>
	<path class="st2" d="M31.4,21.8c3.1-2.1,5.1-5.6,5.1-9.5c0-6.3-5.2-11.5-11.5-11.5c-6.3,0-11.5,5.2-11.5,11.5c0,4,2,7.5,5.1,9.5
		c-5.9,2.5-10,8.3-10,15.1h3.3c0-7.3,5.9-13.1,13.1-13.1c7.3,0,13.1,5.9,13.1,13.1h3.3C41.4,30.1,37.3,24.3,31.4,21.8z M16.8,12.3
		c0-4.5,3.7-8.2,8.2-8.2c4.5,0,8.2,3.7,8.2,8.2s-3.7,8.2-8.2,8.2C20.5,20.5,16.8,16.8,16.8,12.3z"/>
	<path class="st1" d="M25,25.9c6.4,0,11.7,5.2,11.7,11.7S31.4,49.2,25,49.2S13.3,44,13.3,37.6S18.5,25.9,25,25.9z M20.3,38.7l-4.6,0
		c0.5,4.2,3.9,7.6,8.1,8.1v-4.6C21.9,42.2,20.3,40.7,20.3,38.7z M34.3,38.7l-4.6,0c0,1.9-1.6,3.5-3.5,3.5l0,4.6
		C30.4,46.3,33.7,43,34.3,38.7z M27.3,37.6h-4.7v1.2c0,0.6,0.5,1.2,1.2,1.2h2.3c0.6,0,1.2-0.5,1.2-1.2V37.6z M25,28.2
		c-4.7,0-8.7,3.5-9.3,8.2h4.6c0-0.6,0.5-1.2,1.2-1.2h7c0.6,0,1.2,0.5,1.2,1.2h4.6C33.7,31.7,29.7,28.2,25,28.2z"/>
</g>
</svg>
