<?xml version="1.0" encoding="utf-8"?>
<!-- Generator: Adobe Illustrator 26.3.0, SVG Export Plug-In . SVG Version: 6.00 Build 0)  -->
<svg version="1.1" id="Livello_1" xmlns="http://www.w3.org/2000/svg" xmlns:xlink="http://www.w3.org/1999/xlink" x="0px" y="0px"
	 viewBox="0 0 516 112" style="enable-background:new 0 0 516 112;" xml:space="preserve">
<style type="text/css">
	.st0{fill:#89BA17;}
</style>
<g>
	<path class="st0" d="M86.9,16.3l-13,65.2H55.5l5-25.3h-25l-5,25.3H12l13-65.2h18.4l-4.8,24.4h25l4.8-24.4H86.9z"/>
	<path d="M142.2,60.7h-37c0.6,5.5,4.4,8.2,11.4,8.2c2.2,0,4.4-0.3,6.5-1c2.1-0.7,4-1.7,5.7-3.1l7.4,11.1c-5.9,4.3-13.1,6.5-21.5,6.5
		c-5.3,0-10-0.9-14.1-2.8s-7.2-4.6-9.4-8c-2.2-3.4-3.3-7.5-3.3-12.1c0-5.5,1.3-10.5,3.9-14.9c2.6-4.4,6.2-7.9,10.8-10.4
		c4.6-2.5,9.9-3.8,15.9-3.8c5,0,9.4,0.9,13.2,2.7c3.8,1.8,6.6,4.4,8.7,7.8c2,3.3,3,7.2,3,11.6C143.2,54.8,142.9,57.6,142.2,60.7z
		 M110.4,45.1c-1.9,1.5-3.3,3.6-4.2,6.3h20.8c0.1-2.7-0.8-4.8-2.5-6.3c-1.7-1.5-4-2.3-6.9-2.3C114.7,42.8,112.3,43.5,110.4,45.1z"/>
	<path d="M159.3,12.4H177l-13.8,69.1h-17.7L159.3,12.4z"/>
	<path d="M225.6,33c3.3,1.8,5.9,4.5,7.9,8c2,3.5,3,7.5,3,12.2c0,5.5-1.2,10.5-3.7,14.9c-2.5,4.4-5.8,7.9-10,10.5
		c-4.2,2.5-8.8,3.8-13.7,3.8c-7.3,0-12.5-2.3-15.5-6.9l-4.8,24.1h-17.7l13.7-68.5h16.8l-1,4.7c4-3.7,8.9-5.6,14.6-5.6
		C218.8,30.2,222.3,31.1,225.6,33z M215.2,64.2c2.2-2.6,3.3-6,3.3-10.1c0-3-0.9-5.3-2.6-7.1c-1.7-1.7-4-2.6-7-2.6
		c-3.5,0-6.4,1.3-8.7,3.9c-2.2,2.6-3.3,6-3.3,10.2c0,3,0.9,5.3,2.6,7c1.7,1.7,4,2.6,7,2.6C210.1,68.1,213,66.8,215.2,64.2z"/>
	<path d="M333.9,12.4l-13.8,69.1h-16.8l1-4.9c-4,3.9-8.9,5.8-14.6,5.8c-3.7,0-7.2-0.9-10.5-2.7c-3.3-1.8-5.9-4.5-7.9-8
		c-2-3.5-3-7.6-3-12.3c0-5.5,1.2-10.4,3.7-14.8c2.5-4.4,5.8-7.9,10-10.5c4.2-2.5,8.8-3.8,13.8-3.8c7.2,0,12.3,2.2,15.4,6.7l4.9-24.5
		H333.9z M304.6,64.2c2.2-2.6,3.3-6,3.3-10.1c0-3-0.8-5.3-2.5-7.1c-1.7-1.7-4-2.6-7-2.6c-3.5,0-6.4,1.3-8.7,3.9
		c-2.2,2.6-3.4,6-3.4,10.2c0,3,0.8,5.3,2.5,7c1.7,1.7,4,2.6,7,2.6C299.4,68.1,302.3,66.8,304.6,64.2z"/>
	<path d="M387.5,60.7h-37c0.6,5.5,4.4,8.2,11.4,8.2c2.2,0,4.4-0.3,6.5-1c2.1-0.7,4-1.7,5.7-3.1l7.4,11.1c-5.9,4.3-13.1,6.5-21.5,6.5
		c-5.3,0-10-0.9-14.1-2.8s-7.2-4.6-9.4-8c-2.2-3.4-3.3-7.5-3.3-12.1c0-5.5,1.3-10.5,3.9-14.9c2.6-4.4,6.2-7.9,10.8-10.4
		c4.6-2.5,9.9-3.8,15.9-3.8c5,0,9.4,0.9,13.2,2.7c3.8,1.8,6.6,4.4,8.7,7.8c2,3.3,3,7.2,3,11.6C388.5,54.8,388.2,57.6,387.5,60.7z
		 M355.7,45.1c-1.9,1.5-3.3,3.6-4.2,6.3h20.8c0.1-2.7-0.8-4.8-2.5-6.3c-1.7-1.5-4-2.3-6.9-2.3S357.6,43.5,355.7,45.1z"/>
	<path d="M398.1,80.9c-4-0.9-7.1-2.1-9.4-3.5l6.4-12.4c2.3,1.4,5,2.6,8.2,3.4c3.2,0.8,6.3,1.3,9.3,1.3c5.4,0,8.1-1.2,8.1-3.6
		c0-1-0.6-1.7-1.9-2.2c-1.3-0.5-3.3-0.9-6.1-1.4c-3.7-0.7-6.8-1.4-9.2-2.2c-2.4-0.8-4.5-2.1-6.3-4c-1.8-1.9-2.7-4.5-2.7-7.8
		c0-5.8,2.5-10.3,7.5-13.5c5-3.2,11.5-4.8,19.4-4.8c3.6,0,7.1,0.4,10.4,1.1c3.4,0.7,6.3,1.7,8.7,2.9l-6.2,12.4
		c-4.2-2.5-9.2-3.8-15-3.8c-2.7,0-4.8,0.4-6.1,1.1c-1.3,0.7-2,1.6-2,2.7c0,1,0.6,1.7,1.9,2.2c1.3,0.5,3.4,1,6.3,1.5
		c3.6,0.6,6.6,1.3,9,2.1c2.4,0.8,4.5,2.1,6.2,4c1.8,1.9,2.7,4.4,2.7,7.6c0,5.8-2.5,10.3-7.5,13.5c-5,3.2-11.4,4.7-19.3,4.7
		C406.2,82.3,402.1,81.9,398.1,80.9z"/>
	<path d="M482.9,53.4l16.9,28.1h-20.7l-10.3-17.2l-7.3,6.3l-2.1,10.9h-17.7l13.8-69.1h17.7l-7.2,35.8l20.4-17.2h22.3L482.9,53.4z"/>
</g>
</svg>
