<?xml version="1.0" encoding="utf-8"?>
<!-- Generator: Adobe Illustrator 26.3.0, SVG Export Plug-In . SVG Version: 6.00 Build 0)  -->
<svg version="1.1" id="Livello_1" xmlns="http://www.w3.org/2000/svg" xmlns:xlink="http://www.w3.org/1999/xlink" x="0px" y="0px"
	 viewBox="0 0 51 73" style="enable-background:new 0 0 51 73;" xml:space="preserve">
<style type="text/css">
	.st0{fill:#000;}
</style>
<g>
	<g transform="translate(-142 -673)">
		<g>
			<g>
				<g>
					<g>
						<g>
							<g>
								<g>
									<g>
										<path class="st0" d="M151.6,729.1c-0.3,0-0.5-0.2-0.5-0.5c0-0.3,0.2-0.5,0.5-0.5s0.5,0.2,0.5,0.5
											C152.1,728.9,151.9,729.1,151.6,729.1z M151.6,725.9c-1.5,0-2.8,1.2-2.8,2.8c0,1.5,1.2,2.8,2.8,2.8c1.5,0,2.8-1.2,2.8-2.8
											C154.4,727.1,153.1,725.9,151.6,725.9z M171.6,728.6c0,0.6-0.5,1.1-1.1,1.1h-13.7c-0.6,0-1.1-0.5-1.1-1.1
											c0-0.6,0.5-1.1,1.1-1.1h13.7C171.1,727.5,171.6,728,171.6,728.6z M151.6,737c-0.3,0-0.5-0.2-0.5-0.5
											c0-0.3,0.2-0.5,0.5-0.5s0.5,0.2,0.5,0.5C152.1,736.8,151.9,737,151.6,737z M151.6,733.7c-1.5,0-2.8,1.2-2.8,2.8
											c0,1.5,1.2,2.8,2.8,2.8c1.5,0,2.8-1.2,2.8-2.8C154.4,734.9,153.1,733.7,151.6,733.7z M169,736.5c0,0.6-0.5,1.1-1.1,1.1
											h-11.1c-0.6,0-1.1-0.5-1.1-1.1c0-0.6,0.5-1.1,1.1-1.1h11.1C168.5,735.3,169,735.8,169,736.5z M151.6,720.3
											c0.3,0,0.5,0.2,0.5,0.5c0,0.3-0.2,0.5-0.5,0.5s-0.5-0.2-0.5-0.5C151.1,720.5,151.3,720.3,151.6,720.3z M151.6,723.5
											c1.5,0,2.8-1.2,2.8-2.8c0-1.5-1.2-2.8-2.8-2.8c-1.5,0-2.8,1.2-2.8,2.8C148.8,722.3,150.1,723.5,151.6,723.5z M156.8,719.7
											h11.1c0.6,0,1.1,0.5,1.1,1.1c0,0.6-0.5,1.1-1.1,1.1l-11.1,0c-0.6,0-1.1-0.5-1.1-1.1C155.7,720.2,156.2,719.7,156.8,719.7z
											 M183.5,731c0.2,0.3,0.3,0.5,0.3,0.8c-0.1,0.5-0.8,1.1-2,1.4V730C182.5,730.2,183.1,730.5,183.5,731z M179.5,727.3
											c-0.8-0.3-1.4-0.7-1.7-1.1c-0.1-0.2-0.3-0.5-0.3-0.8c0.1-0.5,0.8-1.1,2-1.4V727.3z M181.7,720.9c0-0.6-0.5-1.1-1.1-1.1
											c-0.6,0-1.1,0.5-1.1,1.1v0.9c-2.3,0.4-4,1.7-4.3,3.4c-0.1,0.8,0.2,1.7,0.8,2.5c0.8,1,2,1.7,3.5,2v3.6
											c-1.1-0.1-2-0.4-2.6-0.9c-0.5-0.4-1.2-0.3-1.6,0.2c-0.4,0.5-0.3,1.2,0.2,1.6c1,0.8,2.4,1.3,4,1.5v0.8
											c0,0.6,0.5,1.1,1.1,1.1c0.6,0,1.1-0.5,1.1-1.1v-0.9c2.3-0.4,4-1.7,4.3-3.4c0.1-0.9-0.1-1.8-0.8-2.5
											c-0.8-0.9-2-1.6-3.5-1.8V724c1.1,0.1,2,0.4,2.6,0.9c0.5,0.4,1.2,0.3,1.6-0.2c0.4-0.5,0.3-1.2-0.2-1.6
											c-1-0.8-2.4-1.3-4-1.5V720.9z M159.9,687.5l13.6,13.6c-1.7,1.3-3.7,2.1-6,2.1c-5.3,0-9.7-4.4-9.7-9.7
											C157.8,691.2,158.6,689.1,159.9,687.5z M167.5,683.8c5.3,0,9.7,4.4,9.7,9.7c0,2.3-0.8,4.4-2.1,6l-13.6-13.6
											C163.2,684.6,165.2,683.8,167.5,683.8z M167.5,705.4c6.6,0,11.9-5.4,11.9-12s-5.4-12-11.9-12s-11.9,5.4-11.9,12
											S160.9,705.4,167.5,705.4z M185.9,711.6c0-0.6,0.5-1.1,1.1-1.1h1.1c0.6,0,1.1,0.5,1.1,1.1c0,0.6-0.5,1.1-1.1,1.1h-1.1
											C186.5,712.7,185.9,712.2,185.9,711.6z M180.2,710.5h2.3c0.6,0,1.1,0.5,1.1,1.1c0,0.6-0.5,1.1-1.1,1.1h-2.3
											c-0.6,0-1.1-0.5-1.1-1.1C179.1,711,179.6,710.5,180.2,710.5z M175.6,712.7h-2.3c-0.6,0-1.1-0.5-1.1-1.1
											c0-0.6,0.5-1.1,1.1-1.1h2.3c0.6,0,1.1,0.5,1.1,1.1C176.7,712.2,176.2,712.7,175.6,712.7z M166.4,712.7
											c-0.6,0-1.1-0.5-1.1-1.1c0-0.6,0.5-1.1,1.1-1.1h2.3c0.6,0,1.1,0.5,1.1,1.1c0,0.6-0.5,1.1-1.1,1.1H166.4z M151.4,711.6
											c0-0.6,0.5-1.1,1.1-1.1h2.3c0.6,0,1.1,0.5,1.1,1.1c0,0.6-0.5,1.1-1.1,1.1h-2.3C151.9,712.7,151.4,712.2,151.4,711.6z
											 M159.5,712.7c-0.6,0-1.1-0.5-1.1-1.1c0-0.6,0.5-1.1,1.1-1.1h2.3c0.6,0,1.1,0.5,1.1,1.1c0,0.6-0.5,1.1-1.1,1.1H159.5z
											 M145.7,711.6c0-0.6,0.5-1.1,1.1-1.1h1.1c0.6,0,1.1,0.5,1.1,1.1c0,0.6-0.5,1.1-1.1,1.1h-1.1
											C146.2,712.7,145.7,712.2,145.7,711.6z M189.8,743.5h-44.6v-67h44.6V743.5z M190.2,674.2h-45.3c-1,0-1.9,0.8-1.9,1.9v67.8
											c0,1,0.8,1.9,1.9,1.9h45.3c1,0,1.9-0.8,1.9-1.9v-67.8C192,675.1,191.2,674.2,190.2,674.2"/>
									</g>
								</g>
							</g>
						</g>
					</g>
				</g>
			</g>
		</g>
	</g>
</g>
</svg>
