<?xml version="1.0" encoding="utf-8"?>
<!-- Generator: Adobe Illustrator 26.3.0, SVG Export Plug-In . SVG Version: 6.00 Build 0)  -->
<svg version="1.1" id="Livello_1" xmlns="http://www.w3.org/2000/svg" xmlns:xlink="http://www.w3.org/1999/xlink" x="0px" y="0px"
	 viewBox="0 0 62 73" style="enable-background:new 0 0 62 73;" xml:space="preserve">
<style type="text/css">
	.st0{fill:#000;}
</style>
<g>
	<g transform="translate(-137 -488)">
		<g>
			<g>
				<g>
					<g>
						<g>
							<g>
								<path class="st0" d="M155.1,529.6h27.1c0.6,0,1.1-0.5,1.1-1.1s-0.5-1.1-1.1-1.1h-27.1c-0.6,0-1.1,0.5-1.1,1.1
									S154.5,529.6,155.1,529.6z"/>
								<path class="st0" d="M155.1,534.1h27.1c0.6,0,1.1-0.5,1.1-1.1s-0.5-1.1-1.1-1.1h-27.1c-0.6,0-1.1,0.5-1.1,1.1
									S154.5,534.1,155.1,534.1z"/>
								<path class="st0" d="M155.1,538.6h27.1c0.6,0,1.1-0.5,1.1-1.1s-0.5-1.1-1.1-1.1h-27.1c-0.6,0-1.1,0.5-1.1,1.1
									S154.5,538.6,155.1,538.6z"/>
								<path class="st0" d="M155.1,543.1h27.1c0.6,0,1.1-0.5,1.1-1.1s-0.5-1.1-1.1-1.1h-27.1c-0.6,0-1.1,0.5-1.1,1.1
									S154.5,543.1,155.1,543.1z"/>
								<path class="st0" d="M181.6,501.5c0-5-4.1-9-9-9s-9,4-9,9s4.1,9,9,9S181.6,506.5,181.6,501.5z M165.8,501.5
									c0-3.7,3.1-6.8,6.8-6.8s6.8,3,6.8,6.8s-3.1,6.8-6.8,6.8S165.8,505.2,165.8,501.5z"/>
								<path class="st0" d="M173.7,504.9v-3.4c0-0.6-0.5-1.1-1.1-1.1s-1.1,0.5-1.1,1.1v3.4c0,0.6,0.5,1.1,1.1,1.1
									S173.7,505.5,173.7,504.9z"/>
								<path class="st0" d="M172.6,499.2c0.6,0,1.1-0.5,1.1-1.1V497c0-0.6-0.5-1.1-1.1-1.1s-1.1,0.5-1.1,1.1v1.1
									C171.5,498.7,172,499.2,172.6,499.2z"/>
								<path class="st0" d="M146,560c5,0,9-4,9-9s-4.1-9-9-9s-9,4-9,9S141.1,560,146,560z M146,544.2c3.7,0,6.8,3,6.8,6.8
									s-3.1,6.8-6.8,6.8s-6.8-3-6.8-6.8S142.3,544.2,146,544.2z"/>
								<path class="st0" d="M142.8,554.7c0.3,0.5,1,0.7,1.5,0.4c0.9-0.6,2.5-0.6,3.3,0c0.2,0.1,0.4,0.2,0.6,0.2
									c0.4,0,0.7-0.2,1-0.6c0.3-0.5,0.2-1.2-0.4-1.5c-1.6-1-4.1-1-5.7,0C142.6,553.5,142.5,554.2,142.8,554.7z"/>
								<path class="st0" d="M155.1,525.1h27.1c0.4,0,0.8-0.2,1-0.6c-1.2-0.1-2.2-0.7-2.8-1.7h-25.3c-0.6,0-1.1,0.5-1.1,1.1
									S154.5,525.1,155.1,525.1z"/>
								<path class="st0" d="M155.1,520.6h24.9v-2.2h-24.9c-0.6,0-1.1,0.5-1.1,1.1S154.5,520.6,155.1,520.6z"/>
								<path class="st0" d="M153.9,515c0,0.6,0.5,1.1,1.1,1.1h24.9v-2.2h-24.9C154.5,513.9,153.9,514.4,153.9,515z"/>
								<path class="st0" d="M186.7,506H185c-1.6,0-2.8,1.2-2.8,2.8v12.4c0,0.6,0.5,1.1,1.1,1.1s1.1-0.5,1.1-1.1v-12.4
									c0-0.3,0.2-0.6,0.6-0.6h1.7v29.2c0,0.4,0.2,0.8,0.6,1v3.9c0,2.9,0.5,5.8,1.4,8.6l2.6,8.3c0.2,0.4,0.6,0.8,1.1,0.8h0.1
									c0.5,0,0.9-0.3,1.1-0.8l2.6-8.3c0.9-2.8,1.4-5.7,1.4-8.6v-3.9c0.3-0.2,0.6-0.6,0.6-1V506c0-1.9-1.5-3.4-3.4-3.4h-4.5
									C188.2,502.6,186.7,504.1,186.7,506z M195.2,542.3c0,2.7-0.4,5.4-1.2,7.9l-1.6,5.1l-1.6-5.1c-0.8-2.6-1.2-5.2-1.2-7.9v-3.7
									h5.6V542.3z M195.7,536.4H189v-25.9h6.8V536.4z M195.7,506v2.2H189V506c0-0.6,0.5-1.1,1.1-1.1h4.5
									C195.2,504.9,195.7,505.4,195.7,506z"/>
								<path class="st0" d="M147.2,539.8v-34.9h10.3c1.8,0,3.2-1.5,3.2-3.3v-11.3H189c0.6,0,1.1,0.5,1.1,1.1v9.1h2.3v-9.1
									c0-1.9-1.5-3.3-3.4-3.3h-28.9c-0.3,0-0.6,0.1-0.8,0.3l-14.1,14.2c-0.2,0.2-0.3,0.5-0.3,0.8v36.5c0.4-0.1,0.7-0.1,1.1-0.1
									C146.4,539.7,146.8,539.8,147.2,539.8z M158.5,492.4v9.2c0,0.6-0.5,1.1-1,1.1h-9.2L158.5,492.4z"/>
								<path class="st0" d="M152.8,560H189c0.1,0,0.1,0,0.1,0c0-0.1-0.1-0.1-0.1-0.1l-0.6-2.1h-33.3
									C154.4,558.6,153.7,559.4,152.8,560z"/>
								<path class="st0" d="M182.2,545.4h-26.4c0.4,0.7,0.7,1.5,1,2.2h25.4c0.6,0,1.1-0.5,1.1-1.1S182.8,545.4,182.2,545.4z"/>
								<path class="st0" d="M182.2,552.1c0.6,0,1.1-0.5,1.1-1.1s-0.5-1.1-1.1-1.1h-24.9c0.1,0.4,0.1,0.7,0.1,1.1s0,0.7-0.1,1.1
									H182.2z"/>
								<path class="st0" d="M144.9,549.3c0,0.6-0.5,1.1-1.1,1.1c-0.6,0-1.1-0.5-1.1-1.1s0.5-1.1,1.1-1.1
									C144.4,548.2,144.9,548.7,144.9,549.3z"/>
								<path class="st0" d="M149.4,549.3c0,0.6-0.5,1.1-1.1,1.1c-0.6,0-1.1-0.5-1.1-1.1s0.5-1.1,1.1-1.1
									C148.9,548.2,149.4,548.7,149.4,549.3z"/>
							</g>
						</g>
					</g>
				</g>
			</g>
		</g>
	</g>
</g>
</svg>
