<?xml version="1.0" encoding="utf-8"?>
<!-- Generator: Adobe Illustrator 26.3.0, SVG Export Plug-In . SVG Version: 6.00 Build 0)  -->
<svg version="1.1" id="Livello_1" xmlns="http://www.w3.org/2000/svg" xmlns:xlink="http://www.w3.org/1999/xlink" x="0px" y="0px"
	 viewBox="0 0 66 77" style="enable-background:new 0 0 66 77;" xml:space="preserve">
<style type="text/css">
	.st0{fill:#000;}
</style>
<g>
	<g transform="translate(-1052 -598)">
		<g>
			<g>
				<g>
					<g>
						<g>
							<g>
								<path class="st0" d="M1086.1,625.3v6.3c0,0.5,0.3,0.9,0.7,1.1c0.4,0.2,0.9,0.2,1.3-0.1l20.1-14.6c0.3-0.2,0.5-0.6,0.5-0.9
									c0-0.4-0.1-0.7-0.4-1l-20.1-16.7c-0.4-0.3-0.9-0.4-1.3-0.2c-0.4,0.2-0.7,0.6-0.7,1.1v6.1c-6.8,0.1-12.7,1.5-17.7,3.9
									c-4.8,2.4-8.6,5.8-11.1,10c-4.2,7.1-4.2,15.6-0.2,22.9c0.2,0.4,0.6,0.6,1.1,0.6c0.1,0,0.1,0,0.2,0c0.5-0.1,0.9-0.4,1-0.9
									C1063.2,627.9,1074.9,625.4,1086.1,625.3z M1057.9,639.2c-2.3-5.8-1.8-12.3,1.4-17.7c4.8-8.1,15-12.7,27.9-12.7
									c0.7,0,1.2-0.5,1.2-1.2v-4.7l16.9,14l-16.9,12.3v-5.2c0-0.7-0.5-1.2-1.2-1.2c-5.3,0-11.5,0.3-17.1,2.8
									C1064.4,628.3,1060.3,632.9,1057.9,639.2z M1112.9,629.9c-0.2-0.4-0.7-0.7-1.2-0.6c-0.5,0.1-0.9,0.4-1,0.9
									c-3.9,15-15.5,17.5-26.7,17.6v-6.3c0-0.5-0.3-0.9-0.7-1.1c-0.4-0.2-0.9-0.2-1.3,0.1l-20.1,14.6c-0.3,0.2-0.5,0.6-0.5,0.9
									c0,0.4,0.1,0.7,0.4,1l20.1,16.7c0.2,0.2,0.5,0.3,0.8,0.3c0.2,0,0.4,0,0.5-0.1c0.4-0.2,0.7-0.6,0.7-1.1v-6.1
									c6.8-0.1,12.7-1.5,17.7-3.9c4.8-2.4,8.6-5.8,11.1-10C1116.9,645.7,1117,637.2,1112.9,629.9z M1110.6,651.6
									c-4.8,8.1-15,12.7-27.9,12.7c-0.7,0-1.2,0.5-1.2,1.2v4.7l-16.9-14l16.9-12.3v5.2c0,0.7,0.5,1.2,1.2,1.2
									c5.3,0,11.5-0.3,17.1-2.8c5.8-2.6,9.9-7.2,12.3-13.6C1114.3,639.7,1113.9,646.1,1110.6,651.6z"/>
							</g>
						</g>
					</g>
				</g>
			</g>
		</g>
	</g>
</g>
</svg>
