<?xml version="1.0" encoding="utf-8"?>
<!-- Generator: Adobe Illustrator 26.3.0, SVG Export Plug-In . SVG Version: 6.00 Build 0)  -->
<svg version="1.1" id="Livello_1" xmlns="http://www.w3.org/2000/svg" xmlns:xlink="http://www.w3.org/1999/xlink" x="0px" y="0px"
	 viewBox="0 0 72 59" style="enable-background:new 0 0 72 59;" xml:space="preserve">
<style type="text/css">
	.st0{fill:#000;}
</style>
<g>
	<g transform="translate(-1049 -440)">
		<g>
			<g>
				<g>
					<g>
						<g>
							<g>
								<path class="st0" d="M1050.1,441c-0.6,0-1.1,0.5-1.1,1.1s0.5,1.1,1.1,1.1h3.3h5.3h1.2c1.7,0,3.3,0.6,4.6,1.5
									c1,0.7,1.8,1.7,2.4,2.9c0.2,0.5,0.4,0.9,0.5,1.4l2.2,8.4c0.3,1.2,0.9,2.4,1.7,3.4l0.7,0.9l-1.9,1c-0.8,0.4-1.6,0.6-2.4,0.6
									h-1c-0.6-3.6-4.1-6.1-7.7-5.4c-2.8,0.5-4.9,2.7-5.4,5.4h-2.3h-1.1c-0.6,0-1.1,0.5-1.1,1.1v0c0,0.6,0.5,1.1,1.1,1.1h17.5
									c1.2,0,2.4-0.3,3.4-0.8l2.3-1.1l0.9,1.3c1.2,1.6,1.9,3.4,2.2,5.4h-0.2l-9.2,1.5c-2.1,0.4-3.7,2.2-3.7,4.4v0.5
									c0,1.2,1,2.2,2.2,2.2h11.1v5.6c0,1.8-1.5,3.3-3.3,3.3h-23.3c-0.6,0-1.1,0.5-1.1,1.1c0,0.6,0.5,1.1,1.1,1.1h15.5v4.5
									c0,0.8,0.2,1.6,0.6,2.2h-16.2c-0.6,0-1.1,0.5-1.1,1.1c0,0.6,0.5,1.1,1.1,1.1h68.8c0.6,0,1.1-0.5,1.1-1.1
									c0-0.6-0.5-1.1-1.1-1.1h-4.2c1.2-1.2,1.5-3.1,0.5-4.6l0,0.1l-5-8.8l4.8-5.5c1.3-1.3,2.2-2.7,2.6-4.3
									c0.4-1.6,0.2-3.2-0.6-4.8c0,0,0,0,0,0L1110,456c0,0,0,0,0,0c-0.9-1.5-2.3-2.4-3.9-2.6c-1.5-0.2-3.2,0.2-4.5,1.3
									c0,0-0.1,0.1-0.1,0.1l-6.5,7.4h-9.4c-1.9,0-3.4,1.5-3.4,3.4c0,0.3,0.1,0.6,0.3,0.8c0.4,1.4,1.4,2.5,2.9,2.7c0,0,0,0,0,0
									l9.2,0.7c2.3,0.2,4.5-0.7,6.2-2.3l1.3-1.3l4.2,6.7l-5,6.1c-0.3,0.4-0.5,0.8-0.7,1.2c-0.1,0.1-0.3,0.2-0.4,0.4l-1.7,2.8
									c0,0-0.1,0.1-0.1,0.2c-0.8,1.9-0.7,3.8-0.3,5.7c0,0,0,0,0,0.1l1.8,6.4c0,0,0,0.1,0,0.1c0.2,0.4,0.4,0.7,0.7,1h-24.6
									c0.4-0.7,0.6-1.4,0.6-2.2V489c1.4-1.1,2.2-2.7,2.2-4.5v-12.3c0-2.3-0.6-4.6-1.6-6.7h0.5c1.8,0,3.3-1.5,3.3-3.3V460
									c0-1.8-1.5-3.3-3.3-3.3h-6.1l-2.2-8.2c-1.2-4.4-5.1-7.4-9.6-7.5H1050.1z M1096.7,442.1c-3.7,0-6.7,3-6.7,6.7
									c0,3.7,3,6.7,6.7,6.7c3.7,0,6.7-3,6.7-6.7C1103.4,445.1,1100.4,442.1,1096.7,442.1z M1096.7,444.3c2.5,0,4.4,2,4.4,4.5
									c0,2.5-1.9,4.5-4.4,4.5c-2.5,0-4.4-2-4.4-4.5C1092.3,446.3,1094.2,444.3,1096.7,444.3z M1049,447.7v2.2h1.3
									c0.6,0,1.1-0.5,1.1-1.1s-0.5-1.1-1.1-1.1H1049z M1105.1,455.5c0.2,0,0.5,0,0.7,0c0.9,0.1,1.8,0.7,2.3,1.6l6.9,12.8
									c0.6,1.1,0.7,2.2,0.4,3.2c-0.3,1.1-0.9,2.2-2,3.3c0,0,0,0-0.1,0.1l-5.3,6.1c-0.3,0.4-0.4,0.9-0.1,1.3l5.4,9.4c0,0,0,0,0,0.1
									c0.4,0.6,0.2,1.5-0.5,2c-0.8,0.4-1.7,0.2-2.1-0.4c0,0,0,0,0,0l-7.9-10.7c-0.8-1.2-0.8-2.7,0.1-3.8l5.5-6.7
									c0.3-0.4,0.3-0.9,0.1-1.3l-5.4-8.6c-0.3-0.5-1-0.7-1.5-0.3c-0.1,0-0.1,0.1-0.2,0.2l-2.2,2.3c-1.2,1.2-2.8,1.8-4.4,1.6
									l-9.2-0.7h0c-0.6-0.1-1.1-0.6-1.1-1.2c0-0.7,0.5-1.2,1.2-1.2h9.9c0.3,0,0.6-0.1,0.8-0.4l6.8-7.7
									C1103.8,455.8,1104.4,455.5,1105.1,455.5z M1072.6,458.8h5.2c0.6,0,1.1,0.5,1.1,1.1v2.2c0,0.6-0.5,1.1-1.1,1.1h-1.9
									l-2.8-3.7C1072.9,459.3,1072.8,459.1,1072.6,458.8z M1060.4,460c0.3,0,0.6,0.1,0.9,0.1c1.5,0.4,2.7,1.6,3.1,3.1h-8.6
									C1056.4,461.2,1058.3,459.9,1060.4,460z M1076.7,472.4v4.3h-11.1v-0.5c0-1.1,0.8-2,1.9-2.2L1076.7,472.4z M1053.4,474.5
									c-0.6,0-1.1,0.5-1.1,1.1v1.1v1.1c0,0.6,0.5,1.1,1.1,1.1s1.1-0.5,1.1-1.1v-1.1v-1.1C1054.5,475,1054,474.5,1053.4,474.5z
									 M1059,474.5c-0.6,0-1.1,0.5-1.1,1.1v1.1v1.1c0,0.6,0.5,1.1,1.1,1.1s1.1-0.5,1.1-1.1v-1.1v-1.1
									C1060.1,475,1059.6,474.5,1059,474.5z M1050.1,481.2c-0.6,0-1.1,0.5-1.1,1.1c0,0.6,0.5,1.1,1.1,1.1h14.6
									c0.6,0,1.1-0.5,1.1-1.1c0-0.6-0.5-1.1-1.1-1.1H1050.1z M1068.9,481.2c-0.6,0-1.1,0.5-1.1,1.1c0,0.6,0.5,1.1,1.1,1.1h4.7
									c0.6,0,1.1-0.5,1.1-1.1c0-0.6-0.5-1.1-1.1-1.1H1068.9z M1100.5,484.4c0.2,0.4,0.4,0.8,0.6,1.2l1.7,2.3c0,0.1,0,0.2,0,0.3
									l1.6,5.8c0,0,0,0.1,0,0.1c0.3,0.7-0.4,1.6-1.2,1.6c-0.7,0-0.9-0.2-1.2-0.8l-1.8-6.2C1099.9,487.2,1099.9,485.7,1100.5,484.4
									z M1067.9,490.1h6.7v4.5c0,1.2-1,2.2-2.2,2.2h-2.2c-1.2,0-2.2-1-2.2-2.2V490.1z M1106.3,492.8l2.6,3.5
									c0.1,0.2,0.3,0.4,0.4,0.5h-3.6c0.8-0.9,1.2-2.2,0.8-3.4l0,0.1L1106.3,492.8z"/>
							</g>
						</g>
					</g>
				</g>
			</g>
		</g>
	</g>
</g>
</svg>
