<?xml version="1.0" encoding="utf-8"?>
<!-- Generator: Adobe Illustrator 26.3.0, SVG Export Plug-In . SVG Version: 6.00 Build 0)  -->
<svg version="1.1" id="Livello_1" xmlns="http://www.w3.org/2000/svg" xmlns:xlink="http://www.w3.org/1999/xlink" x="0px" y="0px"
	 viewBox="0 0 64 65" style="enable-background:new 0 0 64 65;" xml:space="preserve">
<style type="text/css">
	.st0{fill:#000;}
</style>
<g>
	<g transform="translate(-1053 -774)">
		<g>
			<g>
				<g>
					<g>
						<g>
							<g>
								<path class="st0" d="M1092.1,808.6c-0.8,0-1.5,0.6-1.5,1.4c-0.1,0.8,0.5,1.5,1.3,1.6l3.8,0.5c-1.2,2.4-3.1,4.3-5.6,5.5
									l-0.4-3.8c-0.1-0.4-0.2-0.8-0.6-1c-0.3-0.2-0.7-0.4-1.1-0.3c-0.4,0-0.8,0.2-1,0.6c-0.2,0.3-0.4,0.7-0.3,1.1l0.7,6
									c0.1,0.4,0.3,0.8,0.7,1.1c0.4,0.2,0.8,0.3,1.3,0.2c4.8-1.6,8.6-5.3,10.2-10.2c0.1-0.4,0.1-0.9-0.2-1.3
									c-0.2-0.4-0.6-0.6-1.1-0.7l-6-0.7C1092.2,808.6,1092.1,808.6,1092.1,808.6z"/>
								<path class="st0" d="M1077.1,808.6c-0.1,0-0.2,0-0.3,0l-6,0.7c-0.4,0.1-0.8,0.3-1.1,0.7c-0.2,0.4-0.3,0.8-0.2,1.3
									c1.6,4.8,5.3,8.6,10.2,10.2c0.4,0.1,0.9,0.1,1.3-0.2c0.4-0.2,0.6-0.6,0.7-1.1l0.7-6c0-0.4-0.1-0.8-0.3-1.1
									c-0.2-0.3-0.6-0.5-1-0.6c-0.4,0-0.8,0.1-1.1,0.3c-0.3,0.2-0.5,0.6-0.6,1l-0.4,3.8c-2.4-1.2-4.3-3.1-5.6-5.5l3.8-0.5
									c0.8-0.1,1.4-0.8,1.3-1.5C1078.5,809.3,1077.8,808.7,1077.1,808.6z"/>
								<path class="st0" d="M1088.9,791.4c-0.8,0-1.4,0.5-1.5,1.3s0.3,1.5,1,1.7c3.3,1.1,5.7,3.5,7.2,6.6l-3.8,0.5
									c-0.4,0-0.8,0.2-1,0.5c-0.2,0.3-0.4,0.7-0.3,1.1c0,0.4,0.3,0.8,0.6,1c0.3,0.2,0.7,0.3,1.1,0.3l6-0.7
									c0.4-0.1,0.8-0.3,1.1-0.7c0.2-0.4,0.3-0.8,0.2-1.3c-1.6-4.8-5.3-8.6-10.2-10.2C1089.2,791.5,1089,791.4,1088.9,791.4z"/>
								<path class="st0" d="M1080.1,791.4c-0.1,0-0.3,0-0.4,0.1c-4.8,1.6-8.6,5.3-10.2,10.2c-0.1,0.4-0.1,0.9,0.2,1.3
									c0.2,0.4,0.6,0.6,1.1,0.7l6,0.7c0.4,0.1,0.8,0,1.1-0.3c0.3-0.2,0.5-0.6,0.6-1c0-0.4-0.1-0.8-0.3-1.1c-0.3-0.3-0.6-0.5-1-0.5
									l-3.8-0.5c1.2-2.4,3.1-4.3,5.6-5.5l0.4,3.8c0.1,0.4,0.2,0.8,0.6,1c0.3,0.2,0.7,0.4,1.1,0.3s0.8-0.2,1-0.6
									c0.2-0.3,0.3-0.7,0.3-1.1l-0.7-6C1081.5,792,1080.8,791.4,1080.1,791.4z"/>
								<path class="st0" d="M1084.5,785c-0.1,0-0.2,0-0.3,0c-11.7,0.2-21.2,9.7-21.2,21.5c0,11.9,9.7,21.5,21.5,21.5
									c9.4,0,17.5-6.1,20.4-14.6c0.1-0.4,0.1-0.8,0-1.2c-0.2-0.4-0.5-0.7-0.9-0.8c-0.4-0.1-0.8-0.1-1.2,0.1
									c-0.4,0.2-0.6,0.5-0.8,0.9c-2.5,7.3-9.4,12.6-17.5,12.6c-10.2,0-18.5-8.3-18.5-18.5s8.3-18.5,18.5-18.5
									c10.2,0,18.5,8.3,18.5,18.5c0,0.4,0.2,0.8,0.4,1.1c0.3,0.3,0.7,0.4,1.1,0.4s0.8-0.2,1.1-0.4c0.3-0.3,0.4-0.7,0.4-1.1
									c0-11.7-9.5-21.3-21.2-21.5C1084.7,785,1084.6,785,1084.5,785z"/>
								<path class="st0" d="M1084.5,796.7c-5.4,0-9.8,4.4-9.8,9.9c0,5.4,4.4,9.8,9.8,9.8s9.8-4.4,9.8-9.8
									C1094.3,801.1,1089.9,796.7,1084.5,796.7z M1084.5,799.6c3.8,0,6.9,3.1,6.9,6.9c0,3.8-3,6.9-6.9,6.9s-6.9-3.1-6.9-6.9
									C1077.6,802.7,1080.7,799.6,1084.5,799.6z"/>
								<path class="st0" d="M1084.5,775c-0.1,0-0.2,0-0.4,0c-17.2,0.2-31.1,14.2-31.1,31.5c0,17.4,14.1,31.5,31.5,31.5
									s31.5-14.1,31.5-31.5c0-17.3-13.9-31.3-31.2-31.5C1084.7,775,1084.6,775,1084.5,775z M1084.5,778.2
									c15.6,0,28.3,12.6,28.3,28.3c0,15.6-12.6,28.3-28.3,28.3s-28.3-12.6-28.3-28.3C1056.2,790.9,1068.9,778.2,1084.5,778.2z"/>
								<path class="st0" d="M1084.5,830.8c-0.8,0-1.5,0.7-1.5,1.5v4c0,0.4,0.2,0.8,0.4,1.1c0.3,0.3,0.7,0.4,1.1,0.4
									s0.8-0.2,1.1-0.4c0.3-0.3,0.4-0.7,0.4-1.1v-4c0-0.4-0.2-0.8-0.4-1.1C1085.3,831,1084.9,830.8,1084.5,830.8z"/>
								<path class="st0" d="M1084.5,775.1c-0.8,0-1.5,0.7-1.5,1.5v4c0,0.4,0.2,0.8,0.4,1.1c0.3,0.3,0.7,0.4,1.1,0.4
									s0.8-0.2,1.1-0.4c0.3-0.3,0.4-0.7,0.4-1.1v-4c0-0.4-0.2-0.8-0.4-1.1C1085.3,775.3,1084.9,775.1,1084.5,775.1z"/>
								<path class="st0" d="M1054.6,805c-0.4,0-0.8,0.1-1.1,0.4c-0.3,0.3-0.5,0.7-0.5,1.1c0,0.4,0.2,0.8,0.5,1.1
									c0.3,0.3,0.7,0.4,1.1,0.4h4c0.4,0,0.8-0.1,1.1-0.4c0.3-0.3,0.5-0.7,0.5-1.1c0-0.4-0.2-0.8-0.5-1.1c-0.3-0.3-0.7-0.4-1.1-0.4
									H1054.6z"/>
								<path class="st0" d="M1110.3,805c-0.4,0-0.8,0.1-1.1,0.4s-0.5,0.7-0.5,1.1c0,0.4,0.2,0.8,0.5,1.1s0.7,0.4,1.1,0.4h4.1
									c0.4,0,0.8-0.1,1.1-0.4c0.3-0.3,0.4-0.7,0.4-1.1c0-0.4-0.2-0.8-0.4-1.1c-0.3-0.3-0.7-0.4-1.1-0.4H1110.3z"/>
								<path class="st0" d="M1071.6,827.4c-0.5,0-1,0.3-1.3,0.8l-2,3.5c-0.2,0.3-0.3,0.8-0.2,1.1c0.1,0.4,0.3,0.7,0.7,0.9
									c0.3,0.2,0.8,0.3,1.1,0.1c0.4-0.1,0.7-0.4,0.9-0.7l2-3.5c0.3-0.5,0.3-1,0-1.5C1072.6,827.7,1072.1,827.4,1071.6,827.4z"/>
								<path class="st0" d="M1099.5,779.1c-0.5,0-1,0.3-1.3,0.8l-2,3.5c-0.4,0.7-0.2,1.6,0.5,2c0.7,0.4,1.6,0.2,2-0.5l2-3.5
									c0.3-0.5,0.3-1,0-1.5C1100.5,779.4,1100,779.1,1099.5,779.1z"/>
								<path class="st0" d="M1058.7,790.1c-0.7,0-1.3,0.4-1.5,1.1c-0.2,0.7,0.1,1.4,0.7,1.7l3.5,2c0.3,0.2,0.8,0.3,1.1,0.1
									c0.4-0.1,0.7-0.4,0.9-0.7c0.2-0.3,0.2-0.8,0.1-1.1c-0.1-0.4-0.3-0.7-0.7-0.9l-3.5-2C1059.2,790.1,1058.9,790.1,1058.7,790.1
									z"/>
								<path class="st0" d="M1106.9,817.9c-0.7,0-1.3,0.4-1.5,1.1c-0.2,0.7,0.1,1.4,0.7,1.7l3.5,2c0.3,0.2,0.8,0.3,1.1,0.1
									c0.4-0.1,0.7-0.4,0.9-0.7c0.2-0.3,0.2-0.8,0.1-1.1c-0.1-0.4-0.3-0.7-0.7-0.9l-3.5-2C1107.4,818,1107.2,817.9,1106.9,817.9z"
									/>
								<path class="st0" d="M1062.2,817.9c-0.3,0-0.6,0.1-0.8,0.2l-3.5,2c-0.3,0.2-0.6,0.5-0.7,0.9c-0.1,0.4-0.1,0.8,0.1,1.1
									c0.2,0.3,0.5,0.6,0.9,0.7c0.4,0.1,0.8,0,1.1-0.1l3.5-2c0.6-0.3,0.9-1,0.7-1.7C1063.4,818.4,1062.9,817.9,1062.2,817.9z"/>
								<path class="st0" d="M1110.4,790.1c-0.3,0-0.6,0.1-0.8,0.2l-3.5,2c-0.3,0.2-0.6,0.5-0.7,0.9c-0.1,0.4,0,0.8,0.1,1.1
									c0.2,0.3,0.5,0.6,0.9,0.7c0.4,0.1,0.8,0,1.1-0.1l3.5-2c0.6-0.3,0.9-1,0.7-1.7C1111.7,790.5,1111.1,790.1,1110.4,790.1z"/>
								<path class="st0" d="M1069.5,779.1c-0.5,0-1,0.3-1.2,0.8c-0.3,0.5-0.2,1,0,1.5l2,3.5c0.2,0.3,0.5,0.6,0.9,0.7
									c0.4,0.1,0.8,0,1.1-0.1c0.3-0.2,0.6-0.5,0.7-0.9c0.1-0.4,0-0.8-0.2-1.1l-2-3.5C1070.6,779.4,1070.1,779.1,1069.5,779.1z"/>
								<path class="st0" d="M1097.3,827.4c-0.5,0-1,0.3-1.2,0.8c-0.2,0.5-0.2,1,0,1.5l2,3.5c0.2,0.3,0.5,0.6,0.9,0.7
									c0.4,0.1,0.8,0,1.1-0.1c0.3-0.2,0.6-0.5,0.7-0.9s0-0.8-0.2-1.1l-2-3.5C1098.4,827.6,1097.9,827.3,1097.3,827.4z"/>
								<path class="st0" d="M1081,804.1c-1.3,0-2.4,1.1-2.4,2.4c0,1.3,1.1,2.4,2.4,2.4c1.3,0,2.4-1.1,2.4-2.4
									C1083.4,805.2,1082.3,804.1,1081,804.1z M1081,805.6c0.5,0,0.9,0.4,0.9,0.9s-0.4,0.9-0.9,0.9s-0.9-0.4-0.9-0.9
									S1080.5,805.6,1081,805.6z"/>
								<path class="st0" d="M1088,804.1c-1.3,0-2.4,1.1-2.4,2.4c0,1.3,1.1,2.4,2.4,2.4c1.3,0,2.4-1.1,2.4-2.4
									C1090.4,805.2,1089.3,804.1,1088,804.1z M1088,805.6c0.5,0,0.9,0.4,0.9,0.9s-0.4,0.9-0.9,0.9c-0.5,0-0.9-0.4-0.9-0.9
									S1087.4,805.6,1088,805.6z"/>
								<path class="st0" d="M1084.5,807.6c-1.3,0-2.4,1.1-2.4,2.4c0,1.3,1.1,2.4,2.4,2.4s2.4-1.1,2.4-2.4
									C1086.9,808.7,1085.8,807.6,1084.5,807.6z M1084.5,809.1c0.5,0,0.9,0.4,0.9,0.9c0,0.5-0.4,0.9-0.9,0.9s-0.9-0.4-0.9-0.9
									C1083.6,809.5,1084,809.1,1084.5,809.1z"/>
								<path class="st0" d="M1084.5,800.6c-1.3,0-2.4,1.1-2.4,2.4c0,1.3,1.1,2.4,2.4,2.4s2.4-1.1,2.4-2.4
									C1086.9,801.7,1085.8,800.6,1084.5,800.6z M1084.5,802.1c0.5,0,0.9,0.4,0.9,0.9s-0.4,0.9-0.9,0.9s-0.9-0.4-0.9-0.9
									S1084,802.1,1084.5,802.1z"/>
							</g>
						</g>
					</g>
				</g>
			</g>
		</g>
	</g>
</g>
</svg>
