<?xml version="1.0" encoding="utf-8"?>
<!-- Generator: Adobe Illustrator 27.4.0, SVG Export Plug-In . SVG Version: 6.00 Build 0)  -->
<svg version="1.1" id="Livello_1" xmlns="http://www.w3.org/2000/svg" xmlns:xlink="http://www.w3.org/1999/xlink" x="0px" y="0px"
	 viewBox="0 0 50 50" style="enable-background:new 0 0 50 50;" xml:space="preserve">
<style type="text/css">
	.st0{fill:#FFFFFF;}
</style>
<path class="st0" d="M25,9.2c3.7,0,7.1,0.7,10.2,2c3,1.3,5.4,3,7.2,5.2c1.7,2.1,2.5,4.2,2.5,6.6c0,2.4-0.8,4.6-2.5,6.6
	c-1.7,2.2-4.1,3.9-7.2,5.2c-3.1,1.3-6.5,2-10.2,2c-1.7,0-3.4-0.2-5.1-0.5l-0.9-0.2l-0.8,0.6c-2.1,1.5-4.4,2.6-6.9,3.4
	c0.1-0.1,0.2-0.3,0.4-0.5c0.4-0.5,0.7-1,1-1.6c0.3-0.5,0.5-1,0.7-1.6l0.8-1.9l-1.7-1c-2.3-1.3-4.1-3-5.4-4.9C5.8,26.9,5.2,25,5.2,23
	c0-2.4,0.8-4.6,2.5-6.6c1.7-2.2,4.1-3.9,7.2-5.2C17.9,9.9,21.3,9.2,25,9.2 M25,6.9c-4,0-7.7,0.7-11.1,2.2c-3.4,1.4-6.1,3.4-8.1,5.9
	c-2,2.5-3,5.2-3,8.1c0,2.5,0.7,4.8,2.2,7c1.5,2.2,3.5,4.1,6.1,5.6c-0.2,0.5-0.4,1-0.6,1.4c-0.2,0.4-0.5,0.8-0.8,1.2
	c-0.3,0.4-0.5,0.7-0.7,0.9c-0.2,0.2-0.4,0.5-0.8,0.9c-0.4,0.4-0.6,0.7-0.7,0.8c0,0,0,0,0,0c0,0-0.1,0-0.1,0.1
	c-0.1,0.1-0.1,0.2-0.1,0.2c0,0,0,0,0,0c0,0,0,0,0,0c0,0-0.1,0.1-0.1,0.2C7.1,41.4,7,41.4,7,41.4L7,41.6c0,0.1-0.1,0.1-0.1,0.2
	c0,0.1,0,0.1,0,0.2c0,0.1,0,0.1,0,0.2c0,0.3,0.2,0.5,0.4,0.7c0.2,0.2,0.4,0.3,0.6,0.3H8c1-0.1,1.9-0.3,2.7-0.5
	c3.2-0.8,6.1-2.2,8.7-4c1.9,0.3,3.7,0.5,5.5,0.5c0,0,0,0,0,0c4,0,7.7-0.7,11.1-2.2c3.4-1.4,6.1-3.4,8.1-5.9c2-2.5,3-5.2,3-8.1
	c0-2.9-1-5.6-3-8.1c-2-2.5-4.7-4.4-8.1-5.9C32.7,7.6,29,6.9,25,6.9L25,6.9z"/>
</svg>
