<?xml version="1.0" encoding="utf-8"?>
<!-- Generator: Adobe Illustrator 26.3.0, SVG Export Plug-In . SVG Version: 6.00 Build 0)  -->
<svg version="1.1" id="Livello_1" xmlns="http://www.w3.org/2000/svg" xmlns:xlink="http://www.w3.org/1999/xlink" x="0px" y="0px"
	 viewBox="0 0 83 59" style="enable-background:new 0 0 83 59;" xml:space="preserve">
<style type="text/css">
	.st0{fill:#000;}
</style>
<g>
	<g transform="translate(-129 -871)">
		<g>
			<g>
				<g>
					<g>
						<g>
							<g>
								<path class="st0" d="M191.8,911.2c-0.3,0-0.6-0.1-0.8-0.3l-8-7.9c-0.4-0.4-0.4-1.1,0-1.6c0.4-0.4,1.2-0.4,1.6,0l8,7.9
									c0.4,0.4,0.4,1.1,0,1.6C192.3,911,192,911.2,191.8,911.2"/>
								<g>
									<g>
										<path class="st0" d="M182.1,874.2c-14.7,0-26.7,11.8-26.7,26.3c0,14.5,12,26.3,26.7,26.3c14.7,0,26.7-11.8,26.7-26.3
											C208.7,886,196.8,874.2,182.1,874.2z M182.1,929c-3.9,0-7.7-0.8-11.3-2.2c-3.4-1.4-6.5-3.5-9.2-6.1
											c-2.7-2.6-4.7-5.7-6.2-9.1c-1.5-3.5-2.3-7.2-2.3-11.1s0.8-7.6,2.3-11.1c1.5-3.4,3.5-6.4,6.2-9.1c2.7-2.6,5.8-4.7,9.2-6.1
											c3.6-1.5,7.4-2.2,11.3-2.2c3.9,0,7.7,0.8,11.3,2.2c3.4,1.4,6.5,3.5,9.2,6.1c2.7,2.6,4.7,5.7,6.2,9.1
											c1.5,3.5,2.3,7.2,2.3,11.1s-0.8,7.6-2.3,11.1c-1.5,3.4-3.5,6.4-6.2,9.1c-2.7,2.6-5.8,4.7-9.2,6.1
											C189.8,928.2,186,929,182.1,929"/>
									</g>
								</g>
								<path class="st0" d="M161.8,882.8h-16.6c-0.6,0-1.1-0.5-1.1-1.1c0-0.6,0.5-1.1,1.1-1.1h16.6c0.6,0,1.1,0.5,1.1,1.1
									C163,882.3,162.5,882.8,161.8,882.8"/>
								<path class="st0" d="M155.9,892.2H138c-0.6,0-1.1-0.5-1.1-1.1s0.5-1.1,1.1-1.1h17.9c0.6,0,1.1,0.5,1.1,1.1
									S156.6,892.2,155.9,892.2"/>
								<path class="st0" d="M154.3,901.6h-14.5c-0.6,0-1.1-0.5-1.1-1.1c0-0.6,0.5-1.1,1.1-1.1h14.5c0.6,0,1.1,0.5,1.1,1.1
									C155.4,901.1,154.9,901.6,154.3,901.6"/>
								<path class="st0" d="M134.1,901.6h-4c-0.6,0-1.1-0.5-1.1-1.1c0-0.6,0.5-1.1,1.1-1.1h4c0.6,0,1.1,0.5,1.1,1.1
									C135.2,901.1,134.7,901.6,134.1,901.6"/>
								<path class="st0" d="M155.9,911H138c-0.6,0-1.1-0.5-1.1-1.1c0-0.6,0.5-1.1,1.1-1.1h17.9c0.6,0,1.1,0.5,1.1,1.1
									C157.1,910.5,156.6,911,155.9,911"/>
								<path class="st0" d="M161.8,920.4h-16.6c-0.6,0-1.1-0.5-1.1-1.1c0-0.6,0.5-1.1,1.1-1.1h16.6c0.6,0,1.1,0.5,1.1,1.1
									C163,919.9,162.5,920.4,161.8,920.4"/>
								<path class="st0" d="M182.1,879.1c-12,0-21.8,9.6-21.8,21.4c0,11.8,9.8,21.4,21.8,21.4s21.8-9.6,21.8-21.4
									C203.8,888.7,194.1,879.1,182.1,879.1z M182.1,924.1c-3.2,0-6.4-0.6-9.3-1.9c-2.9-1.2-5.4-2.9-7.6-5.1
									c-2.2-2.2-3.9-4.7-5.1-7.5c-1.3-2.9-1.9-6-1.9-9.2c0-3.2,0.6-6.3,1.9-9.2c1.2-2.8,2.9-5.3,5.1-7.5c2.2-2.2,4.8-3.9,7.6-5.1
									c3-1.2,6.1-1.9,9.3-1.9c3.2,0,6.4,0.6,9.3,1.9c2.9,1.2,5.4,2.9,7.6,5.1c2.2,2.2,3.9,4.7,5.1,7.5c1.3,2.9,1.9,6,1.9,9.2
									c0,3.2-0.6,6.3-1.9,9.2c-1.2,2.8-2.9,5.3-5.1,7.5c-2.2,2.2-4.8,3.9-7.6,5.1C188.5,923.5,185.3,924.1,182.1,924.1"/>
								<path class="st0" d="M182.1,899.3c-0.7,0-1.2,0.5-1.2,1.2c0,0.7,0.5,1.2,1.2,1.2c0.7,0,1.2-0.5,1.2-1.2
									C183.3,899.8,182.7,899.3,182.1,899.3z M182.1,903.9c-1.9,0-3.5-1.5-3.5-3.4c0-1.9,1.6-3.4,3.5-3.4c1.9,0,3.5,1.5,3.5,3.4
									C185.5,902.4,184,903.9,182.1,903.9"/>
								<path class="st0" d="M182.1,899.3c-0.6,0-1.1-0.5-1.1-1.1v-8.7c0-0.6,0.5-1.1,1.1-1.1c0.6,0,1.1,0.5,1.1,1.1v8.7
									C183.2,898.8,182.7,899.3,182.1,899.3"/>
								<path class="st0" d="M182.1,882.5c-0.6,0-1.1-0.5-1.1-1.1V878c0-0.6,0.5-1.1,1.1-1.1c0.6,0,1.1,0.5,1.1,1.1v3.4
									C183.2,882,182.7,882.5,182.1,882.5"/>
								<path class="st0" d="M168.3,888.1c-0.3,0-0.6-0.1-0.8-0.3l-2.5-2.4c-0.4-0.4-0.4-1.1,0-1.6c0.4-0.4,1.2-0.4,1.6,0l2.5,2.4
									c0.4,0.4,0.4,1.1,0,1.6C168.9,888,168.6,888.1,168.3,888.1"/>
								<path class="st0" d="M162.7,901.6h-3.5c-0.6,0-1.1-0.5-1.1-1.1s0.5-1.1,1.1-1.1h3.5c0.6,0,1.1,0.5,1.1,1.1
									S163.3,901.6,162.7,901.6"/>
								<path class="st0" d="M165.9,917.5c-0.3,0-0.6-0.1-0.8-0.3c-0.4-0.4-0.4-1.1,0-1.6l2.5-2.4c0.4-0.4,1.2-0.4,1.6,0
									c0.4,0.4,0.4,1.1,0,1.6l-2.5,2.4C166.5,917.4,166.2,917.5,165.9,917.5"/>
								<path class="st0" d="M182.1,924.1c-0.6,0-1.1-0.5-1.1-1.1v-3.4c0-0.6,0.5-1.1,1.1-1.1c0.6,0,1.1,0.5,1.1,1.1v3.4
									C183.2,923.6,182.7,924.1,182.1,924.1"/>
								<path class="st0" d="M198.2,917.5c-0.3,0-0.6-0.1-0.8-0.3l-2.5-2.4c-0.4-0.4-0.4-1.1,0-1.6c0.4-0.4,1.2-0.4,1.6,0l2.5,2.4
									c0.4,0.4,0.4,1.1,0,1.6C198.8,917.4,198.5,917.5,198.2,917.5"/>
								<path class="st0" d="M204.9,901.6h-3.5c-0.6,0-1.1-0.5-1.1-1.1s0.5-1.1,1.1-1.1h3.5c0.6,0,1.1,0.5,1.1,1.1
									S205.6,901.6,204.9,901.6"/>
								<path class="st0" d="M195.8,888.1c-0.3,0-0.6-0.1-0.8-0.3c-0.4-0.4-0.4-1.1,0-1.6l2.5-2.4c0.4-0.4,1.2-0.4,1.6,0
									c0.4,0.4,0.4,1.1,0,1.6l-2.5,2.4C196.4,888,196.1,888.1,195.8,888.1"/>
							</g>
						</g>
					</g>
				</g>
			</g>
		</g>
	</g>
</g>
</svg>
