<?xml version="1.0" encoding="utf-8"?>
<!-- Generator: Adobe Illustrator 26.3.0, SVG Export Plug-In . SVG Version: 6.00 Build 0)  -->
<svg version="1.1" id="Livello_1" xmlns="http://www.w3.org/2000/svg" xmlns:xlink="http://www.w3.org/1999/xlink" x="0px" y="0px"
	 viewBox="0 0 68 69" style="enable-background:new 0 0 68 69;" xml:space="preserve">
<style type="text/css">
	.st0{fill:#000;}
</style>
<g>
	<g transform="translate(-1051 -100)">
		<g>
			<g>
				<g>
					<g>
						<g>
							<g>
								<path class="st0" d="M1089.8,109.9h-22.3c-1.2,0-2.1,0.9-2.1,2.1v13.6c0,1.2,1,2.1,2.1,2.1h22.3c1.2,0,2.1-0.9,2.1-2.1V112
									C1091.9,110.8,1091,109.9,1089.8,109.9z M1090.8,125.6c0,0.6-0.5,1-1.1,1h-22.3c-0.6,0-1.1-0.5-1.1-1V112c0-0.6,0.5-1,1.1-1
									h22.3c0.6,0,1.1,0.5,1.1,1V125.6z"/>
								<path class="st0" d="M1089.8,129.8h-22.3c-1.2,0-2.1,0.9-2.1,2.1v2.1c0,1.2,1,2.1,2.1,2.1h22.3c1.2,0,2.1-0.9,2.1-2.1v-2.1
									C1091.9,130.7,1091,129.8,1089.8,129.8z M1067.5,135c-0.6,0-1.1-0.5-1.1-1v-2.1c0-0.6,0.5-1,1.1-1h10.6v4.2H1067.5z
									 M1090.8,134c0,0.6-0.5,1-1.1,1h-10.6v-4.2h10.6c0.6,0,1.1,0.5,1.1,1V134z"/>
								<path class="st0" d="M1069.1,131.9c-0.3,0-0.5,0.2-0.5,0.5v1c0,0.3,0.2,0.5,0.5,0.5c0.3,0,0.5-0.2,0.5-0.5v-1
									C1069.6,132.1,1069.4,131.9,1069.1,131.9z"/>
								<path class="st0" d="M1072.3,131.9c-0.3,0-0.5,0.2-0.5,0.5v1c0,0.3,0.2,0.5,0.5,0.5c0.3,0,0.5-0.2,0.5-0.5v-1
									C1072.8,132.1,1072.6,131.9,1072.3,131.9z"/>
								<path class="st0" d="M1075.4,131.9c-0.3,0-0.5,0.2-0.5,0.5v1c0,0.3,0.2,0.5,0.5,0.5s0.5-0.2,0.5-0.5v-1
									C1076,132.1,1075.8,131.9,1075.4,131.9z"/>
								<path class="st0" d="M1081.8,131.9c-0.3,0-0.5,0.2-0.5,0.5v1c0,0.3,0.2,0.5,0.5,0.5s0.5-0.2,0.5-0.5v-1
									C1082.3,132.1,1082.1,131.9,1081.8,131.9z"/>
								<path class="st0" d="M1085,131.9c-0.3,0-0.5,0.2-0.5,0.5v1c0,0.3,0.2,0.5,0.5,0.5c0.3,0,0.5-0.2,0.5-0.5v-1
									C1085.5,132.1,1085.3,131.9,1085,131.9z"/>
								<path class="st0" d="M1088.2,131.9c-0.3,0-0.5,0.2-0.5,0.5v1c0,0.3,0.2,0.5,0.5,0.5c0.3,0,0.5-0.2,0.5-0.5v-1
									C1088.7,132.1,1088.5,131.9,1088.2,131.9z"/>
								<path class="st0" d="M1078,138.9c-0.2-0.5-0.3-0.8-0.4-0.8c-0.2,0-0.3,0.3-0.4,0.8c-0.4,1.4-0.8,2.7-1.4,3.9
									c-1.4,3.3-4.3,6.3-4,10.2c0.3,3.3,3.2,5,6.1,5c2.4,0,4.7-1.2,5.6-3.5c1.9-4.8-2.7-8.5-4.4-12.5
									C1078.7,141.1,1078.4,140.3,1078,138.9z M1082.5,154.2c-0.8,2.1-2.9,2.8-4.7,2.8c-2.3,0-4.8-1.3-5-4.1
									c-0.2-2.4,1-4.4,2.3-6.5c0.6-1,1.2-2,1.6-3.1c0.3-0.7,0.6-1.5,0.8-2.1c0.2,0.5,0.4,0.9,0.5,1.3c0.5,1.3,1.3,2.5,2.1,3.7
									C1082,148.8,1083.6,151.3,1082.5,154.2z"/>
								<path class="st0" d="M1077.3,154c-1.2-0.8-1.4-2.2-1.3-3.2c0-0.3-0.2-0.5-0.5-0.6c-0.3,0-0.5,0.2-0.6,0.5
									c-0.2,1.8,0.5,3.3,1.8,4.1c0.1,0.1,0.2,0.1,0.3,0.1c0.2,0,0.3-0.1,0.4-0.3C1077.6,154.4,1077.6,154.1,1077.3,154z"/>
								<path class="st0" d="M1118.7,120.5l-10.9-10.8c-0.4-0.4-1.1-0.4-1.5,0c-0.4,0.4-0.4,1,0,1.5l5.1,5.1c0,0-0.1,0-0.1,0.1
									l-1.4,1.4c-0.7,0.8-0.7,2,0.1,2.8l4.3,4.1c0.4,0.4,0.9,0.6,1.4,0.6c0.4,0,0.9-0.2,1.2-0.4V148c0,2-0.6,3.8-1.9,4.9
									c-1.1,1-2.5,1.6-4.2,1.6c-3.2,0-6.5-2.2-6.5-6.4v-25.1c0-0.6-0.5-1-1.1-1h-4.4v-16.7c0-2.3-1.9-4.2-4.2-4.2h-31.9
									c-2.3,0-4.2,1.9-4.2,4.2v55.5h-3.2c-2.3,0-4.2,1.9-4.2,4.2v3.1h56.3v-3.1c0-2.3-1.9-4.2-4.2-4.2h-4.2V124h3.3v24
									c0,5.5,4.5,8.5,8.7,8.5c2.2,0,4.2-0.7,5.6-2.1c1.6-1.6,2.6-3.8,2.6-6.4v-26.7C1119,120.9,1118.9,120.6,1118.7,120.5z
									 M1105.2,164.9v1h-52.1v-1c0-1.2,1-2.1,2.1-2.1h47.8C1104.2,162.8,1105.2,163.7,1105.2,164.9z M1060.6,160.7v-55.5
									c0-1.2,1-2.1,2.1-2.1h31.9c1.2,0,2.1,0.9,2.1,2.1v55.5H1060.6z M1115.7,124c-0.2,0-0.5-0.1-0.6-0.3l-4.2-4.1
									c-0.4-0.4-0.4-0.9,0-1.3l1.4-1.4c0.2-0.2,0.4-0.3,0.6-0.3s0.5,0.1,0.6,0.3l4.2,4.1c0.4,0.4,0.4,0.9,0,1.3l-1.4,1.4
									C1116.1,123.9,1115.9,124,1115.7,124z"/>
							</g>
						</g>
					</g>
				</g>
			</g>
		</g>
	</g>
</g>
</svg>
