<?xml version="1.0" encoding="utf-8"?>
<!-- Generator: Adobe Illustrator 26.3.0, SVG Export Plug-In . SVG Version: 6.00 Build 0)  -->
<svg version="1.1" id="Livello_1" xmlns="http://www.w3.org/2000/svg" xmlns:xlink="http://www.w3.org/1999/xlink" x="0px" y="0px"
	 viewBox="0 0 64 65" style="enable-background:new 0 0 64 65;" xml:space="preserve">
<style type="text/css">
	.st0{fill:#000;}
</style>
<g>
	<g transform="translate(-1053 -269)">
		<g>
			<g>
				<g>
					<g>
						<g>
							<g>
								<path class="st0" d="M1097.5,328.5c-0.5-0.2-1-0.6-1.2-1.1c-0.2-0.5-0.3-1.1-0.1-1.6l0.7-2l4,1.4l-0.7,2
									C1099.8,328.3,1098.6,328.8,1097.5,328.5z M1068.5,315.8c-0.2,0.5-0.6,0.9-1.1,1.2c-0.5,0.2-1.1,0.3-1.6,0.1
									c-1.1-0.4-1.7-1.6-1.3-2.7l0.7-2l4,1.4L1068.5,315.8z M1096.6,317.1l2.3-2.5l5.3,1.9l-1.1,2.9L1096.6,317.1z M1073.8,305.6
									l0.1,3.4l-6.5-2.3l1.1-2.9L1073.8,305.6z M1089.8,314.2c-0.2-0.5-0.7-0.9-1.2-1.1l-5.9-2.1c-0.5-0.2-1.1-0.2-1.6,0.1
									c-0.5,0.2-0.9,0.7-1.1,1.2l-1.1,2.9l-12.9-4.6l0.7-2l7.9,2.8c0.1,0,0.2,0.1,0.4,0.1c0.2,0,0.4-0.1,0.6-0.2
									c0.3-0.2,0.4-0.5,0.4-0.9l-0.1-4.1l20.8,7.5l-2.7,3c-0.2,0.3-0.3,0.6-0.2,0.9c0.1,0.3,0.3,0.6,0.7,0.7l7.9,2.8l-0.7,2
									l-12.9-4.6l1.1-2.9C1090,315.2,1090,314.7,1089.8,314.2z M1086.8,318l-5.9-2.1l1.1-2.9l5.9,2.1L1086.8,318z M1072.9,300.8
									l29.7,10.7c1.3,0.5,2.1,1.7,2.1,3l-35.3-12.7C1070.2,300.8,1071.6,300.4,1072.9,300.8z M1080.5,292.5c0.8-1.1,2.3-1.5,3.6-1
									l16.1,5.8c0.1,0.1,0.3,0.1,0.4,0.2l-13.5,6.2l-12.1-4.3L1080.5,292.5z M1102.1,303.1l-0.2,5.9l-7.1-2.6L1102.1,303.1z
									 M1102,299.1c0.1,0.4,0.2,0.8,0.2,1.2l0,0.5l-10.2,4.7l-2.2-0.8L1102,299.1z M1104.1,309.9l0.3-9.5c0.1-2.2-1.3-4.3-3.5-5
									l-16.1-5.8c-2.1-0.8-4.5-0.1-5.9,1.7l-6,7.4c-2.5-0.5-5.1,0.9-6,3.3l-3.2,8.8l-1.1,2.9c-0.8,2.2,0.3,4.5,2.5,5.3
									c0.5,0.2,1,0.3,1.4,0.3c0.6,0,1.2-0.1,1.8-0.4c1-0.5,1.8-1.3,2.2-2.3l0.7-2l12.4,4.5v6.4h2.1v-5.7l9.2,3.3l-0.7,2
									c-0.4,1-0.3,2.2,0.1,3.2c0.5,1,1.3,1.8,2.4,2.1c0.5,0.2,1,0.3,1.4,0.3c1.7,0,3.3-1,4-2.7l1.1-2.9l3.2-8.8
									C1107.4,313.8,1106.3,311.1,1104.1,309.9"/>
								<path class="st0" d="M1117,279.4l-1.4-1.6c-3.8,3.2-6.5,7.4-8.1,12.1c-1.6,4.8-1.7,9.9-0.5,14.8l7.2,28.3l2-0.5l-7.2-28.3
									C1106.8,295.1,1109.8,285.6,1117,279.4"/>
								<path class="st0" d="M1089.4,273.3c1-0.5,2.1-1,3.1-1.4l-0.8-1.9c-1.1,0.4-2.2,0.9-3.2,1.4c-14.1,6.8-24.4,19.3-28.3,34.3
									l-7,26.8l2,0.5l7-26.8C1065.9,291.9,1075.9,279.9,1089.4,273.3"/>
								<path class="st0" d="M1105,276.7l-1-1.8c-2.1,1.1-3.9,2.2-5.5,3.2l1.2,1.7C1101.2,278.8,1103,277.8,1105,276.7"/>
								<path class="st0" d="M1090.3,284.9l1.6,1.4c1.3-1.4,2.7-2.8,4.4-4.1l-1.3-1.6C1093.2,282,1091.7,283.4,1090.3,284.9"/>
								<path class="st0" d="M1083.6,332.7h2.1v-3.1h-2.1V332.7"/>
								<path class="st0" d="M1059.3,292.7l1.5-1.5l-4.8-4.7l5.1-1.7c0.5-0.2,0.8-0.7,0.7-1.3l-1.8-6.3l6.4,1.7
									c0.5,0.1,1.1-0.2,1.3-0.7l1.7-5l4.8,4.7l1.5-1.5l-6-5.9c-0.3-0.3-0.6-0.4-1-0.3c-0.4,0.1-0.6,0.3-0.8,0.7l-1.9,5.7l-7.2-1.9
									c-0.4-0.1-0.8,0-1,0.3c-0.3,0.3-0.4,0.6-0.3,1l2,7.1l-5.8,1.9c-0.3,0.1-0.6,0.4-0.7,0.7c-0.1,0.4,0,0.7,0.3,1L1059.3,292.7"
									/>
							</g>
						</g>
					</g>
				</g>
			</g>
		</g>
	</g>
</g>
</svg>
