<?xml version="1.0" encoding="utf-8"?>
<!-- Generator: Adobe Illustrator 26.3.0, SVG Export Plug-In . SVG Version: 6.00 Build 0)  -->
<svg version="1.1" id="Livello_1" xmlns="http://www.w3.org/2000/svg" xmlns:xlink="http://www.w3.org/1999/xlink" x="0px" y="0px"
	 viewBox="0 0 85 80" style="enable-background:new 0 0 85 80;" xml:space="preserve">
<style type="text/css">
	.st0{fill-rule:evenodd;clip-rule:evenodd;fill:#000;}
</style>
<g>
	<g transform="translate(-843 -341)">
		<g>
			<g>
				<g>
					<g>
						<g>
							<g>
								<path class="st0" d="M879.4,372.3h17.9l-4.7,23.5c0,0,1.9,3,5.3-0.4l2.4,1.8c-4.5,8.9-22.1,9.1-19.6-4.5l2.9-15.6l-4.3-1.2
									V372.3z M889.9,342c21,0,38.1,17,38.1,38c0,21-17,38-38.1,38c-5,0-9.9-1-14.4-2.8c-7.4,4.4-16.4,4.8-25.8,2l-5.8-1.7
									l5.6-2.1c0,0,6.6-2.4,10.1-10.2c-5.1-6.7-7.9-14.8-7.9-23.2C851.9,359,868.9,342,889.9,342L889.9,342z M889.9,346
									c-18.8,0-34.1,15.2-34.1,34c0,7.9,2.7,15.5,7.7,21.6l0.7,0.9l-0.4,1.1c-2.1,5.4-5.5,8.8-8.3,10.8c7,1.2,13.4,0.3,18.6-3.2
									l0.9-0.6l1,0.4c4.3,1.9,9,2.9,13.8,2.9c18.8,0,34.1-15.2,34.1-34C924,361.2,908.8,346,889.9,346L889.9,346z M890.8,356.6
									c3.5,0,6.3,2.8,6.3,6.3s-2.8,6.3-6.3,6.3c-3.5,0-6.3-2.8-6.3-6.3S887.4,356.6,890.8,356.6z"/>
							</g>
						</g>
					</g>
				</g>
			</g>
		</g>
	</g>
</g>
</svg>
