<?xml version="1.0" encoding="utf-8"?>
<!-- Generator: Adobe Illustrator 25.2.1, SVG Export Plug-In . SVG Version: 6.00 Build 0)  -->
<svg version="1.1" id="Livello_1" xmlns="http://www.w3.org/2000/svg" xmlns:xlink="http://www.w3.org/1999/xlink" x="0px" y="0px"
	 viewBox="0 0 50 50" style="enable-background:new 0 0 50 50;" xml:space="preserve">
<style type="text/css">
	.st0{fill:#F4F8F9;}
	.st1{fill:#89BA17;}
	.st2{fill:#FFFFFF;}
	.st3{fill:#8D9498;}
	.st4{fill-rule:evenodd;clip-rule:evenodd;fill:#FFFFFF;}
	.st5{fill:none;stroke:#606060;stroke-width:5.000000e-02;stroke-miterlimit:10;}
	.st6{fill:#0099B3;}
	.st7{fill:#00ABAB;}
	.st8{fill:#1D3176;}
	.st9{fill:#86BC25;}
	.st10{fill:none;stroke:#000000;stroke-width:0.15;stroke-miterlimit:10;}
	.st11{fill-rule:evenodd;clip-rule:evenodd;fill:#1D1D1D;}
	.st12{fill:none;stroke:#8D9498;stroke-width:0.15;stroke-miterlimit:10;}
	.st13{fill:#FFFFFF;stroke:#606060;stroke-width:5.000000e-02;stroke-miterlimit:10;}
	.st14{fill:none;stroke:#FFFFFF;stroke-miterlimit:10;}
	.st15{fill-rule:evenodd;clip-rule:evenodd;fill:white;}
</style>
<g>
	<path class="st15" d="M46.5,5.5h-17v-4l-28,4.3v37.8l28,4.8v-5.9h17c1.1,0,2-0.8,2-1.8V7.4C48.5,6.4,47.6,5.5,46.5,5.5z M20.9,33.1
		l-3.8-0.3l-2.6-6.8L12,32.6l-3.5-0.3l4.1-7.8l-3.8-8.4l3.6-0.2l2.3,6.2l2.7-6.5l3.6-0.2l-4.4,8.8L20.9,33.1z M46.7,41H29.4l0-3.2
		h4.2v-3.7h-4.2l0-2.2h4.2v-3.7h-4.3l0-2.2h4.3v-3.7h-4.3v-2.2h4.3v-3.7h-4.3v-2.2h4.3v-3.7h-4.3V7.3h17.5V41z"/>
	<rect x="35.9" y="10.6" class="st15" width="7.3" height="3.7"/>
	<rect x="35.9" y="16.5" class="st15" width="7.3" height="3.7"/>
	<rect x="35.9" y="22.4" class="st15" width="7.3" height="3.7"/>
	<rect x="35.9" y="28.3" class="st15" width="7.3" height="3.7"/>
	<rect x="35.9" y="34.1" class="st15" width="7.3" height="3.7"/>
</g>
</svg>
