<?xml version="1.0" encoding="utf-8"?>
<!-- Generator: Adobe Illustrator 25.2.1, SVG Export Plug-In . SVG Version: 6.00 Build 0)  -->
<svg version="1.1" id="Livello_1" xmlns="http://www.w3.org/2000/svg" xmlns:xlink="http://www.w3.org/1999/xlink" x="0px" y="0px"
	 viewBox="0 0 50 50" style="enable-background:new 0 0 50 50;" xml:space="preserve">
<style type="text/css">
	.st0{fill:#F4F8F9;}
	.st1{fill:#89BA17;}
	.st2{fill:#FFFFFF;}
	.st3{fill:#8D9498;}
	.st4{fill-rule:evenodd;clip-rule:evenodd;fill:#FFFFFF;}
	.st5{fill:none;stroke:#606060;stroke-width:5.000000e-02;stroke-miterlimit:10;}
	.st6{fill:#0099B3;}
	.st7{fill:#00ABAB;}
	.st8{fill:#1D3176;}
	.st9{fill:#86BC25;}
	.st10{fill:none;stroke:#000000;stroke-width:0.15;stroke-miterlimit:10;}
	.st11{fill-rule:evenodd;clip-rule:evenodd;fill:#1D1D1D;}
	.st12{fill:none;stroke:#8D9498;stroke-width:0.15;stroke-miterlimit:10;}
	.st13{fill:#FFFFFF;stroke:#606060;stroke-width:5.000000e-02;stroke-miterlimit:10;}
	.st14{fill:none;stroke:#FFFFFF;stroke-miterlimit:10;}
	.st15{fill-rule:evenodd;clip-rule:evenodd;}
	.st16{fill:#1D1D1B;}
</style>
<path class="st16" d="M39.4,5.4C39,4,38,2.9,36.8,2.3l-2.5-1.2c-2.6-1.3-5.9-0.2-7.3,2.4L25.8,6c0,0,0,0,0,0c0,0,0,0,0,0L10.4,35.9
	c-0.1,0.1-0.1,0.3-0.1,0.5l0.2,5.6c0,0,0,0.1,0,0.1l0.2,6.3c0,0.1,0,0.2,0.1,0.3c0.1,0.3,0.3,0.5,0.5,0.7c0.1,0.1,0.3,0.1,0.4,0.1
	c0.2,0,0.4-0.1,0.6-0.2l10-7.1c0.1-0.1,0.2-0.2,0.3-0.4L37.9,12c0,0,0,0,0,0l1.2-2.4C39.8,8.2,39.9,6.8,39.4,5.4z M28.8,4.4
	c0.9-1.7,2.9-2.4,4.6-1.6l2.5,1.2c0.8,0.4,1.4,1.1,1.7,1.9c0.3,0.9,0.2,1.8-0.2,2.6l-0.8,1.6l-4.3-2.1L28,6L28.8,4.4z M12.6,46.5
	l-0.1-2.8l2.4,1.2L12.6,46.5z M16.8,43.7l-4.3-2.2l-0.1-3.7l7.4,3.7L16.8,43.7z M21.2,40.1c-0.1-0.1-0.2-0.2-0.3-0.3l-8-4
	c0,0,0,0-0.1,0l14.3-28l4.3,2.1l4.3,2.1L21.2,40.1z"/>
</svg>
