<?xml version="1.0" encoding="utf-8"?>
<!-- Generator: Adobe Illustrator 25.2.1, SVG Export Plug-In . SVG Version: 6.00 Build 0)  -->
<svg version="1.1" id="Livello_1" xmlns="http://www.w3.org/2000/svg" xmlns:xlink="http://www.w3.org/1999/xlink" x="0px" y="0px"
	 viewBox="0 0 50 50" style="enable-background:new 0 0 50 50;" xml:space="preserve">
<style type="text/css">
	.st0{fill:#F4F8F9;}
	.st1{fill:#89BA17;}
	.st2{fill:#FFFFFF;}
	.st3{fill:#8D9498;}
	.st4{fill-rule:evenodd;clip-rule:evenodd;fill:#FFFFFF;}
	.st5{fill:none;stroke:#606060;stroke-width:5.000000e-02;stroke-miterlimit:10;}
	.st6{fill:#0099B3;}
	.st7{fill:#00ABAB;}
	.st8{fill:#1D3176;}
	.st9{fill:#86BC25;}
	.st10{fill:none;stroke:#000000;stroke-width:0.15;stroke-miterlimit:10;}
	.st11{fill-rule:evenodd;clip-rule:evenodd;fill:#1D1D1D;}
	.st12{fill:none;stroke:#8D9498;stroke-width:0.15;stroke-miterlimit:10;}
	.st13{fill:#FFFFFF;stroke:#606060;stroke-width:5.000000e-02;stroke-miterlimit:10;}
	.st14{fill:none;stroke:#FFFFFF;stroke-miterlimit:10;}
	.st15{fill-rule:evenodd;clip-rule:evenodd;}
</style>
<g>
	<path d="M1.5,25c0-3.7,2.5-6.2,6.1-6.2c3.5,0,5.9,2.5,6,6.2c0,3.6-2.4,6.2-6.1,6.2C4,31.2,1.5,28.6,1.5,25z"/>
	<path d="M19,25c0-3.7,2.5-6.2,6.1-6.2c3.5,0,5.9,2.5,6,6.2c0,3.6-2.4,6.2-6.1,6.2C21.5,31.2,19,28.6,19,25z"/>
	<path d="M36.5,25c0-3.7,2.5-6.2,6.1-6.2c3.5,0,5.9,2.5,6,6.2c0,3.6-2.4,6.2-6.1,6.2C39,31.2,36.5,28.6,36.5,25z"/>
</g>
</svg>
