<?xml version="1.0" encoding="utf-8"?>
<!-- Generator: Adobe Illustrator 25.2.1, SVG Export Plug-In . SVG Version: 6.00 Build 0)  -->
<svg version="1.1" id="Livello_1" xmlns="http://www.w3.org/2000/svg" xmlns:xlink="http://www.w3.org/1999/xlink" x="0px" y="0px"
	 viewBox="0 0 50 50" style="enable-background:new 0 0 50 50;" xml:space="preserve">
<style type="text/css">
	.st0{fill:#F4F8F9;}
	.st1{fill:#FFFFFF;}
	.st2{fill:#FFFFFF;}
	.st3{fill:#8D9498;}
	.st4{fill-rule:evenodd;clip-rule:evenodd;fill:#FFFFFF;}
	.st5{fill:none;stroke:#606060;stroke-width:5.000000e-02;stroke-miterlimit:10;}
	.st6{fill:#0099B3;}
	.st7{fill:#00ABAB;}
	.st8{fill:#1D3176;}
	.st9{fill:#86BC25;}
	.st10{fill:none;stroke:#000000;stroke-width:0.15;stroke-miterlimit:10;}
	.st11{fill-rule:evenodd;clip-rule:evenodd;fill:#1D1D1D;}
	.st12{fill:none;stroke:#8D9498;stroke-width:0.15;stroke-miterlimit:10;}
	.st13{fill:#FFFFFF;stroke:#606060;stroke-width:5.000000e-02;stroke-miterlimit:10;}
	.st14{fill:none;stroke:#FFFFFF;stroke-miterlimit:10;}
	.st15{fill-rule:evenodd;clip-rule:evenodd;}
</style>
<path class="st1" d="M25,1.5C12.1,1.5,1.5,12.1,1.5,25S12.1,48.5,25,48.5S48.5,37.9,48.5,25S37.9,1.5,25,1.5z M25,3.1
	c12.1,0,21.9,9.8,21.9,21.9c0,5-1.7,9.6-4.5,13.2c-2.6-5.3-7.5-9-13.2-10.2c2.8-1.5,4.8-4.5,4.8-7.9c0-4.9-4-8.9-8.9-8.9
	s-8.9,4-8.9,8.9c0,3.4,2,6.4,4.8,7.9C15.3,29.3,10.4,33,7.7,38.2C4.8,34.6,3.1,30,3.1,25C3.1,12.9,12.9,3.1,25,3.1z M17.7,20.1
	c0-4,3.3-7.3,7.3-7.3s7.3,3.3,7.3,7.3S29,27.4,25,27.4S17.7,24.2,17.7,20.1z M25,46.9c-6.4,0-12.2-2.8-16.2-7.2
	c3-6.4,9.2-10.4,16.2-10.4c7.1,0,13.4,4.1,16.2,10.4C37.2,44,31.4,46.9,25,46.9z"/>
</svg>
