<?xml version="1.0" encoding="utf-8"?>
<!-- Generator: Adobe Illustrator 25.2.1, SVG Export Plug-In . SVG Version: 6.00 Build 0)  -->
<svg version="1.1" id="Livello_1" xmlns="http://www.w3.org/2000/svg" xmlns:xlink="http://www.w3.org/1999/xlink" x="0px" y="0px"
	 viewBox="0 0 50 50" style="enable-background:new 0 0 50 50;" xml:space="preserve">
<style type="text/css">
	.st0{fill:#F4F8F9;}
	.st1{fill:#89BA17;}
	.st2{fill:#FFFFFF;}
	.st3{fill:#8D9498;}
	.st4{fill-rule:evenodd;clip-rule:evenodd;fill:#FFFFFF;}
	.st5{fill:none;stroke:#606060;stroke-width:5.000000e-02;stroke-miterlimit:10;}
	.st6{fill:#0099B3;}
	.st7{fill:#00ABAB;}
	.st8{fill:#1D3176;}
	.st9{fill:#86BC25;}
	.st10{fill:none;stroke:#000000;stroke-width:0.15;stroke-miterlimit:10;}
	.st11{fill-rule:evenodd;clip-rule:evenodd;fill:#1D1D1D;}
	.st12{fill:none;stroke:#8D9498;stroke-width:0.15;stroke-miterlimit:10;}
	.st13{fill:#FFFFFF;stroke:#606060;stroke-width:5.000000e-02;stroke-miterlimit:10;}
	.st14{fill:none;stroke:#FFFFFF;stroke-miterlimit:10;}
	.st15{fill-rule:evenodd;clip-rule:evenodd;}
</style>
<path d="M43,12.3h-4.7c-2.3-5.4-7.4-9-13.3-9c-5.9,0-11.1,3.6-13.3,9H7c-3,0-5.5,2.5-5.5,5.5v1.1v22.3c0,3,2.5,5.5,5.5,5.5h36
	c3,0,5.5-2.5,5.5-5.5V18.9v-1.1C48.5,14.8,46,12.3,43,12.3z M25,7.1c3.8,0,7.2,2,9.1,5.2H15.9C17.8,9.1,21.2,7.1,25,7.1z M5.3,17.8
	c0-0.9,0.8-1.7,1.7-1.7h36c0.9,0,1.7,0.8,1.7,1.7v1.1c0,4.4-3.4,7.8-7.8,7.8H13.1c-4.4,0-7.8-3.4-7.8-7.8V17.8z M43,42.9H7
	c-0.9,0-1.7-0.8-1.7-1.7V27.4c1.9,1.7,4.3,2.8,7,3v1.8c0,1,0.8,1.9,1.9,1.9s1.9-0.8,1.9-1.9v-1.7h17.8v1.7c0,1,0.8,1.9,1.9,1.9
	c1,0,1.9-0.8,1.9-1.9v-1.8c2.7-0.2,5.2-1.3,7-3v13.8C44.7,42.2,44,42.9,43,42.9z"/>
</svg>
