<?xml version="1.0" encoding="utf-8"?>
<!-- Generator: Adobe Illustrator 25.2.1, SVG Export Plug-In . SVG Version: 6.00 Build 0)  -->
<svg version="1.1" id="Livello_1" xmlns="http://www.w3.org/2000/svg" xmlns:xlink="http://www.w3.org/1999/xlink" x="0px" y="0px"
	 viewBox="0 0 50 50" style="enable-background:new 0 0 50 50;" xml:space="preserve">
<style type="text/css">
	.st0{fill:#F4F8F9;}
	.st1{fill:#89BA17;}
	.st2{fill:#FFFFFF;}
	.st3{fill:#8D9498;}
	.st4{fill-rule:evenodd;clip-rule:evenodd;fill:#FFFFFF;}
	.st5{fill:none;stroke:#606060;stroke-width:5.000000e-02;stroke-miterlimit:10;}
	.st6{fill:#0099B3;}
	.st7{fill:#00ABAB;}
	.st8{fill:#1D3176;}
	.st9{fill:#86BC25;}
	.st10{fill:none;stroke:#000000;stroke-width:0.15;stroke-miterlimit:10;}
	.st11{fill-rule:evenodd;clip-rule:evenodd;fill:#1D1D1D;}
	.st12{fill:none;stroke:#8D9498;stroke-width:0.15;stroke-miterlimit:10;}
	.st13{fill:#FFFFFF;stroke:#606060;stroke-width:5.000000e-02;stroke-miterlimit:10;}
	.st14{fill:none;stroke:#FFFFFF;stroke-miterlimit:10;}
	.st15{fill-rule:evenodd;clip-rule:evenodd;}
</style>
<g id="Icons_2_">
	<g id="Rounded_2_" transform="translate(-307.000000, -377.000000)">
		<g id="Action_2_" transform="translate(100.000000, 100.000000)">
			<g id="_x2D_Round-_x2F_-Action-_x2F_-power_x5F_settings_x5F_new_2_" transform="translate(204.000000, 274.000000)">
				<g>
					<path id="_xD83D__xDD39_Icon-Color_2_" class="st11" d="M28,4.5c-1.4,0-2.6,1.2-2.6,2.6V28c0,1.4,1.2,2.6,2.6,2.6
						c1.4,0,2.6-1.2,2.6-2.6V7.1C30.6,5.7,29.4,4.5,28,4.5z M41.4,12c-1,1-1,2.6,0,3.6c2.9,3.1,4.8,7.3,4.9,11.9
						c0.2,10-8,18.6-18,18.7C18,46.4,9.7,38.2,9.7,28c0-4.8,1.9-9.2,4.9-12.4c1-1,1-2.6,0-3.6c-1-1-2.7-1-3.7,0.1
						c-3.8,4-6.2,9.4-6.3,15.3c-0.4,12.7,10,23.8,22.7,24.1C40.6,51.9,51.5,41.2,51.5,28c0-6.2-2.4-11.8-6.3-16
						C44.2,11,42.5,10.9,41.4,12z"/>
				</g>
			</g>
		</g>
	</g>
</g>
</svg>
