<?xml version="1.0" encoding="utf-8"?>
<!-- Generator: Adobe Illustrator 25.2.1, SVG Export Plug-In . SVG Version: 6.00 Build 0)  -->
<svg version="1.1" id="Livello_1" xmlns="http://www.w3.org/2000/svg" xmlns:xlink="http://www.w3.org/1999/xlink" x="0px" y="0px"
	 viewBox="0 0 50 50" style="enable-background:new 0 0 50 50;" xml:space="preserve">
<style type="text/css">
	.st0{fill:#F4F8F9;}
	.st1{fill:#89BA17;}
	.st2{fill:#FFFFFF;}
	.st3{fill:#8D9498;}
	.st4{fill-rule:evenodd;clip-rule:evenodd;fill:#FFFFFF;}
	.st5{fill:none;stroke:#606060;stroke-width:5.000000e-02;stroke-miterlimit:10;}
	.st6{fill:#0099B3;}
	.st7{fill:#00ABAB;}
	.st8{fill:#1D3176;}
	.st9{fill:#86BC25;}
	.st10{fill:none;stroke:#000000;stroke-width:0.15;stroke-miterlimit:10;}
	.st11{fill-rule:evenodd;clip-rule:evenodd;fill:#1D1D1D;}
	.st12{fill:none;stroke:#8D9498;stroke-width:0.15;stroke-miterlimit:10;}
	.st13{fill:#FFFFFF;stroke:#606060;stroke-width:5.000000e-02;stroke-miterlimit:10;}
	.st14{fill:none;stroke:#FFFFFF;stroke-miterlimit:10;}
	.st15{fill-rule:evenodd;clip-rule:evenodd;fill:white;}
</style>
<g>
	<path class="st15" d="M19.6,39.3c0.8,0.8,0.8,2.2,0,3l-5.5,5.5c-0.8,0.8-2.2,0.8-3,0c0,0,0,0,0,0l-5.5-5.5c-0.9-0.8-1-2.1-0.2-3
		c0.8-0.9,2.1-1,3-0.2c0.1,0.1,0.2,0.1,0.2,0.2l1.9,1.9V3.6c0-1.2,1-2.1,2.1-2.1s2.1,1,2.1,2.1v37.6l1.9-1.9
		C17.4,38.5,18.7,38.5,19.6,39.3C19.6,39.3,19.6,39.3,19.6,39.3z"/>
	<path class="st15" d="M30.4,10.7c-0.8-0.8-0.8-2.2,0-3l5.5-5.5c0.8-0.8,2.2-0.8,3,0c0,0,0,0,0,0l5.5,5.5c0.9,0.8,1,2.1,0.2,3
		c-0.8,0.9-2.1,1-3,0.2c-0.1-0.1-0.2-0.1-0.2-0.2l-1.9-1.9l0,37.6c0,1.2-1,2.1-2.1,2.1c-1.2,0-2.1-1-2.1-2.1l0-37.6l-1.9,1.9
		C32.6,11.5,31.3,11.5,30.4,10.7C30.4,10.7,30.4,10.7,30.4,10.7z"/>
</g>
</svg>
