<?xml version="1.0" encoding="utf-8"?>
<!-- Generator: Adobe Illustrator 25.2.1, SVG Export Plug-In . SVG Version: 6.00 Build 0)  -->
<svg version="1.1" id="Livello_1" xmlns="http://www.w3.org/2000/svg" xmlns:xlink="http://www.w3.org/1999/xlink" x="0px" y="0px"
	 viewBox="0 0 50 50" style="enable-background:new 0 0 50 50;" xml:space="preserve">
<style type="text/css">
	.st0{fill:#F4F8F9;}
	.st1{fill:#89BA17;}
	.st2{fill:#FFFFFF;}
	.st3{fill:#8D9498;}
	.st4{fill-rule:evenodd;clip-rule:evenodd;fill:#FFFFFF;}
	.st5{fill:none;stroke:#606060;stroke-width:5.000000e-02;stroke-miterlimit:10;}
	.st6{fill:#0099B3;}
	.st7{fill:#00ABAB;}
	.st8{fill:#1D3176;}
	.st9{fill:#86BC25;}
	.st10{fill:none;stroke:#000000;stroke-width:0.15;stroke-miterlimit:10;}
	.st11{fill-rule:evenodd;clip-rule:evenodd;fill:#1D1D1D;}
	.st12{fill:none;stroke:#8D9498;stroke-width:0.15;stroke-miterlimit:10;}
	.st13{fill:#FFFFFF;stroke:#606060;stroke-width:5.000000e-02;stroke-miterlimit:10;}
	.st14{fill:none;stroke:#FFFFFF;stroke-miterlimit:10;}
	.st15{fill-rule:evenodd;clip-rule:evenodd;}
	.st16{fill:#1D1D1B;}
</style>
<path d="M13.2,46.3h23.5c3.1,0,5.6-2.5,5.6-5.6V11h4.2c0.9,0,1.7-0.8,1.7-1.7s-0.8-1.7-1.7-1.7h-10V5.4c0-0.9-0.8-1.7-1.7-1.7H15.2
	c0,0,0,0,0,0c-0.5,0-0.9,0.2-1.2,0.5c-0.3,0.3-0.5,0.7-0.5,1.2v2.2h-10c-0.9,0-1.7,0.8-1.7,1.7S2.5,11,3.5,11h4.2v29.6
	C7.6,43.8,10.1,46.3,13.2,46.3z M11,11H39v29.6c0,1.2-1,2.2-2.2,2.2h0H13.2h0c-1.2,0-2.2-1-2.2-2.2V11z"/>
<path d="M21.5,36c0,1.1-0.9,2-2,2l0,0c-1.1,0-2-0.9-2-2V19c0-1.1,0.9-2,2-2l0,0c1.1,0,2,0.9,2,2V36z"/>
<path d="M31.5,36c0,1.1-0.9,2-2,2l0,0c-1.1,0-2-0.9-2-2V19c0-1.1,0.9-2,2-2l0,0c1.1,0,2,0.9,2,2V36z"/>
</svg>
