<?xml version="1.0" encoding="utf-8"?>
<!-- Generator: Adobe Illustrator 26.3.0, SVG Export Plug-In . SVG Version: 6.00 Build 0)  -->
<svg version="1.1" id="Livello_1" xmlns="http://www.w3.org/2000/svg" xmlns:xlink="http://www.w3.org/1999/xlink" x="0px" y="0px"
	 viewBox="0 0 628.8 180" style="enable-background:new 0 0 628.8 180;" xml:space="preserve">
<style type="text/css">
	.st0{fill:#89BA17;}
	.st1{fill:#7FA517;}
	.st2{fill:#FFFFFF;}
</style>
<g>
	<g>
		<path class="st0" d="M199.9,44.9c-6.8-11.1-16.4-19.8-28.7-25.9c-12.3-6.1-26.5-9.2-42.6-9.2H94.8H61.4H15.5l15.9,28.1h30h33.4
			h0.8h4.5h26.8c14.8,0,26.6,4.1,35.4,12.4c8.8,8.2,13.2,19.4,13.2,33.5c0,14.1-4.4,25.3-13.2,33.5c-8.8,8.2-20.6,12.4-35.4,12.4
			h-16.2H95.6H61.4v28.1h67.2c16.1,0,30.3-3.1,42.6-9.2c12.3-6.1,21.9-14.8,28.7-25.9c6.8-11.1,10.2-24.1,10.2-38.9
			S206.7,56,199.9,44.9z"/>
		<polygon class="st1" points="61.4,58.9 61.4,91.3 61.4,129.6 95.6,129.6 95.6,91.3 95.6,58.9 		"/>
	</g>
	<path class="st2" d="M322.5,74.4h-16.3V88h-14.6V74.4h-34.8V64.3L294,9.8h15.7l-35,52.4h17.4V50.1h14.1v12.1h16.3V74.4z"/>
	<g>
		<g>
			<g>
				<path class="st2" d="M234.8,144.6h-24.3c0.4,2,1.5,3.5,3.1,4.7c1.6,1.1,3.7,1.7,6.1,1.7c1.7,0,3.2-0.2,4.4-0.7
					c1.3-0.5,2.5-1.3,3.6-2.3l5,5.3c-3,3.4-7.4,5.1-13.2,5.1c-3.6,0-6.8-0.7-9.6-2.1c-2.8-1.4-4.9-3.3-6.4-5.8
					c-1.5-2.5-2.3-5.3-2.3-8.4c0-3.1,0.7-5.9,2.2-8.4c1.5-2.5,3.5-4.4,6.1-5.8c2.6-1.4,5.5-2.1,8.7-2.1c3.1,0,6,0.7,8.5,2
					c2.5,1.3,4.5,3.3,6,5.8c1.5,2.5,2.2,5.4,2.2,8.7C235,142.2,235,143.1,234.8,144.6z M213.1,134.4c-1.4,1.2-2.3,2.8-2.6,4.8h15.8
					c-0.3-2-1.2-3.6-2.6-4.8c-1.4-1.2-3.2-1.8-5.3-1.8C216.3,132.6,214.5,133.2,213.1,134.4z"/>
				<path class="st2" d="M272.5,126.1L259,157.9h-9.6l-13.5-31.7h9.6l8.9,21.6l9.2-21.6H272.5z"/>
				<path class="st2" d="M276.3,126.1h9.3v31.7h-9.3V126.1z"/>
				<path class="st2" d="M300.6,156.2c-2.7-1.4-4.9-3.3-6.4-5.8c-1.5-2.5-2.3-5.3-2.3-8.4s0.8-6,2.3-8.4c1.5-2.5,3.7-4.4,6.4-5.8
					c2.7-1.4,5.8-2.1,9.2-2.1c3.4,0,6.3,0.7,8.9,2.1c2.5,1.4,4.4,3.4,5.5,6l-7.2,3.8c-1.7-2.9-4.1-4.4-7.2-4.4c-2.4,0-4.4,0.8-6,2.4
					c-1.6,1.6-2.4,3.7-2.4,6.4s0.8,4.9,2.4,6.4c1.6,1.6,3.6,2.4,6,2.4c3.2,0,5.6-1.5,7.2-4.4l7.2,3.9c-1.2,2.5-3,4.5-5.5,5.9
					c-2.5,1.4-5.5,2.1-8.9,2.1C306.4,158.3,303.3,157.6,300.6,156.2z"/>
				<path class="st2" d="M360.4,144.6h-24.3c0.4,2,1.5,3.5,3.1,4.7c1.6,1.1,3.7,1.7,6.1,1.7c1.7,0,3.2-0.2,4.4-0.7
					c1.3-0.5,2.5-1.3,3.6-2.3l5,5.3c-3,3.4-7.4,5.1-13.2,5.1c-3.6,0-6.8-0.7-9.6-2.1c-2.8-1.4-4.9-3.3-6.4-5.8
					c-1.5-2.5-2.3-5.3-2.3-8.4c0-3.1,0.7-5.9,2.2-8.4c1.5-2.5,3.5-4.4,6.1-5.8c2.6-1.4,5.5-2.1,8.7-2.1c3.1,0,6,0.7,8.5,2
					c2.5,1.3,4.5,3.3,6,5.8c1.5,2.5,2.2,5.4,2.2,8.7C360.6,142.2,360.5,143.1,360.4,144.6z M338.6,134.4c-1.4,1.2-2.3,2.8-2.6,4.8
					h15.8c-0.3-2-1.2-3.6-2.6-4.8c-1.4-1.2-3.2-1.8-5.3-1.8C341.8,132.6,340,133.2,338.6,134.4z"/>
			</g>
		</g>
		<g>
			<path class="st2" d="M277.2,119.9c-0.9-0.9-1.4-2-1.4-3.2c0-1.3,0.5-2.4,1.4-3.2c0.9-0.9,2.2-1.3,3.7-1.3c1.5,0,2.7,0.4,3.7,1.3
				c0.9,0.8,1.4,1.9,1.4,3.1c0,1.4-0.5,2.5-1.4,3.4c-0.9,0.9-2.2,1.3-3.7,1.3C279.4,121.2,278.2,120.8,277.2,119.9z"/>
		</g>
	</g>
	<g>
		<polygon class="st0" points="538.8,9.8 510.7,9.8 456.2,63 404.6,9.8 404.6,61.7 447.9,103.3 463.3,103.3 506.9,61.4 506.9,105.8 
			539,105.8 		"/>
		<rect x="372.5" y="9.8" class="st1" width="32.1" height="148.4"/>
	</g>
	<g>
		<g>
			<path class="st2" d="M424.7,156.2c-2.7-1.4-4.9-3.4-6.4-6c-1.5-2.6-2.3-5.4-2.3-8.7c0-3.2,0.8-6.1,2.3-8.7c1.5-2.6,3.7-4.5,6.4-6
				c2.7-1.4,5.8-2.2,9.3-2.2c3.4,0,6.5,0.7,9.2,2.2c2.7,1.4,4.8,3.4,6.4,6c1.5,2.6,2.3,5.4,2.3,8.7c0,3.2-0.8,6.1-2.3,8.7
				c-1.5,2.6-3.7,4.5-6.4,6c-2.7,1.4-5.8,2.2-9.2,2.2C430.5,158.4,427.4,157.7,424.7,156.2z M440,148.2c1.6-1.6,2.3-3.8,2.3-6.6
				s-0.8-5-2.3-6.6c-1.6-1.6-3.6-2.5-6-2.5c-2.4,0-4.4,0.8-6,2.5c-1.6,1.6-2.4,3.8-2.4,6.6s0.8,5,2.4,6.6c1.6,1.6,3.6,2.5,6,2.5
				C436.4,150.6,438.4,149.8,440,148.2z"/>
			<path class="st2" d="M485.8,126.8c2.5,1.4,4.4,3.4,5.9,5.9c1.4,2.5,2.1,5.5,2.1,8.8c0,3.4-0.7,6.3-2.1,8.8
				c-1.4,2.5-3.4,4.5-5.9,5.9c-2.5,1.4-5.3,2.1-8.3,2.1c-4.5,0-7.9-1.4-10.3-4.3v3.8h-9.1v-45.1h9.5v15.9c2.4-2.6,5.7-3.9,9.8-3.9
				C480.6,124.7,483.3,125.4,485.8,126.8z M481.9,148.2c1.6-1.6,2.3-3.8,2.3-6.6s-0.8-5-2.3-6.6c-1.6-1.6-3.6-2.5-6-2.5
				c-2.4,0-4.4,0.8-6,2.5c-1.6,1.6-2.3,3.8-2.3,6.6s0.8,5,2.3,6.6c1.6,1.6,3.6,2.5,6,2.5C478.3,150.6,480.3,149.8,481.9,148.2z"/>
			<path class="st2" d="M500.1,125.2h9.5v32.7h-9.5V125.2z"/>
			<path class="st2" d="M518.4,112.8h9.5v45.1h-9.5V112.8z"/>
			<path class="st2" d="M536.7,125.2h9.5v32.7h-9.5V125.2z"/>
			<path class="st2" d="M576.1,156.3c-0.9,0.7-2.1,1.2-3.4,1.6c-1.4,0.3-2.8,0.5-4.3,0.5c-3.9,0-6.9-1-9-3c-2.1-2-3.2-4.9-3.2-8.7
				v-13.4h-5V126h5v-8h9.5v8h8.1v7.3h-8.1v13.3c0,1.4,0.4,2.4,1.1,3.2c0.7,0.7,1.7,1.1,3,1.1c1.5,0,2.8-0.4,3.8-1.2L576.1,156.3z"/>
			<path class="st2" d="M613.3,125.2l-14.8,34.7c-1.5,3.8-3.4,6.4-5.6,8c-2.2,1.5-4.9,2.3-8,2.3c-1.7,0-3.4-0.3-5-0.8
				c-1.7-0.5-3-1.3-4.1-2.2l3.5-6.7c0.7,0.6,1.6,1.2,2.5,1.5c1,0.4,1.9,0.5,2.8,0.5c1.3,0,2.3-0.3,3.2-0.9c0.8-0.6,1.5-1.7,2.2-3.1
				l0.1-0.3L576,125.2h9.8l9.2,22.2l9.2-22.2H613.3z"/>
		</g>
		<path class="st2" d="M501.4,120.6c-0.9-0.9-1.4-2-1.4-3.2c0-1.3,0.5-2.4,1.4-3.2c0.9-0.9,2.2-1.3,3.7-1.3c1.5,0,2.7,0.4,3.7,1.3
			c0.9,0.8,1.4,1.9,1.4,3.1c0,1.4-0.5,2.5-1.4,3.4c-0.9,0.9-2.2,1.3-3.7,1.3C503.6,121.9,502.3,121.5,501.4,120.6z"/>
		<path class="st2" d="M537.5,120.6c-0.9-0.9-1.4-2-1.4-3.2c0-1.3,0.5-2.4,1.4-3.2c0.9-0.9,2.2-1.3,3.7-1.3c1.5,0,2.7,0.4,3.7,1.3
			c0.9,0.8,1.4,1.9,1.4,3.1c0,1.4-0.5,2.5-1.4,3.4c-0.9,0.9-2.2,1.3-3.7,1.3C539.7,121.9,538.5,121.5,537.5,120.6z"/>
	</g>
</g>
</svg>
