<?xml version="1.0" encoding="utf-8"?>
<!-- Generator: Adobe Illustrator 25.2.1, SVG Export Plug-In . SVG Version: 6.00 Build 0)  -->
<svg version="1.1" id="Livello_1" xmlns="http://www.w3.org/2000/svg" xmlns:xlink="http://www.w3.org/1999/xlink" x="0px" y="0px"
	 viewBox="0 0 399 157" style="enable-background:new 0 0 399 157;" xml:space="preserve">
<style type="text/css">
	.st0{fill:#89BA17;}
	.st1{fill:#1D1D1B;}
	.st2{fill:#FFFFFF;}
</style>
<g>
	<g>
		<g>
			<path class="st0" d="M108.5,113.3c0-7.8,6.3-14.1,14.1-14.1c7.8,0,14.1,6.3,14.1,14.1c0,7.8-6.3,14.1-14.1,14.1
				C114.8,127.4,108.5,121.1,108.5,113.3"/>
			<path class="st2" d="M17.2,125.9H46c1.9,0,4.3,0,6.2-0.1c39.4-2,55.8-25.4,55.8-52.4c0-33.7-22.7-52.6-61.8-52.6
				c-10,0-19,0.3-28.9,1.2V125.9z M54,105.3c-1.1,0.1-2.6,0.1-3.7,0.1h-8.1c0,0,0-63.5,0-63.5c2.8-0.3,6.3-0.4,8.7-0.4
				c14.8,0,30.6,9.6,30.6,31.8C81.5,96.5,66.7,104.2,54,105.3"/>
		</g>
	</g>
	<g>
		<path class="st2" d="M224.5,105.3h-12.4l-4.6,22.1h-21.4l4.6-22.1h-43l3.5-17.1l56.2-67.5H230l-14.2,67h12.4L224.5,105.3z
			 M194.4,87.8l4.2-18.1c0.6-2.8,1.6-6.8,2.9-12s2.4-8.6,3.1-10.3h-0.4c-1.7,3.1-4.9,7.5-9.6,13.2l-22.8,27.1H194.4z"/>
	</g>
	<g>
		<path class="st2" d="M291.3,116.1c0,3.5-0.9,6.2-2.8,8.2c-1.8,2-4.4,3-7.7,3c-2.1,0-3.9-0.5-5.4-1.4c-1.6-0.9-2.8-2.2-3.6-3.9
			c-0.8-1.7-1.3-3.7-1.3-5.9c0-3.5,0.9-6.2,2.7-8.2c1.8-1.9,4.4-2.9,7.7-2.9c2.1,0,3.9,0.4,5.4,1.3s2.8,2.2,3.6,3.9
			C290.9,111.9,291.3,113.8,291.3,116.1z M276.5,116.1c0,2.1,0.3,3.7,1,4.8c0.7,1.1,1.8,1.6,3.4,1.6c1.6,0,2.7-0.5,3.4-1.6
			c0.7-1.1,1-2.7,1-4.8c0-2.1-0.3-3.7-1-4.8c-0.7-1.1-1.8-1.6-3.4-1.6c-1.6,0-2.7,0.5-3.4,1.6C276.9,112.3,276.5,113.9,276.5,116.1z
			"/>
		<path class="st2" d="M305.7,105c2.5,0,4.5,1,5.9,3c1.4,2,2.1,4.7,2.1,8.1c0,3.5-0.7,6.3-2.2,8.2c-1.5,1.9-3.5,2.9-6,2.9
			c-2.5,0-4.5-0.9-5.9-2.7h-0.4l-1,2.4h-4.5V97h5.8v6.9c0,0.9-0.1,2.3-0.2,4.2h0.2C301,106.1,303,105,305.7,105z M303.8,109.7
			c-1.4,0-2.5,0.4-3.2,1.3c-0.7,0.9-1,2.4-1,4.4v0.6c0,2.3,0.3,3.9,1,4.9c0.7,1,1.8,1.5,3.2,1.5c1.2,0,2.2-0.6,2.9-1.7
			c0.7-1.1,1.1-2.7,1.1-4.8s-0.4-3.7-1.1-4.7C306,110.2,305.1,109.7,303.8,109.7z"/>
		<path class="st0" d="M316,99.9c0-1.9,1.1-2.9,3.2-2.9c2.1,0,3.2,1,3.2,2.9c0,0.9-0.3,1.6-0.8,2.1s-1.3,0.8-2.4,0.8
			C317,102.7,316,101.8,316,99.9z"/>
		<path class="st2" d="M331.7,126.8h-5.8V97h5.8V126.8z"/>
		<path class="st0" d="M335.2,99.9c0-1.9,1.1-2.9,3.2-2.9s3.2,1,3.2,2.9c0,0.9-0.3,1.6-0.8,2.1s-1.3,0.8-2.4,0.8
			C336.2,102.7,335.2,101.8,335.2,99.9z"/>
		<path class="st2" d="M354,122.6c1,0,2.2-0.2,3.7-0.7v4.4c-1.5,0.7-3.2,1-5.4,1c-2.3,0-4-0.6-5.1-1.8c-1.1-1.2-1.6-3-1.6-5.3v-10.3
			h-2.8v-2.5l3.2-2l1.7-4.5h3.7v4.6h6v4.4h-6v10.3c0,0.8,0.2,1.4,0.7,1.8C352.6,122.4,353.3,122.6,354,122.6z"/>
		<path class="st2" d="M359.5,105.4h6.4l4,12.1c0.3,1,0.6,2.3,0.7,3.7h0.1c0.1-1.3,0.4-2.6,0.8-3.7l4-12.1h6.3l-9.1,24.2
			c-0.8,2.2-2,3.9-3.6,5c-1.5,1.1-3.3,1.7-5.4,1.7c-1,0-2-0.1-3-0.3v-4.6c0.7,0.2,1.5,0.2,2.3,0.2c1,0,1.9-0.3,2.7-0.9
			c0.8-0.6,1.4-1.6,1.8-2.9l0.3-1.1L359.5,105.4z"/>
		<rect x="335.4" y="105.4" class="st2" width="5.8" height="21.4"/>
		<rect x="316.2" y="105.4" class="st2" width="5.8" height="21.4"/>
	</g>
	<polygon class="st0" points="362.7,21.3 347.8,21.3 338.5,21.3 304.5,70 289.9,21.3 280.2,21.3 268,21.3 258.4,21.3 240.9,127.4 
		262.7,127.4 275.6,49.1 288.4,91.1 291.1,91.1 310.3,91.1 315,91.1 342.1,53.3 334.7,91.1 356.5,91.1 369.6,21.3 	"/>
</g>
</svg>
