<?xml version="1.0" encoding="utf-8"?>
<!-- Generator: Adobe Illustrator 26.3.0, SVG Export Plug-In . SVG Version: 6.00 Build 0)  -->
<svg version="1.1" id="Livello_1" xmlns="http://www.w3.org/2000/svg" xmlns:xlink="http://www.w3.org/1999/xlink" x="0px" y="0px"
	 viewBox="0 0 967.5 160.4" style="enable-background:new 0 0 967.5 160.4;" xml:space="preserve">
<style type="text/css">
	.st0{fill:#89BA17;}
	.st1{fill:#7FA517;}
	.st2{fill:#FFFFFF;}
	.st3{fill:#1D1D1B;}
	.st4{fill:#2E2D2C;}
</style>
<g>
	<g>
		<path class="st3" d="M184.4,35.1c-6.8-11.1-16.4-19.8-28.7-25.9C143.3,3.1,129.1,0,113,0H79.3H45.8H0l15.9,28.1h30h33.4h0.8h4.5
			h26.8c14.8,0,26.6,4.1,35.4,12.4c8.8,8.2,13.2,19.4,13.2,33.5c0,14.1-4.4,25.3-13.2,33.5c-8.8,8.2-20.6,12.4-35.4,12.4H95.1H80.1
			H45.8v28.1H113c16.1,0,30.3-3.1,42.6-9.2c12.3-6.1,21.9-14.8,28.7-25.9c6.8-11.1,10.2-24.1,10.2-38.9S191.2,46.2,184.4,35.1z"/>
		<polygon class="st4" points="45.8,49.1 45.8,81.5 45.8,119.8 80.1,119.8 80.1,81.5 80.1,49.1 		"/>
	</g>
	<path class="st2" d="M307,64.6h-16.3v13.6h-14.6V64.6h-34.8V54.5L278.5,0h15.7l-35,52.4h17.4V40.3h14.1v12.1H307V64.6z"/>
	<g>
		<g>
			<g>
				<path class="st2" d="M219.3,134.8H195c0.4,2,1.5,3.5,3.1,4.7c1.6,1.1,3.7,1.7,6.1,1.7c1.7,0,3.2-0.2,4.4-0.7
					c1.3-0.5,2.5-1.3,3.6-2.3l5,5.3c-3,3.4-7.4,5.1-13.2,5.1c-3.6,0-6.8-0.7-9.6-2.1c-2.8-1.4-4.9-3.3-6.4-5.8
					c-1.5-2.5-2.3-5.3-2.3-8.4c0-3.1,0.7-5.9,2.2-8.4c1.5-2.5,3.5-4.4,6.1-5.8c2.6-1.4,5.5-2.1,8.7-2.1c3.1,0,6,0.7,8.5,2
					c2.5,1.3,4.5,3.3,6,5.8c1.5,2.5,2.2,5.4,2.2,8.7C219.5,132.4,219.4,133.2,219.3,134.8z M197.5,124.6c-1.4,1.2-2.3,2.8-2.6,4.8
					h15.8c-0.3-2-1.2-3.6-2.6-4.8c-1.4-1.2-3.2-1.8-5.3-1.8C200.7,122.8,199,123.4,197.5,124.6z"/>
				<path class="st2" d="M257,116.3l-13.5,31.7h-9.6l-13.5-31.7h9.6l8.9,21.6l9.2-21.6H257z"/>
				<path class="st2" d="M260.8,116.3h9.3v31.7h-9.3V116.3z"/>
				<path class="st2" d="M285,146.4c-2.7-1.4-4.9-3.3-6.4-5.8c-1.5-2.5-2.3-5.3-2.3-8.4s0.8-6,2.3-8.4c1.5-2.5,3.7-4.4,6.4-5.8
					c2.7-1.4,5.8-2.1,9.2-2.1c3.4,0,6.3,0.7,8.9,2.1c2.5,1.4,4.4,3.4,5.5,6l-7.2,3.8c-1.7-2.9-4.1-4.4-7.2-4.4c-2.4,0-4.4,0.8-6,2.4
					c-1.6,1.6-2.4,3.7-2.4,6.4s0.8,4.9,2.4,6.4c1.6,1.6,3.6,2.4,6,2.4c3.2,0,5.6-1.5,7.2-4.4l7.2,3.9c-1.2,2.5-3,4.5-5.5,5.9
					c-2.5,1.4-5.5,2.1-8.9,2.1C290.8,148.5,287.7,147.8,285,146.4z"/>
				<path class="st2" d="M344.8,134.8h-24.3c0.4,2,1.5,3.5,3.1,4.7c1.6,1.1,3.7,1.7,6.1,1.7c1.7,0,3.2-0.2,4.4-0.7
					c1.3-0.5,2.5-1.3,3.6-2.3l5,5.3c-3,3.4-7.4,5.1-13.2,5.1c-3.6,0-6.8-0.7-9.6-2.1c-2.8-1.4-4.9-3.3-6.4-5.8
					c-1.5-2.5-2.3-5.3-2.3-8.4c0-3.1,0.7-5.9,2.2-8.4c1.5-2.5,3.5-4.4,6.1-5.8c2.6-1.4,5.5-2.1,8.7-2.1c3.1,0,6,0.7,8.5,2
					c2.5,1.3,4.5,3.3,6,5.8c1.5,2.5,2.2,5.4,2.2,8.7C345,132.4,344.9,133.2,344.8,134.8z M323.1,124.6c-1.4,1.2-2.3,2.8-2.6,4.8
					h15.8c-0.3-2-1.2-3.6-2.6-4.8c-1.4-1.2-3.2-1.8-5.3-1.8C326.3,122.8,324.5,123.4,323.1,124.6z"/>
			</g>
		</g>
		<g>
			<path class="st2" d="M261.7,110.1c-0.9-0.9-1.4-2-1.4-3.2c0-1.3,0.5-2.4,1.4-3.2c0.9-0.9,2.2-1.3,3.7-1.3c1.5,0,2.7,0.4,3.7,1.3
				c0.9,0.8,1.4,1.9,1.4,3.1c0,1.4-0.5,2.5-1.4,3.4c-0.9,0.9-2.2,1.3-3.7,1.3C263.8,111.4,262.6,110.9,261.7,110.1z"/>
		</g>
	</g>
	<g>
		<polygon class="st3" points="523.2,0 495.1,0 440.6,53.2 389,0 389,51.9 432.4,93.5 447.8,93.5 491.3,51.6 491.4,96 523.5,96 		
			"/>
		<rect x="356.9" class="st4" width="32.1" height="148.4"/>
	</g>
	<g>
		<g>
			<path class="st2" d="M409.2,146.4c-2.7-1.4-4.9-3.4-6.4-6c-1.5-2.6-2.3-5.4-2.3-8.7c0-3.2,0.8-6.1,2.3-8.7c1.5-2.6,3.7-4.5,6.4-6
				c2.7-1.4,5.8-2.2,9.3-2.2c3.4,0,6.5,0.7,9.2,2.2c2.7,1.4,4.8,3.4,6.4,6c1.5,2.6,2.3,5.4,2.3,8.7c0,3.2-0.8,6.1-2.3,8.7
				c-1.5,2.6-3.7,4.5-6.4,6c-2.7,1.4-5.8,2.2-9.2,2.2C415,148.6,411.9,147.9,409.2,146.4z M424.4,138.4c1.6-1.6,2.3-3.8,2.3-6.6
				s-0.8-5-2.3-6.6c-1.6-1.6-3.6-2.5-6-2.5c-2.4,0-4.4,0.8-6,2.5c-1.6,1.6-2.4,3.8-2.4,6.6s0.8,5,2.4,6.6c1.6,1.6,3.6,2.5,6,2.5
				C420.9,140.8,422.8,140,424.4,138.4z"/>
			<path class="st2" d="M470.3,117c2.5,1.4,4.4,3.4,5.9,5.9c1.4,2.5,2.1,5.5,2.1,8.8c0,3.4-0.7,6.3-2.1,8.8
				c-1.4,2.5-3.4,4.5-5.9,5.9c-2.5,1.4-5.3,2.1-8.3,2.1c-4.5,0-7.9-1.4-10.3-4.3v3.8h-9.1V103h9.5v15.9c2.4-2.6,5.7-3.9,9.8-3.9
				C465,114.9,467.8,115.6,470.3,117z M466.3,138.4c1.6-1.6,2.3-3.8,2.3-6.6s-0.8-5-2.3-6.6c-1.6-1.6-3.6-2.5-6-2.5
				c-2.4,0-4.4,0.8-6,2.5c-1.6,1.6-2.3,3.8-2.3,6.6s0.8,5,2.3,6.6c1.6,1.6,3.6,2.5,6,2.5C462.8,140.8,464.8,140,466.3,138.4z"/>
			<path class="st2" d="M484.6,115.4h9.5v32.7h-9.5V115.4z"/>
			<path class="st2" d="M502.9,103h9.5v45.1h-9.5V103z"/>
			<path class="st2" d="M521.2,115.4h9.5v32.7h-9.5V115.4z"/>
			<path class="st2" d="M560.5,146.5c-0.9,0.7-2.1,1.2-3.4,1.6c-1.4,0.3-2.8,0.5-4.3,0.5c-3.9,0-6.9-1-9-3c-2.1-2-3.2-4.9-3.2-8.7
				v-13.4h-5v-7.3h5v-8h9.5v8h8.1v7.3h-8.1v13.3c0,1.4,0.4,2.4,1.1,3.2c0.7,0.7,1.7,1.1,3,1.1c1.5,0,2.8-0.4,3.8-1.2L560.5,146.5z"
				/>
			<path class="st2" d="M597.7,115.4l-14.8,34.7c-1.5,3.8-3.4,6.4-5.6,8c-2.2,1.5-4.9,2.3-8,2.3c-1.7,0-3.4-0.3-5-0.8
				c-1.7-0.5-3-1.3-4.1-2.2l3.5-6.7c0.7,0.6,1.6,1.2,2.5,1.5c1,0.4,1.9,0.5,2.8,0.5c1.3,0,2.3-0.3,3.2-0.9c0.8-0.6,1.5-1.7,2.2-3.1
				l0.1-0.3l-14.2-32.9h9.8l9.2,22.2l9.2-22.2H597.7z"/>
		</g>
		<path class="st2" d="M485.8,110.8c-0.9-0.9-1.4-2-1.4-3.2c0-1.3,0.5-2.4,1.4-3.2c0.9-0.9,2.2-1.3,3.7-1.3c1.5,0,2.7,0.4,3.7,1.3
			c0.9,0.8,1.4,1.9,1.4,3.1c0,1.4-0.5,2.5-1.4,3.4c-0.9,0.9-2.2,1.3-3.7,1.3C488,112.1,486.8,111.7,485.8,110.8z"/>
		<path class="st2" d="M522,110.8c-0.9-0.9-1.4-2-1.4-3.2c0-1.3,0.5-2.4,1.4-3.2c0.9-0.9,2.2-1.3,3.7-1.3c1.5,0,2.7,0.4,3.7,1.3
			c0.9,0.8,1.4,1.9,1.4,3.1c0,1.4-0.5,2.5-1.4,3.4c-0.9,0.9-2.2,1.3-3.7,1.3C524.1,112.1,522.9,111.7,522,110.8z"/>
	</g>
</g>
<rect x="633.5" class="st2" width="2.1" height="160.4"/>
<g>
	<path class="st2" d="M712.7,63.9c2.9,2.3,4.3,5.5,4.3,9.7c0,3.7-0.8,6.9-2.5,9.5c-1.7,2.7-4.1,4.7-7.2,6.2c-3.1,1.4-6.8,2.1-11,2.1
		h-10.6L683,104h-8.1l8.7-43.5h16.8C705.7,60.4,709.8,61.6,712.7,63.9z M705.6,81.9c2.1-1.8,3.2-4.3,3.2-7.6c0-2.3-0.8-4.1-2.4-5.3
		c-1.6-1.2-3.9-1.8-6.9-1.8h-9.2l-3.4,17.3h9.6C700.5,84.6,703.5,83.7,705.6,81.9z"/>
	<path class="st2" d="M736.9,71.4c2.1-0.7,4.6-1.1,7.5-1.1l-1.4,7.4c-0.7-0.1-1.3-0.2-1.9-0.2c-6.3,0-10.2,3.3-11.5,10l-3.3,16.4
		h-7.8l6.6-33.2h7.4l-0.9,4.3C733,73.4,734.8,72.2,736.9,71.4z"/>
	<path class="st2" d="M778.2,89.7h-26.4c0.1,5.4,3.3,8.1,9.6,8.1c1.9,0,3.7-0.3,5.4-0.9c1.7-0.6,3.1-1.4,4.2-2.5l3.2,5.4
		c-1.7,1.5-3.7,2.7-6.1,3.5c-2.4,0.8-4.9,1.1-7.5,1.1c-3.3,0-6.2-0.6-8.7-1.8c-2.5-1.2-4.4-2.9-5.7-5.1c-1.3-2.2-2-4.8-2-7.7
		c0-3.7,0.8-7,2.5-10c1.6-3,3.9-5.3,6.8-6.9c2.9-1.7,6.2-2.5,9.9-2.5c4.6,0,8.4,1.3,11.1,3.9c2.8,2.6,4.2,6.2,4.2,10.7
		C778.7,86.6,778.5,88.1,778.2,89.7z M756.3,78.7c-1.8,1.4-3.1,3.3-3.8,5.8h19c0-2.5-0.7-4.4-2.3-5.8c-1.6-1.4-3.6-2.1-6.3-2.1
		C760.4,76.6,758.2,77.3,756.3,78.7z"/>
	<path class="st2" d="M838.9,73.3c2.1,1.9,3.2,4.6,3.2,8.2c0,1.3-0.1,2.7-0.4,4.1L838,104h-7.8l3.7-18.2c0.2-0.8,0.2-1.7,0.2-2.6
		c0-4-2.1-6-6.3-6c-5.5,0-8.9,3.2-10.2,9.5l-3.5,17.3h-7.8l3.7-18.2c0.2-0.8,0.2-1.7,0.2-2.6c0-4-2.1-6-6.3-6
		c-5.5,0-8.9,3.2-10.2,9.6l-3.5,17.2h-7.8l6.6-33.2h7.4l-0.7,3.6c2.8-2.7,6.4-4,10.9-4c2.4,0,4.5,0.5,6.3,1.4c1.8,0.9,3.1,2.3,4,4.1
		c3.4-3.6,7.8-5.5,13.1-5.5C833.8,70.4,836.7,71.3,838.9,73.3z"/>
	<path class="st2" d="M854.5,70.8h7.8l-6.6,33.2h-7.8L854.5,70.8z M856.8,64c-0.9-0.9-1.3-1.9-1.3-3.1c0-1.4,0.5-2.6,1.5-3.5
		c1-1,2.3-1.4,3.8-1.4c1.4,0,2.5,0.4,3.4,1.2c0.9,0.8,1.3,1.8,1.3,3c0,1.5-0.5,2.8-1.5,3.7c-1,1-2.3,1.4-3.8,1.4
		C858.8,65.3,857.7,64.9,856.8,64z"/>
	<path class="st2" d="M904.7,70.8l-6.7,33.2h-7.4l0.7-3.7c-3,2.7-6.7,4.1-11.3,4.1c-3.6,0-6.6-1-8.7-3c-2.2-2-3.3-4.7-3.3-8.3
		c0-1.3,0.1-2.7,0.4-4l3.7-18.4h7.8L876.4,89c-0.2,0.8-0.2,1.7-0.2,2.5c0,2,0.5,3.4,1.6,4.5s2.7,1.6,4.9,1.6c2.8,0,5.2-0.8,7-2.4
		c1.9-1.6,3.1-4,3.7-7.2l3.5-17.2H904.7z"/>
	<path class="st2" d="M964.7,73.3c2.1,1.9,3.2,4.6,3.2,8.2c0,1.3-0.1,2.7-0.4,4.1l-3.7,18.4H956l3.7-18.2c0.2-0.8,0.2-1.7,0.2-2.6
		c0-4-2.1-6-6.3-6c-5.5,0-8.9,3.2-10.2,9.5l-3.5,17.3h-7.8l3.7-18.2c0.2-0.8,0.2-1.7,0.2-2.6c0-4-2.1-6-6.3-6
		c-5.5,0-8.9,3.2-10.2,9.6L916,104h-7.8l6.6-33.2h7.4l-0.7,3.6c2.8-2.7,6.4-4,10.9-4c2.4,0,4.5,0.5,6.3,1.4c1.8,0.9,3.1,2.3,4,4.1
		c3.4-3.6,7.8-5.5,13.1-5.5C959.6,70.4,962.6,71.3,964.7,73.3z"/>
</g>
</svg>
