<?xml version="1.0" encoding="utf-8"?>
<!-- Generator: Adobe Illustrator 26.3.0, SVG Export Plug-In . SVG Version: 6.00 Build 0)  -->
<svg version="1.1" id="Livello_1" xmlns="http://www.w3.org/2000/svg" xmlns:xlink="http://www.w3.org/1999/xlink" x="0px" y="0px"
	 viewBox="0 0 337 100" style="enable-background:new 0 0 337 100;" xml:space="preserve">
<style type="text/css">
	.st0{fill:#89BA17;}
</style>
<g>
	<path class="st0" d="M109.6,19.5L97.8,79.8H82L88.2,48L68.1,73.8h-7.5L49.7,48l-6.4,31.8H27.6l12.1-60.3h13.9l14.1,34.9l27.4-34.9
		H109.6z"/>
	<path d="M160.9,60.5h-34.3c0.6,5.1,4.1,7.6,10.6,7.6c2.1,0,4.1-0.3,6-1c2-0.6,3.7-1.6,5.3-2.8l6.8,10.3c-5.5,4-12.1,6-19.9,6
		c-4.9,0-9.3-0.9-13.1-2.6c-3.8-1.8-6.7-4.2-8.7-7.4c-2-3.2-3.1-6.9-3.1-11.2c0-5.1,1.2-9.7,3.6-13.8c2.4-4.1,5.7-7.3,10-9.7
		c4.3-2.3,9.2-3.5,14.7-3.5c4.7,0,8.7,0.8,12.2,2.5c3.5,1.7,6.1,4.1,8,7.2c1.9,3.1,2.8,6.7,2.8,10.8C161.9,55,161.5,57.6,160.9,60.5
		z M131.4,46c-1.8,1.4-3.1,3.3-3.9,5.8h19.2c0.1-2.5-0.7-4.4-2.3-5.8c-1.6-1.4-3.7-2.1-6.4-2.1C135.4,43.9,133.2,44.6,131.4,46z"/>
	<path d="M244.9,36.4c3,2.8,4.5,6.7,4.5,11.7c0,1.9-0.2,3.8-0.6,5.8l-5.1,25.9h-16.4l4.8-24.1c0.2-1.1,0.3-2.2,0.3-3.3
		c0-2.1-0.5-3.6-1.5-4.7c-1-1-2.5-1.6-4.4-1.6c-5.2,0-8.5,3.4-9.9,10.1L212,79.8h-16.4l4.9-24.1c0.2-1,0.3-2,0.3-3.2
		c0-2.1-0.5-3.6-1.5-4.7c-1-1.1-2.5-1.6-4.4-1.6c-5.3,0-8.6,3.4-10,10.3l-4.7,23.4H164l9.3-46.7h15.5l-0.9,4.7
		c3.8-3.7,8.5-5.5,14-5.5c3.1,0,5.9,0.6,8.4,1.9c2.5,1.3,4.4,3.2,5.7,5.6c2.2-2.5,4.7-4.4,7.6-5.6c2.9-1.3,6.1-1.9,9.5-1.9
		C238,32.3,242,33.7,244.9,36.4z"/>
	<path d="M267.8,77.9c-3.7-1.8-6.5-4.2-8.5-7.5c-2-3.2-3-7-3-11.2c0-5.1,1.2-9.7,3.7-13.8c2.5-4.1,5.9-7.3,10.3-9.7
		c4.4-2.4,9.3-3.5,14.7-3.5c4.9,0,9.2,0.9,12.9,2.6c3.7,1.8,6.5,4.2,8.5,7.4c2,3.2,3,6.9,3,11.2c0,5.1-1.2,9.7-3.7,13.8
		c-2.5,4.1-5.9,7.3-10.2,9.7c-4.3,2.4-9.3,3.5-14.8,3.5C275.8,80.5,271.5,79.7,267.8,77.9z M289.7,63.7c2.1-2.4,3.1-5.5,3.1-9.4
		c0-2.8-0.8-4.9-2.3-6.6c-1.5-1.6-3.7-2.4-6.5-2.4c-3.3,0-5.9,1.2-8,3.6c-2.1,2.4-3.1,5.6-3.1,9.5c0,2.8,0.8,4.9,2.3,6.5
		c1.5,1.6,3.7,2.4,6.5,2.4C284.9,67.4,287.6,66.2,289.7,63.7z"/>
</g>
</svg>
