<?xml version="1.0" encoding="utf-8"?>
<!-- Generator: Adobe Illustrator 26.3.0, SVG Export Plug-In . SVG Version: 6.00 Build 0)  -->
<svg version="1.1" id="Livello_1" xmlns="http://www.w3.org/2000/svg" xmlns:xlink="http://www.w3.org/1999/xlink" x="0px" y="0px"
	 viewBox="0 0 350 100" style="enable-background:new 0 0 350 100;" xml:space="preserve">
<style type="text/css">
	.st0{fill:#89BA17;}
</style>
<g>
	<path class="st0" d="M99.2,10.1L87,72H70.9l6.4-32.6L56.6,65.9h-7.7L37.7,39.3L31.2,72H15.1l12.4-61.9h14.2l14.5,35.8l28.1-35.8
		H99.2z"/>
	<path d="M158.6,24.1l-30.7,50c-2.5,4.1-5,7.2-7.3,9.5c-2.3,2.3-4.8,3.9-7.4,4.9c-2.6,1-5.6,1.5-9.1,1.5c-2.5,0-5.1-0.4-7.6-1.2
		c-2.5-0.8-4.5-1.8-6-3l7.5-11.8c2.1,1.8,4.6,2.7,7.4,2.7c1.5,0,2.8-0.3,3.9-1c1.1-0.7,2.1-1.8,3.2-3.3l-10.9-48.2h16.7l6,29.4
		l17.7-29.4H158.6z"/>
	<path d="M192.6,70.1c-3.8-1.8-6.7-4.3-8.8-7.6c-2.1-3.3-3.1-7.1-3.1-11.5c0-5.2,1.3-10,3.8-14.1c2.5-4.2,6.1-7.5,10.6-9.9
		c4.5-2.4,9.6-3.6,15.3-3.6c5.4,0,10.1,1.1,14.1,3.4c3.9,2.3,6.8,5.5,8.7,9.6l-14.3,6.8c-1.8-4.2-4.9-6.4-9.3-6.4
		c-3.4,0-6.2,1.2-8.4,3.7c-2.2,2.5-3.3,5.7-3.3,9.5c0,2.8,0.8,5.1,2.4,6.8c1.6,1.7,3.9,2.5,6.9,2.5c2.2,0,4.2-0.5,5.9-1.5
		c1.7-1,3.2-2.6,4.4-4.8l12.3,7.4c-2.3,3.9-5.5,6.9-9.7,9.1c-4.2,2.2-8.8,3.3-14.1,3.3C200.8,72.8,196.4,71.9,192.6,70.1z"/>
	<path d="M292,24.1L282.4,72h-15.9l1-4.5c-3.8,3.5-8.5,5.3-13.9,5.3c-3.5,0-6.8-0.9-9.9-2.6c-3.1-1.7-5.6-4.3-7.5-7.6
		c-1.9-3.3-2.8-7.2-2.8-11.7c0-5.2,1.2-9.9,3.5-14.1c2.3-4.2,5.5-7.5,9.5-9.9c4-2.4,8.3-3.6,13-3.6c7,0,11.8,2.2,14.7,6.5l1.2-5.7
		H292z M267.7,55.5c2.1-2.5,3.2-5.7,3.2-9.6c0-2.8-0.8-5.1-2.4-6.7c-1.6-1.6-3.8-2.5-6.7-2.5c-3.4,0-6.1,1.2-8.2,3.7
		c-2.1,2.5-3.2,5.7-3.2,9.7c0,2.8,0.8,5.1,2.4,6.7c1.6,1.6,3.8,2.4,6.7,2.4C262.8,59.2,265.5,58,267.7,55.5z"/>
	<path d="M334.9,23.3L332,38.4c-1.5-0.2-2.7-0.3-3.8-0.3c-3.8,0-6.8,0.9-9.1,2.7c-2.3,1.8-3.8,4.6-4.6,8.5L310,72h-16.8l9.5-47.9
		h15.9l-1.1,5.3C321.6,25.3,327.4,23.3,334.9,23.3z"/>
</g>
</svg>
