<?xml version="1.0" encoding="utf-8"?>
<!-- Generator: Adobe Illustrator 25.2.1, SVG Export Plug-In . SVG Version: 6.00 Build 0)  -->
<svg version="1.1" id="Livello_1" xmlns="http://www.w3.org/2000/svg" xmlns:xlink="http://www.w3.org/1999/xlink" x="0px" y="0px"
	 viewBox="0 0 50 50" style="enable-background:new 0 0 50 50;" xml:space="preserve">
<style type="text/css">
	.st0{fill:#F4F8F9;}
	.st1{fill:#89BA17;}
	.st2{fill:#FFFFFF;}
	.st3{fill:#8D9498;}
	.st4{fill-rule:evenodd;clip-rule:evenodd;fill:#FFFFFF;}
	.st5{fill:none;stroke:#606060;stroke-width:5.000000e-02;stroke-miterlimit:10;}
	.st6{fill:#0099B3;}
	.st7{fill:#00ABAB;}
	.st8{fill:#1D3176;}
	.st9{fill:#86BC25;}
	.st10{fill:none;stroke:#000000;stroke-width:0.15;stroke-miterlimit:10;}
	.st11{fill-rule:evenodd;clip-rule:evenodd;fill:#1D1D1D;}
	.st12{fill:none;stroke:#8D9498;stroke-width:0.15;stroke-miterlimit:10;}
	.st13{fill:#FFFFFF;stroke:#606060;stroke-width:5.000000e-02;stroke-miterlimit:10;}
	.st14{fill:none;stroke:#FFFFFF;stroke-miterlimit:10;}
	.st15{fill-rule:evenodd;clip-rule:evenodd;}
	.st16{fill:#1D1D1B;}
	.st17{fill:#FF0000;}
	.st18{fill:none;}
</style>
<g>
	<path class="st17" d="M13.8,39.6c-0.9,0-1.7-0.2-2.3-0.7c-0.6-0.5-0.9-1.1-0.9-1.9c0-0.8,0.3-1.6,1-2.4l8.7-9.8l-8.1-9.1
		c-0.8-0.8-1.1-1.6-1.1-2.4s0.4-1.4,1-1.9c0.6-0.5,1.4-0.7,2.3-0.7c1,0,1.8,0.2,2.4,0.5c0.7,0.3,1.3,0.8,1.8,1.4l6.2,7.2l6.3-7.2
		c0.6-0.7,1.2-1.1,1.8-1.4c0.6-0.3,1.4-0.5,2.3-0.5c1,0,1.7,0.2,2.3,0.7s0.9,1.1,0.9,1.9c0,0.8-0.3,1.6-1.1,2.4l-8.1,9l8.8,9.8
		c0.8,0.8,1.1,1.6,1.1,2.4c0,0.8-0.4,1.4-1,1.9c-0.6,0.5-1.4,0.7-2.4,0.7c-1.7,0-3.1-0.6-4.2-1.9l-6.9-7.9L18,37.7
		c-0.6,0.6-1.1,1.1-1.8,1.4C15.6,39.4,14.7,39.6,13.8,39.6z"/>
</g>
</svg>
