<?xml version="1.0" encoding="utf-8"?>
<!-- Generator: Adobe Illustrator 25.2.1, SVG Export Plug-In . SVG Version: 6.00 Build 0)  -->
<svg version="1.1" id="Livello_1" xmlns="http://www.w3.org/2000/svg" xmlns:xlink="http://www.w3.org/1999/xlink" x="0px" y="0px"
	 viewBox="0 0 50 50" style="enable-background:new 0 0 50 50;" xml:space="preserve">
<style type="text/css">
	.st0{fill:#F4F8F9;}
	.st1{fill:#89BA17;}
	.st2{fill:#FFFFFF;}
	.st3{fill:#8D9498;}
	.st4{fill-rule:evenodd;clip-rule:evenodd;fill:#FFFFFF;}
	.st5{fill:none;stroke:#606060;stroke-width:5.000000e-02;stroke-miterlimit:10;}
	.st6{fill:#0099B3;}
	.st7{fill:#00ABAB;}
	.st8{fill:#1D3176;}
	.st9{fill:#86BC25;}
	.st10{fill:none;stroke:#000000;stroke-width:0.15;stroke-miterlimit:10;}
	.st11{fill-rule:evenodd;clip-rule:evenodd;fill:#1D1D1D;}
	.st12{fill:none;stroke:#8D9498;stroke-width:0.15;stroke-miterlimit:10;}
	.st13{fill:#FFFFFF;stroke:#606060;stroke-width:5.000000e-02;stroke-miterlimit:10;}
	.st14{fill:none;stroke:#FFFFFF;stroke-miterlimit:10;}
	.st15{fill-rule:evenodd;clip-rule:evenodd;}
	.st16{fill:#1D1D1B;}
	.st17{fill:#FF0000;}
	.st18{fill:none;}
</style>
<g>
	<g id="Layer_2_9_">
		<g id="Layer_1-2_9_">
			<path d="M47.7,15.4c-0.6-1.6-2.1-2.6-3.8-2.6H19.6c-1.7,0-3.2,1.1-3.8,2.7c-0.2,0.4-0.2,0.9-0.2,1.4v16.2c0,1.7,1,3.1,2.5,3.8
				c0.5,0.2,1,0.3,1.5,0.3h24.4c0.5,0,1-0.1,1.4-0.3c0.9-0.3,1.6-1,2.1-1.8c0.3-0.6,0.5-1.3,0.5-2V16.9C48,16.4,47.9,15.9,47.7,15.4
				z M18.2,16.9c0-0.7,0.6-1.4,1.4-1.4h24.4c0.7,0,1.4,0.6,1.4,1.4v0.3l-10.8,8.1L32.2,27l-0.5,0.4L31.2,27L29,25.3l-10.8-8.1V16.9z
				 M18.2,33.1V20.6l8.5,6.4l-8.5,6.4C18.2,33.3,18.2,33.2,18.2,33.1z M21.2,34.5l7.7-5.8l1.9,1.5c0.5,0.4,1.1,0.4,1.6,0l1.9-1.5
				l7.7,5.8H21.2z M45.3,33.1c0,0.1,0,0.2,0,0.3L36.7,27l8.5-6.5V33.1z"/>
		</g>
	</g>
	<path class="st1" d="M12,18.3H3.1c-0.6,0-1.1,0.5-1.1,1.1s0.5,1.1,1.1,1.1H12c0.6,0,1.1-0.5,1.1-1.1S12.7,18.3,12,18.3z"/>
	<path class="st1" d="M12,24H5.1C4.5,24,4,24.5,4,25.1s0.5,1.1,1.1,1.1H12c0.6,0,1.1-0.5,1.1-1.1S12.7,24,12,24z"/>
	<path class="st1" d="M12,29.6H9.1c-0.6,0-1.1,0.5-1.1,1.1s0.5,1.1,1.1,1.1H12c0.6,0,1.1-0.5,1.1-1.1S12.7,29.6,12,29.6z"/>
</g>
</svg>
