<?xml version="1.0" encoding="utf-8"?>
<!-- Generator: Adobe Illustrator 25.2.1, SVG Export Plug-In . SVG Version: 6.00 Build 0)  -->
<svg version="1.1" id="Livello_1" xmlns="http://www.w3.org/2000/svg" xmlns:xlink="http://www.w3.org/1999/xlink" x="0px" y="0px"
	 viewBox="0 0 50 50" style="enable-background:new 0 0 50 50;" xml:space="preserve">
<style type="text/css">
	.st0{fill:#F4F8F9;}
	.st1{fill:#89BA17;}
	.st2{fill:#FFFFFF;}
	.st3{fill:#8D9498;}
	.st4{fill-rule:evenodd;clip-rule:evenodd;fill:#FFFFFF;}
	.st5{fill:none;stroke:#606060;stroke-width:5.000000e-02;stroke-miterlimit:10;}
	.st6{fill:#0099B3;}
	.st7{fill:#00ABAB;}
	.st8{fill:#1D3176;}
	.st9{fill:#86BC25;}
	.st10{fill:none;stroke:#000000;stroke-width:0.15;stroke-miterlimit:10;}
	.st11{fill-rule:evenodd;clip-rule:evenodd;fill:#1D1D1D;}
	.st12{fill:none;stroke:#8D9498;stroke-width:0.15;stroke-miterlimit:10;}
	.st13{fill:#FFFFFF;stroke:#606060;stroke-width:5.000000e-02;stroke-miterlimit:10;}
	.st14{fill:none;stroke:#FFFFFF;stroke-miterlimit:10;}
	.st15{fill-rule:evenodd;clip-rule:evenodd;}
	.st16{fill:#1D1D1B;}
</style>
<g>
	<path class="st2" d="M15,15.1l5.3,2.3l1,1.3c0.3,0.4,0.6,0.7,1,0.9c-0.2,0.5-0.3,1.1-0.3,1.7v2.5c0,0.8,0.2,1.6,0.7,2.3
		c0.4,0.7,1.1,1.2,1.8,1.6v2.3c0,0.5,0.2,1,0.5,1.3c0.3,0.3,0.8,0.5,1.3,0.5s1-0.2,1.3-0.5c0.3-0.3,0.5-0.8,0.5-1.3v-2.3
		c0.7-0.4,1.4-0.9,1.8-1.6c0.4-0.7,0.7-1.5,0.7-2.3v-2.5c0-0.4-0.1-0.8-0.2-1.2h0.8c0.2,0,0.3-0.1,0.4-0.2s0.2-0.3,0.2-0.4v-4.2
		c0.2,0.4,0.6,0.8,1,1s0.9,0.4,1.3,0.4c0.2,0,0.4,0,0.6-0.1l0.9-0.2c0.1,0,0.2-0.1,0.2-0.1c0.1-0.1,0.1-0.1,0.2-0.2
		c0-0.1,0.1-0.2,0.1-0.3c0-0.1,0-0.2,0-0.3l-0.6-1.3c0.1,0,0.1,0,0.2,0l1.1-0.3c0.1,0,0.2-0.1,0.2-0.1c0.1-0.1,0.1-0.1,0.2-0.2
		c0-0.1,0.1-0.2,0.1-0.3c0-0.1,0-0.2-0.1-0.3l-0.6-1.2c0.8-0.5,1.4-1.2,1.6-2l0,0c0.1-0.2,0.1-0.3,0-0.5c0-0.2-0.1-0.3-0.2-0.5
		S38,8.5,37.8,8.5c-0.2-0.1-0.3-0.1-0.5-0.1h-3l-5.5-0.6h0h0L17,6.5c0,0,0,0-0.1,0H7.1C7,6.5,6.8,6.6,6.7,6.7C6.6,6.8,6.5,7,6.5,7.1
		v7.4c0,0.2,0.1,0.3,0.2,0.4c0.1,0.1,0.3,0.2,0.4,0.2H15z M26.9,29.9c0,0.1,0,0.2-0.1,0.3c-0.1,0.1-0.1,0.2-0.2,0.2
		c-0.1,0-0.2,0.1-0.3,0.1c-0.1,0-0.2,0-0.3-0.1c-0.1-0.1-0.2-0.1-0.2-0.2c-0.1-0.1-0.1-0.2-0.1-0.3V28c0.4,0.1,0.8,0.1,1.2,0V29.9z
		 M29.3,23.8c0,0.8-0.3,1.6-0.9,2.2c-0.6,0.6-1.4,0.9-2.2,0.9s-1.6-0.3-2.2-0.9c-0.6-0.6-0.9-1.4-0.9-2.2v-2.5
		c0-0.4,0.1-0.9,0.3-1.3c0.1,0,0.3,0,0.4,0h0.1c0.2,0,0.3,0,0.5-0.1c0,0,0,0.1,0,0.1V25c0,0.2,0.1,0.3,0.2,0.4s0.3,0.2,0.4,0.2h2.5
		c0.2,0,0.3-0.1,0.4-0.2c0.1-0.1,0.2-0.3,0.2-0.4v-4.9c0-0.2-0.1-0.3-0.2-0.4c-0.1-0.1-0.3-0.2-0.4-0.2H25c0,0-0.1,0-0.1,0
		C25,19.3,25,19.2,25,19v-0.5c0.4-0.2,0.9-0.3,1.4-0.3c0.5,0,0.9,0.1,1.3,0.4c0,0,0,0,0,0c0.3,0.5,0.7,0.9,1.2,1.2c0,0,0,0,0,0
		c0.2,0.5,0.4,1,0.4,1.5V23.8z M24.1,14.6l-0.8-0.8c-0.1-0.1-0.2-0.3-0.3-0.5c0-0.2,0-0.4,0.1-0.6c0.1-0.2,0.2-0.3,0.4-0.4
		c0.2-0.1,0.4-0.1,0.6-0.1l1.9,0.3c0.2,0,0.3,0.1,0.5,0.2c0.1,0.1,0.2,0.2,0.3,0.4l0.7,1.5c0,0,0,0.1,0,0.1v2.4
		c-0.8-0.2-1.7-0.2-2.5,0v-0.4c0-0.4-0.1-0.8-0.2-1.2C24.6,15.2,24.4,14.9,24.1,14.6L24.1,14.6z M26.9,23.1v1.2h-1.2v-1.2H26.9z
		 M25.6,21.9v-1.2h1.2v1.2H25.6z M37.1,9.6c-0.2,0.5-0.5,0.9-1,1.1l-0.6-1.1H37.1z M34.5,10.2l1.4,2.7L35.4,13c-0.1,0-0.3,0-0.4,0h0
		l-0.8-1.8c0-0.1-0.1-0.2-0.2-0.3l-1.6-1L34.5,10.2z M33.1,11.9l1.5,3.5l-0.2,0.1c-0.3,0.1-0.6,0-0.9-0.1c-0.3-0.1-0.5-0.4-0.7-0.6
		c0,0,0,0,0,0l-1.3-2.5c0-0.1-0.1-0.2-0.2-0.3l-0.9-1.6L33.1,11.9z M7.7,7.7H17l11.4,1.2l2,3.5c0.2,0.3,0.2,0.6,0.2,0.9v5.5h-0.5
		c-0.4,0-0.7-0.1-1-0.4c-0.3-0.3-0.4-0.6-0.4-1v-2.7c0-0.2-0.1-0.5-0.2-0.7l-0.7-1.5c-0.2-0.3-0.4-0.6-0.7-0.8
		c-0.3-0.2-0.6-0.4-1-0.4L24.2,11c-0.4-0.1-0.9,0-1.3,0.2c-0.4,0.2-0.7,0.5-0.9,0.9c-0.2,0.4-0.3,0.9-0.2,1.3
		c0.1,0.4,0.3,0.9,0.6,1.2l0.8,0.8c0.2,0.2,0.3,0.4,0.4,0.6c0.1,0.2,0.1,0.5,0.1,0.7v1.3c0,0,0,0,0,0v0.7c-0.3,0-0.6-0.1-0.9-0.2
		c-0.3-0.1-0.5-0.3-0.7-0.6l-1.1-1.4c-0.1-0.1-0.1-0.2-0.2-0.2L15.4,14c-0.1,0-0.2-0.1-0.3-0.1H7.7V7.7z"/>
	<path class="st2" d="M42.9,33h-3.7c-0.2,0-0.3,0.1-0.4,0.2c-0.1,0.1-0.2,0.3-0.2,0.4v0.6h-1.1l-2.8-1.4c-0.6-0.3-1.3-0.5-2-0.5
		h-2.4c-1.2,0-2.3,0.4-3.3,1l-2.2,1.5h-1.5c-0.5,0-1,0.1-1.4,0.3c-0.4,0.2-0.8,0.5-1.1,0.9h-3.9c-0.6,0-1.1,0.2-1.6,0.6
		c-0.4,0.4-0.7,0.9-0.8,1.5c-0.1,0.6,0,1.1,0.4,1.6c0.3,0.5,0.8,0.8,1.3,1l9.2,2.7c0.1,0,0.1,0,0.2,0h4.3c0.1,0,0.1,0,0.2,0l6.7-1.8
		h1.8v0.6c0,0.2,0.1,0.3,0.2,0.4c0.1,0.1,0.3,0.2,0.4,0.2h3.7c0.2,0,0.3-0.1,0.4-0.2c0.1-0.1,0.2-0.3,0.2-0.4v-8.6
		c0-0.2-0.1-0.3-0.2-0.4C43.2,33.1,43,33,42.9,33z M38.6,40.4h-1.8c-0.1,0-0.1,0-0.2,0l-6.7,1.8h-4.1l-9.1-2.7
		c-0.3-0.1-0.5-0.2-0.6-0.5c-0.1-0.2-0.2-0.5-0.2-0.8c0-0.3,0.2-0.5,0.4-0.7c0.2-0.2,0.5-0.3,0.8-0.3h3.3c-0.1,0.3-0.1,0.5-0.1,0.8
		c0,0.3,0.1,0.6,0.3,0.8c0.2,0.2,0.5,0.3,0.8,0.3h7.2c0.2,0,0.3-0.1,0.4-0.2c0.1-0.1,0.2-0.3,0.2-0.4c0-0.2-0.1-0.3-0.2-0.4
		C28.6,38,28.5,38,28.3,38h-7c0-0.5,0.3-1,0.6-1.3c0.4-0.3,0.9-0.5,1.4-0.5H25c0.1,0,0.2,0,0.3-0.1l2.3-1.6c0.8-0.5,1.7-0.8,2.7-0.8
		h2.4c0.5,0,1,0.1,1.4,0.3l2.9,1.4c0.1,0,0.2,0.1,0.3,0.1h1.2V40.4z M42.3,41.7h-2.5v-7.4h2.5V41.7z"/>
</g>
</svg>
