<?xml version="1.0" encoding="utf-8"?>
<!-- Generator: Adobe Illustrator 26.3.0, SVG Export Plug-In . SVG Version: 6.00 Build 0)  -->
<svg version="1.1" id="Livello_1" xmlns="http://www.w3.org/2000/svg" xmlns:xlink="http://www.w3.org/1999/xlink" x="0px" y="0px"
	 viewBox="0 0 280 100" style="enable-background:new 0 0 280 100;" xml:space="preserve">
<style type="text/css">
	.st0{fill:#89BA17;}
</style>
<g>
	<path class="st0" d="M32.2,34.2H13l2.9-14h56l-2.9,14H49.9l-9.7,48.5H22.5L32.2,34.2z"/>
	<path d="M73.8,80.8C70,79,67,76.4,64.9,73.1c-2.1-3.3-3.1-7.2-3.1-11.6c0-5.3,1.3-10.1,3.8-14.3c2.6-4.2,6.1-7.6,10.6-10
		c4.5-2.4,9.6-3.7,15.3-3.7c5.1,0,9.6,0.9,13.4,2.7c3.8,1.8,6.8,4.4,8.8,7.7c2.1,3.3,3.1,7.2,3.1,11.6c0,5.3-1.3,10.1-3.8,14.3
		c-2.6,4.3-6.1,7.6-10.6,10.1c-4.5,2.4-9.6,3.7-15.3,3.7C82.1,83.6,77.6,82.7,73.8,80.8z M96.5,66.1c2.1-2.5,3.2-5.8,3.2-9.7
		c0-2.9-0.8-5.1-2.4-6.8c-1.6-1.7-3.8-2.5-6.7-2.5c-3.4,0-6.2,1.3-8.3,3.8c-2.1,2.5-3.2,5.8-3.2,9.8c0,2.9,0.8,5.1,2.4,6.7
		c1.6,1.6,3.8,2.5,6.7,2.5C91.6,69.9,94.3,68.6,96.5,66.1z"/>
	<path d="M210.5,16.4l-13.2,66.3h-16.1l1-4.7c-3.9,3.7-8.6,5.5-14,5.5c-3.6,0-6.9-0.9-10.1-2.6c-3.1-1.8-5.6-4.3-7.6-7.6
		c-1.9-3.3-2.9-7.3-2.9-11.8c0-5.2,1.2-10,3.5-14.3c2.4-4.3,5.6-7.6,9.6-10.1c4.1-2.4,8.5-3.7,13.2-3.7c6.9,0,11.8,2.1,14.7,6.4
		l4.7-23.5H210.5z M182.3,66.1c2.1-2.5,3.2-5.8,3.2-9.7c0-2.9-0.8-5.1-2.4-6.8c-1.6-1.7-3.8-2.5-6.7-2.5c-3.4,0-6.2,1.3-8.3,3.8
		c-2.1,2.5-3.2,5.8-3.2,9.8c0,2.9,0.8,5.1,2.4,6.7c1.6,1.6,3.8,2.5,6.7,2.5C177.4,69.9,180.2,68.6,182.3,66.1z"/>
	<path d="M221.6,80.8c-3.8-1.8-6.8-4.4-8.8-7.7c-2.1-3.3-3.1-7.2-3.1-11.6c0-5.3,1.3-10.1,3.8-14.3c2.6-4.2,6.1-7.6,10.6-10
		c4.5-2.4,9.6-3.7,15.3-3.7c5.1,0,9.6,0.9,13.4,2.7c3.8,1.8,6.8,4.4,8.8,7.7c2.1,3.3,3.1,7.2,3.1,11.6c0,5.3-1.3,10.1-3.8,14.3
		c-2.6,4.3-6.1,7.6-10.6,10.1c-4.5,2.4-9.6,3.7-15.3,3.7C229.9,83.6,225.4,82.7,221.6,80.8z M244.3,66.1c2.1-2.5,3.2-5.8,3.2-9.7
		c0-2.9-0.8-5.1-2.4-6.8c-1.6-1.7-3.8-2.5-6.7-2.5c-3.4,0-6.2,1.3-8.3,3.8c-2.1,2.5-3.2,5.8-3.2,9.8c0,2.9,0.8,5.1,2.4,6.7
		c1.6,1.6,3.8,2.5,6.7,2.5C239.4,69.9,242.2,68.6,244.3,66.1z"/>
</g>
</svg>
