<?xml version="1.0" encoding="utf-8"?>
<!-- Generator: Adobe Illustrator 25.2.1, SVG Export Plug-In . SVG Version: 6.00 Build 0)  -->
<svg version="1.1" id="Livello_1" xmlns="http://www.w3.org/2000/svg" xmlns:xlink="http://www.w3.org/1999/xlink" x="0px" y="0px"
	 viewBox="0 0 50 50" style="enable-background:new 0 0 50 50;" xml:space="preserve">
<style type="text/css">
	.st0{fill:#F4F8F9;}
	.st1{fill:#89BA17;}
	.st2{fill:#FFFFFF;}
	.st3{fill:#8D9498;}
	.st4{fill-rule:evenodd;clip-rule:evenodd;fill:#FFFFFF;}
	.st5{fill:none;stroke:#606060;stroke-width:5.000000e-02;stroke-miterlimit:10;}
	.st6{fill:#0099B3;}
	.st7{fill:#00ABAB;}
	.st8{fill:#1D3176;}
	.st9{fill:#86BC25;}
	.st10{fill:none;stroke:#000000;stroke-width:0.15;stroke-miterlimit:10;}
	.st11{fill-rule:evenodd;clip-rule:evenodd;fill:#1D1D1D;}
	.st12{fill:none;stroke:#8D9498;stroke-width:0.15;stroke-miterlimit:10;}
	.st13{fill:#FFFFFF;stroke:#606060;stroke-width:5.000000e-02;stroke-miterlimit:10;}
	.st14{fill:none;stroke:#FFFFFF;stroke-miterlimit:10;}
	.st15{fill-rule:evenodd;clip-rule:evenodd;}
	.st16{fill:#1D1D1B;}
</style>
<g>
	<g id="Layer_2_6_">
		<g id="Layer_1-2_6_">
			<path class="st1" d="M37,39.4c-4.6,0-8.9-2.6-11.3-6.9c-0.2-0.3-0.2-0.8,0-1.1c2.5-4.3,6.7-7,11.3-6.9c4.6,0,8.9,2.6,11.3,6.9
				c0.2,0.3,0.2,0.8,0,1.1C45.9,36.8,41.6,39.5,37,39.4z M27.7,31.9c2.2,3.4,5.7,5.4,9.4,5.3c3.7,0,7.2-2,9.4-5.3
				c-2.2-3.4-5.7-5.4-9.4-5.4C33.3,26.6,29.8,28.6,27.7,31.9z"/>
			<path class="st1" d="M37,35.2c-1.6,0-2.9-1.4-2.9-3.2s1.3-3.2,2.9-3.2s2.9,1.4,2.9,3.2S38.6,35.2,37,35.2z"/>
		</g>
	</g>
	<path d="M23.8,33.6C23.8,33.6,23.8,33.6,23.8,33.6l-7.4,0l1.3-2.8c0.3-0.6,0.9-1,1.7-1h5c0.3-0.8,0.6-1.5,1-2.2
		c-0.2,0-0.5-0.1-0.7-0.1h-5.2c-1.7,0-3.1,0.9-3.7,2.3l-1.8,3.7h-0.8H5.6c-1,0-1.9-0.8-1.9-1.9v-6c0-2.7,2.2-4.9,4.9-4.9h26.9
		c1.5,0,2.8,0.7,3.7,1.7c1.2,0.4,2.3,1,3.3,1.8c-0.4-2.2-1.9-4.1-3.8-5h2.9c0.6,0,1.1-0.5,1.1-1.1s-0.5-1.1-1.1-1.1h-4.4l-2.1-4.8
		c-1.3-2.6-3.8-4.2-6.5-4.2h-13c-2.8,0-5.3,1.7-6.4,4.3l-2,4.7H2.6c-0.6,0-1.1,0.5-1.1,1.1s0.5,1.1,1.1,1.1h2.9
		c-2.4,1.2-4,3.6-4,6.4v6c0,1.3,0.6,2.4,1.5,3.2v2.8c0,2.3,1.8,4.1,4.1,4.1h3c2.3,0,4.1-1.8,4.1-4.1v-1.9h0.4H24
		C23.8,35.1,23.8,34.4,23.8,33.6z M11.1,13.3c0.7-1.7,2.5-2.9,4.4-2.9h13c1.9,0,3.6,1.2,4.5,2.9l2.3,5.3H8.8L11.1,13.3z M12,37.7
		c0,1-0.8,1.9-1.9,1.9h-3c-1,0-1.9-0.8-1.9-1.9v-1.9h0.4H12V37.7z"/>
	<path d="M7.1,28.4h4.5c0.6,0,1.1-0.5,1.1-1.1s-0.5-1.1-1.1-1.1H7.1c-0.6,0-1.1,0.5-1.1,1.1S6.5,28.4,7.1,28.4z"/>
</g>
</svg>
