<?xml version="1.0" encoding="utf-8"?>
<!-- Generator: Adobe Illustrator 25.2.1, SVG Export Plug-In . SVG Version: 6.00 Build 0)  -->
<svg version="1.1" id="Livello_1" xmlns="http://www.w3.org/2000/svg" xmlns:xlink="http://www.w3.org/1999/xlink" x="0px" y="0px"
	 viewBox="0 0 50 50" style="enable-background:new 0 0 50 50;" xml:space="preserve">
<style type="text/css">
	.st0{fill:#F4F8F9;}
	.st1{fill:#89BA17;}
	.st2{fill:#FFFFFF;}
	.st3{fill:#8D9498;}
	.st4{fill-rule:evenodd;clip-rule:evenodd;fill:#FFFFFF;}
	.st5{fill:none;stroke:#606060;stroke-width:5.000000e-02;stroke-miterlimit:10;}
	.st6{fill:#0099B3;}
	.st7{fill:#00ABAB;}
	.st8{fill:#1D3176;}
	.st9{fill:#86BC25;}
	.st10{fill:none;stroke:#000000;stroke-width:0.15;stroke-miterlimit:10;}
	.st11{fill-rule:evenodd;clip-rule:evenodd;fill:#1D1D1D;}
	.st12{fill:none;stroke:#8D9498;stroke-width:0.15;stroke-miterlimit:10;}
	.st13{fill:#FFFFFF;stroke:#606060;stroke-width:5.000000e-02;stroke-miterlimit:10;}
	.st14{fill:none;stroke:#FFFFFF;stroke-miterlimit:10;}
	.st15{fill-rule:evenodd;clip-rule:evenodd;}
	.st16{fill:#1D1D1B;}
	.st17{fill:#FF0000;}
	.st18{fill:none;}
</style>
<g>
	<g id="Page-1_3_">
		<g id="Dribbble-Light-Preview_3_" transform="translate(-340.000000, -1279.000000)">
			<g id="icons_3_" transform="translate(56.000000, 160.000000)">
				<path id="file_x5F_pdf-_x5B__x23_1754_x5D_" class="st15" d="M323,1129.7l-7.9-8.3c-0.3-0.3-0.7-0.5-1.1-0.5h-16.6
					c-1.6,0-2.9,1.4-2.9,3v10.1c0,0.8,0.6,1.3,1.4,1.3h0c0.8,0,1.4-0.5,1.4-1.3v-8.6c0-0.8,0.6-1.6,1.4-1.6h13v5.9
					c0,1.6,1.3,2.7,2.9,2.7h5.8v1.6c0,0.8,0.6,1.3,1.4,1.3h0c0.8,0,1.4-0.5,1.4-1.3v-3.3C323.4,1130.4,323.2,1130,323,1129.7
					L323,1129.7z M300.3,1142.6c0-0.8-0.6-1.4-1.4-1.4h-1.4v2.9h1.4C299.7,1144.1,300.3,1143.4,300.3,1142.6L300.3,1142.6z
					 M303.2,1142.3c0.1,2.5-1.9,4.6-4.3,4.6h-1.4v1.6c0,0.8-0.7,1.3-1.4,1.3h0c-0.8,0-1.4-0.5-1.4-1.3v-8.6c0-0.8,0.6-1.6,1.4-1.6
					h2.6C301,1138.2,303.1,1139.9,303.2,1142.3L303.2,1142.3z M310.4,1142.6c0-0.8-0.7-1.6-1.5-1.6h-1.4v5.8h1.4
					c0.8,0,1.5-0.5,1.5-1.3V1142.6z M313.3,1142.5v2.9c0,2.4-1.9,4.3-4.3,4.3h-3c-0.7,0-1.3-0.6-1.3-1.3v-8.8c0-0.8,0.6-1.4,1.4-1.4
					h2.9C311.4,1138.2,313.3,1140.1,313.3,1142.5L313.3,1142.5z M323.4,1139.7L323.4,1139.7c0,0.8-0.7,1.4-1.5,1.4h-4.3v2.9h4.3
					c0.8,0,1.5,0.7,1.5,1.5v0c0,0.8-0.7,1.4-1.5,1.4h-4.3v1.6c0,0.8-0.7,1.3-1.4,1.3h0c-0.8,0-1.4-0.5-1.4-1.3v-8.6
					c0-0.8,0.6-1.6,1.4-1.6h5.8C322.7,1138.2,323.4,1138.9,323.4,1139.7L323.4,1139.7z"/>
			</g>
		</g>
	</g>
	<g id="Layer_2_7_">
		<g id="Layer_1-2_7_">
			<path class="st1" d="M25,48.1c-4.6,0-8.9-2.6-11.3-6.9c-0.2-0.3-0.2-0.8,0-1.1c2.5-4.3,6.7-7,11.3-6.9c4.6,0,8.9,2.6,11.3,6.9
				c0.2,0.3,0.2,0.8,0,1.1C33.9,45.5,29.6,48.1,25,48.1z M15.6,40.6C17.8,44,21.3,46,25,46c3.7,0,7.2-2,9.4-5.3
				c-2.2-3.4-5.7-5.4-9.4-5.4C21.3,35.2,17.8,37.2,15.6,40.6z"/>
			<path class="st1" d="M25,43.8c-1.6,0-2.9-1.4-2.9-3.2s1.3-3.2,2.9-3.2c1.6,0,2.9,1.4,2.9,3.2S26.6,43.8,25,43.8z"/>
		</g>
	</g>
</g>
</svg>
