<?xml version="1.0" encoding="utf-8"?>
<!-- Generator: Adobe Illustrator 25.2.1, SVG Export Plug-In . SVG Version: 6.00 Build 0)  -->
<svg version="1.1" id="Livello_1" xmlns="http://www.w3.org/2000/svg" xmlns:xlink="http://www.w3.org/1999/xlink" x="0px" y="0px"
	 viewBox="0 0 50 50" style="enable-background:new 0 0 50 50;" xml:space="preserve">
<style type="text/css">
	.st0{fill:#F4F8F9;}
	.st1{fill:#89BA17;}
	.st2{fill:#FFFFFF;}
	.st3{fill:#8D9498;}
	.st4{fill-rule:evenodd;clip-rule:evenodd;fill:#FFFFFF;}
	.st5{fill:none;stroke:#606060;stroke-width:5.000000e-02;stroke-miterlimit:10;}
	.st6{fill:#0099B3;}
	.st7{fill:#00ABAB;}
	.st8{fill:#1D3176;}
	.st9{fill:#86BC25;}
	.st10{fill:none;stroke:#000000;stroke-width:0.15;stroke-miterlimit:10;}
	.st11{fill-rule:evenodd;clip-rule:evenodd;fill:#1D1D1D;}
	.st12{fill:none;stroke:#8D9498;stroke-width:0.15;stroke-miterlimit:10;}
	.st13{fill:#FFFFFF;stroke:#606060;stroke-width:5.000000e-02;stroke-miterlimit:10;}
	.st14{fill:none;stroke:#FFFFFF;stroke-miterlimit:10;}
	.st15{fill-rule:evenodd;clip-rule:evenodd;}
	.st16{fill:#1D1D1B;}
	.st17{fill:#FF0000;}
	.st18{fill:none;}
</style>
<g>
	<g>
		<path d="M28.8,12.3c-0.3-0.3-0.9-0.3-1.2,0c-0.3,0.3-0.3,0.9,0,1.2l1.2,1.2c0.2,0.2,0.4,0.3,0.6,0.3s0.4-0.1,0.6-0.3l2.4-2.4
			c0.3-0.3,0.3-0.9,0-1.2c-0.3-0.3-0.9-0.3-1.2,0l-1.8,1.8L28.8,12.3z"/>
		<path d="M31.3,15.5l-1.8,1.8l-0.6-0.6c-0.3-0.3-0.9-0.3-1.2,0c-0.3,0.3-0.3,0.9,0,1.2l1.2,1.2c0.2,0.2,0.4,0.3,0.6,0.3
			s0.4-0.1,0.6-0.3l2.4-2.4c0.3-0.3,0.3-0.9,0-1.2C32.1,15.1,31.6,15.1,31.3,15.5L31.3,15.5z"/>
		<path d="M25,12.1h-6.9c-0.5,0-0.9,0.4-0.9,0.9s0.4,0.9,0.9,0.9H25c0.5,0,0.9-0.4,0.9-0.9S25.5,12.1,25,12.1z"/>
		<path d="M25,16.4h-6.9c-0.5,0-0.9,0.4-0.9,0.9s0.4,0.9,0.9,0.9H25c0.5,0,0.9-0.4,0.9-0.9S25.5,16.4,25,16.4z"/>
		<path d="M25,20.8h-6.9c-0.5,0-0.9,0.4-0.9,0.9c0,0.5,0.4,0.9,0.9,0.9H25c0.5,0,0.9-0.4,0.9-0.9C25.9,21.2,25.5,20.8,25,20.8z"/>
		<path d="M25,25.1h-6.9c-0.5,0-0.9,0.4-0.9,0.9c0,0.5,0.4,0.9,0.9,0.9H25c0.5,0,0.9-0.4,0.9-0.9C25.9,25.5,25.5,25.1,25,25.1z"/>
		<path d="M35.3,5.3h-4.9c-0.3-0.7-1-1.1-1.8-1.1h-0.8L28.1,3c0.1-0.3,0-0.5-0.2-0.7c-0.2-0.2-0.4-0.3-0.7-0.3h-4.6
			c-0.3,0-0.5,0.1-0.7,0.3c-0.2,0.2-0.2,0.5-0.2,0.7l0.3,1.2h-0.8c-0.8,0-1.5,0.5-1.8,1.1h-4.9c-0.5,0-0.9,0.4-0.9,0.9v24.1
			c0,0.5,0.4,0.9,0.9,0.9h20.6c0.5,0,0.9-0.4,0.9-0.9V6.2C36.2,5.7,35.8,5.3,35.3,5.3z M21.4,5.9h1.9c0.3,0,0.5-0.1,0.7-0.3
			c0.2-0.2,0.2-0.5,0.2-0.7l-0.3-1.2h2.4l-0.3,1.2c-0.1,0.3,0,0.5,0.2,0.7c0.2,0.2,0.4,0.3,0.7,0.3h1.9c0.1,0,0.3,0.1,0.3,0.2
			l0.2,1.5h-8.3l0.2-1.5C21.1,6,21.3,5.9,21.4,5.9z M34.4,29.5H15.6V7h3.7L19,8.3c0,0.2,0,0.5,0.2,0.7s0.4,0.3,0.7,0.3h10.3
			c0.3,0,0.5-0.1,0.7-0.3S31,8.6,31,8.3L30.8,7h3.7V29.5z"/>
	</g>
	<g id="Layer_2_8_">
		<g id="Layer_1-2_8_">
			<path class="st1" d="M25,48.1c-4.5,0-8.7-2.5-11.1-6.8c-0.2-0.3-0.2-0.8,0-1.1c2.4-4.2,6.6-6.8,11.1-6.8c4.5,0,8.7,2.5,11.1,6.8
				c0.2,0.3,0.2,0.8,0,1.1C33.7,45.6,29.5,48.1,25,48.1z M15.8,40.8C18,44.1,21.4,46,25,46c3.6,0,7-1.9,9.2-5.2
				c-2.1-3.3-5.5-5.3-9.2-5.2C21.4,35.5,17.9,37.5,15.8,40.8z"/>
			<path class="st1" d="M25,43.9c-1.5,0-2.8-1.4-2.8-3.1s1.3-3.1,2.8-3.1c1.5,0,2.8,1.4,2.8,3.1S26.5,43.9,25,43.9z"/>
		</g>
	</g>
</g>
</svg>
